<?xml version="1.0" encoding="utf-8"?>
<!-- Generator: Adobe Illustrator 18.1.1, SVG Export Plug-In . SVG Version: 6.00 Build 0)  -->
<svg version="1.1" id="Layer_1" xmlns="http://www.w3.org/2000/svg" xmlns:xlink="http://www.w3.org/1999/xlink" x="0px" y="0px"
	 viewBox="0 0 1000 579" enable-background="new 0 0 1000 579" xml:space="preserve">
<g>
	<g>
		<defs>
			<path id="SVGID_1_" d="M886.4,7.9H113.6C59.1,7.9,15,52.1,15,106.6v365.9c0,54.5,44.1,98.6,98.6,98.6h772.8
				c54.5,0,98.6-44.1,98.6-98.6V106.6C985,52.1,940.9,7.9,886.4,7.9z"/>
		</defs>
		<clipPath id="SVGID_2_">
			<use xlink:href="#SVGID_1_"  overflow="visible"/>
		</clipPath>
		<g clip-path="url(#SVGID_2_)">
			<rect x="-13.9" y="-25" fill="#927FFF" width="995.9" height="621.3"/>
			<linearGradient id="SVGID_3_" gradientUnits="userSpaceOnUse" x1="241.4308" y1="598.631" x2="1115.8495" y2="-941.0631">
				<stop  offset="0" style="stop-color:#E71D73"/>
				<stop  offset="3.021980e-003" style="stop-color:#E71D73"/>
				<stop  offset="1" style="stop-color:#AB72C3"/>
			</linearGradient>
			<path fill="url(#SVGID_3_)" d="M220.6-39.6c-21.8,0.2-52.1,20.2-69.8,30.8c-34,20.4-61,48.8-83.4,81.3
				c-28.9,41.9-48.7,90.1-57.6,140.2c-15.9,89.8,25,180.9,77,251.9c53.1,72.5,120.6,126.2,213.7,88.2
				c144.6-59,187.4-252.9,237.4-260.5c50.1-7.6,276.9,35,330.2,0S998,95.7,998,95.7V-48C998-48,220.8-39.6,220.6-39.6z"/>
			<linearGradient id="SVGID_4_" gradientUnits="userSpaceOnUse" x1="660.6656" y1="241.2702" x2="1044.9711" y2="241.2702">
				<stop  offset="0" style="stop-color:#F59D24"/>
				<stop  offset="1" style="stop-color:#E71D73"/>
			</linearGradient>
			<path fill="url(#SVGID_4_)" d="M660.7-20.5c17.6,0,50.9,30.8,63.2,41c41.6,35,74,81.2,88.8,133.8c16.9,60.2,2.6,119.6-8.3,179.5
				C772.1,511.4,873.8,503,873.8,503l159.9-139.8L1045-20.5C1045-20.5,660.7-20.5,660.7-20.5z"/>
			<linearGradient id="SVGID_5_" gradientUnits="userSpaceOnUse" x1="893.2249" y1="731.6534" x2="672.8143" y2="264.1893">
				<stop  offset="0" style="stop-color:#33D6B2"/>
				<stop  offset="1" style="stop-color:#099EF6"/>
			</linearGradient>
			<path fill="url(#SVGID_5_)" d="M515.3,592.6c0,0-125.9-109.3-72.7-238.5s195.4-106.6,276.1-77.5s96.9-61.4,135.6-79.1
				c38.8-17.8,79.9-24.2,129.6,21s40,363.3,40,363.3l-61.4,88.8C962.6,670.6,576.7,651.8,515.3,592.6z"/>
			<linearGradient id="SVGID_6_" gradientUnits="userSpaceOnUse" x1="-223.5491" y1="633.3326" x2="241.4928" y2="347.5256">
				<stop  offset="0" style="stop-color:#F59D24"/>
				<stop  offset="1" style="stop-color:#E71D73"/>
			</linearGradient>
			<path fill="url(#SVGID_6_)" d="M-45,405.8c0,0,59.7-22.6,92-75.9s90.4-61.4,109.8-27.5s64.6,105,45.2,145.3
				s-188.9,90.4-176,184.1L-45,405.8z"/>
		</g>
	</g>
</g>
</svg>
