<?xml version="1.0" encoding="utf-8"?>
<!-- Generator: Adobe Illustrator 18.1.1, SVG Export Plug-In . SVG Version: 6.00 Build 0)  -->
<svg version="1.1" id="Layer_1" xmlns="http://www.w3.org/2000/svg" xmlns:xlink="http://www.w3.org/1999/xlink" x="0px" y="0px"
	 viewBox="0 0 1000 579" enable-background="new 0 0 1000 579" xml:space="preserve">
<g>
	<g>
		<g>
			<defs>
				<path id="SVGID_1_" d="M886.4,7.9H113.6C59.1,7.9,15,52.1,15,106.6v365.9c0,54.5,44.1,98.6,98.6,98.6h772.8
					c54.5,0,98.6-44.1,98.6-98.6V106.6C985,52.1,940.9,7.9,886.4,7.9z"/>
			</defs>
			<clipPath id="SVGID_2_">
				<use xlink:href="#SVGID_1_"  overflow="visible"/>
			</clipPath>
			<g clip-path="url(#SVGID_2_)">
				<rect x="-13.9" y="-25" fill="#927FFF" width="995.9" height="621.3"/>
				<linearGradient id="SVGID_3_" gradientUnits="userSpaceOnUse" x1="892.3291" y1="-139.5394" x2="-62.8684" y2="561.1003">
					<stop  offset="0" style="stop-color:#AB72C3"/>
					<stop  offset="0.2228" style="stop-color:#B376C4"/>
					<stop  offset="0.5748" style="stop-color:#CA80C6"/>
					<stop  offset="1" style="stop-color:#EE91C9"/>
				</linearGradient>
				<path fill="url(#SVGID_3_)" d="M220.6-39.5c-21.8,0.2-52.1,20.2-69.7,30.8c-34,20.4-61,48.8-83.4,81.3
					c-28.9,41.9-48.7,90.1-57.6,140.2c-15.9,89.8,25,180.9,77,251.9c53.1,72.5,120.6,126.2,213.7,88.2
					C445.2,493.8,488,299.9,538,292.3c50.1-7.6,276.8,35,330.1,0C921.4,257.3,998,95.8,998,95.8V-47.9
					C998-47.9,220.9-39.5,220.6-39.5z"/>
				<linearGradient id="SVGID_4_" gradientUnits="userSpaceOnUse" x1="660.8001" y1="240.2427" x2="1045.1056" y2="240.2427">
					<stop  offset="0" style="stop-color:#F59D24"/>
					<stop  offset="1" style="stop-color:#E71D73"/>
				</linearGradient>
				<path fill="url(#SVGID_4_)" d="M660.8-22.5c17.6,0,50.9,31.8,63.2,42.1c41.6,35,74,81.8,88.8,134.3
					c16.9,60.2,2.6,119.8-8.3,179.7c-32.3,177.6,69.4,169.3,69.4,169.3l159.9-140.8l11.3-384.6C1045.1-22.5,660.9-22.5,660.8-22.5z"
					/>
				<linearGradient id="SVGID_5_" gradientUnits="userSpaceOnUse" x1="893.3594" y1="731.731" x2="672.9489" y2="264.2668">
					<stop  offset="0" style="stop-color:#33D6B2"/>
					<stop  offset="7.576716e-002" style="stop-color:#2CCDBD"/>
					<stop  offset="0.285" style="stop-color:#1DB8D6"/>
					<stop  offset="0.5033" style="stop-color:#12AAE8"/>
					<stop  offset="0.7345" style="stop-color:#0BA1F3"/>
					<stop  offset="1" style="stop-color:#099EF6"/>
				</linearGradient>
				<path fill="url(#SVGID_5_)" d="M515.5,592.7c0,0-125.9-109.3-72.7-238.5s195.4-106.6,276.1-77.5c80.7,29.1,96.9-61.4,135.6-79.1
					s79.9-24.2,129.6,21c49.7,45.2,40,363.3,40,363.3l-61.4,88.8C962.8,670.7,576.8,651.9,515.5,592.7z"/>
				<linearGradient id="SVGID_6_" gradientUnits="userSpaceOnUse" x1="-223.4146" y1="633.4102" x2="241.6274" y2="347.6031">
					<stop  offset="0" style="stop-color:#28AECE"/>
					<stop  offset="3.021980e-003" style="stop-color:#28AECE"/>
					<stop  offset="0.5071" style="stop-color:#E71D73"/>
					<stop  offset="1" style="stop-color:#F59D24"/>
				</linearGradient>
				<path fill="url(#SVGID_6_)" d="M-44.8,405.8c0,0,59.7-22.6,92-75.9s90.4-61.4,109.8-27.5s64.6,105,45.2,145.3
					s-188.9,90.4-176,184.1L-44.8,405.8z"/>
			</g>
		</g>
	</g>
</g>
</svg>
