<svg width="32" height="32" viewBox="0 0 32 32" fill="none" xmlns="http://www.w3.org/2000/svg">
<path d="M27 0H5C2.23858 0 0 2.23858 0 5V27C0 29.7614 2.23858 32 5 32H27C29.7614 32 32 29.7614 32 27V5C32 2.23858 29.7614 0 27 0Z" fill="white"/>
<path d="M24.2 16.0002C24.2 18.1002 22.5 19.8002 20.4 19.8002C18.3 19.8002 16.6 18.1002 16.6 16.0002C16.6 13.9002 18.3 12.2002 20.4 12.2002C22.5 12.2002 24.2 13.9002 24.2 16.0002Z" fill="#FF0084"/>
<path d="M15.5 16.0002C15.5 18.1002 13.8 19.8002 11.7 19.8002C9.60002 19.8002 7.90002 18.1002 7.90002 16.0002C7.90002 13.9002 9.60002 12.2002 11.7 12.2002C13.7 12.2002 15.5 13.9002 15.5 16.0002Z" fill="#0063DC"/>
</svg>
