<?xml version="1.0" encoding="utf-8"?>
<!-- Generator: Adobe Illustrator 18.1.1, SVG Export Plug-In . SVG Version: 6.00 Build 0)  -->
<svg version="1.1" id="Capa_1" xmlns="http://www.w3.org/2000/svg" xmlns:xlink="http://www.w3.org/1999/xlink" x="0px" y="0px"
	 viewBox="4 116 960 325" enable-background="new 4 116 960 325" xml:space="preserve">
<g>
	<g>
		<g>
			<g>
				<g>
					<path fill="#D70D21" d="M146.5,177.7c-4.2,4.2-8.3,5.5-12.2,3.7C136.1,178.1,140.8,176.6,146.5,177.7z"/>
					<path fill="#D70D21" d="M186.8,164.3c5.2,3.2,6.7,6.1,5,9.6C187.2,172.7,185.7,169.8,186.8,164.3z"/>
					<path fill="#D70D21" d="M131.3,192.7c-3.4-1.8-6.1-4.1-6.9-8.2c6.3,1.7,9,4,9.1,8.1c-0.8,0-1.5,0-2.3,0L131.3,192.7z"/>
					<path fill="#D70D21" d="M196.7,193c0.3-6,5.3-6.5,9-8.6C205.4,188.9,202,192.3,196.7,193z"/>
					<path fill="#D70D21" d="M183.8,177.5c4.9-1.4,9.8,0,12.1,3.4C192.2,182.9,187.3,181.5,183.8,177.5z"/>
					<path fill="#D70D21" d="M131,193.2c1.3,1.4,2.6,2.8,4.1,4.5c-5.1,1.1-8.8-0.8-12-6C125.5,191.7,127.7,191.4,131,193.2
						C131.1,193.3,131,193.2,131,193.2z"/>
					<path fill="#D70D21" d="M195.9,197.7c0.5-3.7,3.5-5.4,10.7-6.1C204.9,195.9,200.6,198.3,195.9,197.7z"/>
					<path fill="#D70D21" d="M143.2,164.6c1,5.7-0.2,8-4.8,9.7C136.3,171,137.9,167.6,143.2,164.6z"/>
					<path fill="#D70D21" d="M175.9,174.4c5-2.7,8.9-2.9,12.3-0.6C185.9,176.8,181.8,177,175.9,174.4z"/>
					<path fill="#D70D21" d="M141.5,174.2c4.3-2.9,8.3-1.5,12.5,0C150.1,177.1,145,177.1,141.5,174.2z"/>
					<path fill="#D70D21" d="M202.2,177.2c1.4,4.6,0.1,7.5-4.1,9.5C195.6,183.9,196.9,180.8,202.2,177.2z"/>
					<path fill="#D70D21" d="M166.7,172.4c4-3.6,8.7-4.3,12-2.2C176.1,173.4,173,174,166.7,172.4z"/>
					<path fill="#D70D21" d="M151.2,170.1c4.5-2.3,8.2-0.3,12.1,1.9C159.2,174.4,153.8,173.6,151.2,170.1z"/>
					<path fill="#D70D21" d="M132,186.1c-4.4-2-5.8-4.8-4.5-9.3C132.4,179.1,134.1,182.7,132,186.1z"/>
					<path fill="#D70D21" d="M203.7,198.9c-3.2,3.2-6.8,5.2-11.5,4.1C193.2,199.4,198.7,197.4,203.7,198.9z"/>
					<path fill="#D70D21" d="M133.7,179.7c-3.4-1.8-3.6-5.2-0.5-9.6C136.9,173.3,137.1,176.5,133.7,179.7z"/>
					<path fill="#D70D21" d="M196.9,169.7c2.9,4.8,2.8,7.6-0.4,9.7C192.9,176.5,193,172.7,196.9,169.7z"/>
					<path fill="#D70D21" d="M138.7,202.8c-4.9,1.6-8.6-0.1-12.2-3.2C131.9,198.1,136.3,199.2,138.7,202.8z"/>
					<path fill="#D70D21" d="M145.1,170.1c-0.3-4,1.6-6.2,7-8.2C152.8,166.4,149.1,170.4,145.1,170.1z"/>
					<path fill="#D70D21" d="M188.1,194.1c4.1,3.8,4.4,6.4,1.5,9.3C185.6,201.6,185.1,199.1,188.1,194.1z"/>
					<path fill="#D70D21" d="M184.7,169.9c-4.7-0.6-6.6-2.8-7.1-8C182.4,162.8,185.3,166,184.7,169.9z"/>
					<path fill="#D70D21" d="M176.7,166.9c-4.8,0.7-7.9-1-10-5.3C171.9,161.1,175.9,163.2,176.7,166.9z"/>
					<path fill="#D70D21" d="M153.2,167.1c0.9-3.8,4.5-5.7,9.9-5.5C161.4,165.8,158,167.7,153.2,167.1z"/>
					<path fill="#D70D21" d="M142.1,194.6c2.6,3.5,2.7,6.5,0.2,8.4c-1.2,0.9-2,0.8-2.8-0.4C138,200.1,138.8,197.4,142.1,194.6z"/>
					<path fill="#D70D21" d="M196.3,189c-4.4,1-6.6-0.5-7.8-5.6C193.3,182.8,196.6,185.1,196.3,189z"/>
					<path fill="#D70D21" d="M141.4,183.5c-0.6,4.7-2.9,6.5-7.5,5.9C133.2,185.7,135.8,183.7,141.4,183.5z"/>
					<path fill="#D70D21" d="M193.8,197.3c-4.3-1.7-5.3-3.9-3.7-8.3C194.9,191.4,196.1,194.2,193.8,197.3z"/>
					<path fill="#D70D21" d="M140.1,189.2c1.6,4.8,0.5,7.2-3.8,8.3C134.2,194.4,135.2,192.1,140.1,189.2z"/>
					<path fill="#D70D21" d="M145.3,198.2c5.1,2.9,6.2,5.2,4,8.4C145.2,205.3,144,202.8,145.3,198.2z"/>
					<path fill="#D70D21" d="M181,206.5c-2-3.4-1.1-5.5,3.8-8.4C186.7,201.6,185.3,205,181,206.5z"/>
					<path fill="#D70D21" d="M185.8,207.3c3.7-3.9,7.7-3.8,12.4-2.8C194.3,207.2,190.8,209.1,185.8,207.3z"/>
					<path fill="#D70D21" d="M132.6,204.8c4.3-0.9,8.3-1,11.7,2.4C141.1,209.3,136.5,208.4,132.6,204.8z"/>
					<path fill="#D70D21" d="M141.8,210c3.9-2.2,7.6-3.8,12-1.5C151.5,211.5,147.1,212,141.8,210z"/>
					<path fill="#D70D21" d="M152,212c4.5-3.3,7.9-3.9,11.6-2C161.6,212.8,157.6,213.6,152,212z"/>
					<path fill="#D70D21" d="M160.9,208.6c-4.5,0.4-7.1-1.2-9.2-5.4C156.5,202.8,160.4,205,160.9,208.6z"/>
					<path fill="#D70D21" d="M178.5,203.6c-2.2,4.5-4.8,6.1-9.1,5.7C169.4,205.9,172.4,204,178.5,203.6z"/>
					<path fill="#D70D21" d="M188.4,209.9c-4.9,1.9-8.9,1.5-11.8-1.1C179.8,206.4,184,206.8,188.4,209.9z"/>
					<path fill="#D70D21" d="M166.4,209.9c4.5-2,8.2-0.7,11.8,1.9C173.8,213.6,169.2,213,166.4,209.9z"/>
					<path fill="#D70D21" d="M160.6,167.3c3.1-2,5.1-1.9,9.1,0.2C167.1,170,163.3,170,160.6,167.3z"/>
				</g>
				<path fill="#D70D21" d="M166.2,218.1c-1.6-3.5-9.6-4.6-9.6-4.6s-9.5-2.5-14.9-5.4c-9-4.7-14.8-11.9-14.9-19.9
					c-0.1-14,16.5-25,37.8-25.1c21.3-0.1,38,10.7,38.1,24.6c0,7.7-4.7,14.7-12.5,19.6c-5.7,3.5-9.9,4.4-17.6,6.1
					C171.6,213.8,168.8,214.3,166.2,218.1z M165,177c-11.5,0-19.8,6.8-19.8,11.5c0,4,5.7,7.3,14.4,9.2c3.7,0.8,5.4,2.5,6,3.4
					c1.4-1.4,2.5-3.1,6.3-4.1c8.1-2.1,12.5-4.7,12.4-8.6C184.3,183.6,176.5,176.9,165,177z"/>
			</g>
			<g>
				<path fill="none" stroke="#D0D2D4" stroke-width="22" stroke-miterlimit="10" d="M267.5,247.2"/>
				<path fill="none" stroke="#D0D2D4" stroke-width="22" stroke-miterlimit="10" d="M233.3,309.8"/>
				<path fill="none" stroke="#D0D2D4" stroke-width="22" stroke-miterlimit="10" d="M243.2,339.1"/>
				<g>
					<path fill="none" stroke="#D0D2D4" stroke-width="22" stroke-miterlimit="10" d="M64.6,244.5"/>
				</g>
				<g>
					<g>
						<path d="M183.9,273.5"/>
					</g>
					<g>
						<g>
							<path fill="none" stroke="#D70D21" stroke-width="16" stroke-miterlimit="10" d="M214.3,268.6"/>
							<path fill="none" stroke="#D70D21" stroke-width="16" stroke-miterlimit="10" d="M204.2,278.5"/>
							<path fill="#D70D21" d="M201.2,277.9c0,0-0.3-5.5-7.2-9.3c-3-1.7-5.9-1.6-5.9-1.6s0.9,5.9,5.4,7.4c3.2,1.1,5.6-0.1,5.6-0.1"
								/>
							<path fill="#D70D21" d="M201,277.2c0,0,2.5-4.8,6.1-8c3.5-3.2,7.9-2.7,7.9-2.7s-0.4,3.5-3,5.7c-4,3.8-8.8,2-8.8,2"/>
							<g>
								<path fill="#D70D21" d="M188.6,280.5c-0.9-1.4-2.2-3.8-6.4-5.1c-3.3-1-8.2,0.9-8.2,0.9s1.4,4,6.1,5.3
									C183.9,282.8,188.6,280.5,188.6,280.5z"/>
								<path fill="#D70D21" d="M182.4,284.1c-1,0-2-0.1-3-0.4c-5.7-1.7-7.5-6.4-7.5-6.6l-0.7-2l2-0.8c0.6-0.2,5.8-2.1,9.7-0.9
									c4.7,1.5,6.4,4.1,7.5,5.8l1.5,2.3l-2.2,1.1C189.4,282.6,186,284.1,182.4,284.1z M177.4,277.6c0.7,0.7,1.8,1.5,3.3,2
									c1.4,0.4,3,0.2,4.4-0.1c-0.8-0.7-1.9-1.4-3.5-2C180.4,277.2,178.7,277.3,177.4,277.6z"/>
							</g>
							<g>
								<path fill="#D70D21" d="M227.8,277.2c-1.4-0.6-3.7-1.9-7.6-0.8c-3.1,0.8-6,4.8-6,4.8s3.9,2.1,8.2,0.9
									C226,281,227.8,277.2,227.8,277.2z"/>
								<path fill="#D70D21" d="M219.6,284.6c-3.6,0-6.3-1.5-6.4-1.6l-2.1-1.2l1.5-2c0.3-0.5,3.5-4.6,7.2-5.6c4.5-1.2,7.2,0,8.8,0.8
									l2.2,1l-0.9,2c-0.1,0.2-2.2,4.7-6.7,6.1C221.8,284.5,220.6,284.6,219.6,284.6z M218.1,280.2c1.1,0.2,2.4,0.2,3.8-0.2
									c1.1-0.3,2-1,2.6-1.7c-1-0.2-2.1-0.2-3.7,0.2C219.9,278.7,218.9,279.4,218.1,280.2z"/>
							</g>
							<g>
								<path fill="#D70D21" d="M236.9,288.9c-0.9-0.9-2.2-2.4-5.5-2.7c-2.5-0.2-5.9,2-5.9,2s2.3,2.7,6,2.9
									C234.6,291.3,236.9,288.9,236.9,288.9z"/>
								<path fill="#D70D21" d="M231.9,293.3c-0.2,0-0.3,0-0.5,0c-4.5-0.3-7.4-3.6-7.5-3.7l-1.6-1.9l2-1.4c0.4-0.2,4.1-2.6,7.3-2.3
									c3.9,0.3,5.7,2.2,6.7,3.2l1.7,1.7l-1.5,1.6C238.2,290.7,235.5,293.3,231.9,293.3z M229.9,288.6c0.5,0.2,1.1,0.4,1.8,0.4
									c0.5,0,1,0,1.4-0.2c-0.5-0.2-1.1-0.3-1.9-0.4C230.8,288.3,230.4,288.4,229.9,288.6z"/>
							</g>
							<g>
								<path fill="#D70D21" d="M201.4,252.8c-1,1.1-2.9,2.8-3,6.8c-0.1,3.8,2.9,7,2.9,7s2.8-2.4,3-7.3
									C204.5,255.5,201.4,252.8,201.4,252.8z"/>
								<path fill="#D70D21" d="M201.1,269.6l-1.4-1.5c-0.1-0.1-3.6-3.9-3.5-8.5c0.1-4.5,2.2-6.8,3.4-8c0-0.1,0.1-0.1,0.2-0.2
									l1.4-1.6l1.6,1.4c0.1,0.1,3.9,3.4,3.7,8.2c-0.2,5.8-3.7,8.7-3.8,8.8L201.1,269.6z M201.4,256.3c-0.4,0.8-0.8,1.9-0.8,3.4
									c0,1.1,0.3,2.2,0.8,3.1c0.4-0.9,0.7-2.1,0.8-3.6C202.2,258.1,201.9,257.1,201.4,256.3z"/>
							</g>
							<path fill="#D70D21" d="M222.3,271.6c-1.3,0-2.1-0.2-2.3-0.3l-2.4-0.6l0.9-2.3c1.5-3.6,3.7-5,4.1-5.2c3-1.7,5.2-1.2,6.4-1
								l2.3,0.4l-0.4,2.1c-0.1,0.4-0.8,3.8-3.8,5.6C225.4,271.4,223.7,271.6,222.3,271.6z"/>
							<path fill="#D70D21" d="M179.1,271c-0.9,0-2-0.1-3-0.6c-3.5-1.6-4.8-4.9-5-5.3l-0.9-2.3l2.4-0.5c3.8-0.9,6.2,0.1,6.6,0.3
								c3.1,1.5,4,3.5,4.5,4.6l1,2.1l-2,0.9C182.5,270.3,181,271,179.1,271z"/>
							<path fill="#D70D21" d="M210.9,262.9c-0.1,0-0.2,0-0.2,0l-2.4-0.1l0.4-2.4c0.1-0.5,0.6-2.9,2.1-4.2c1.9-1.6,3.6-1.6,4.3-1.7
								l2.3,0l0,2.1c0,0.3,0,2.9-1.9,4.5C213.9,262.7,211.7,262.9,210.9,262.9z"/>
							<path fill="#D70D21" d="M193.5,262.4l-2.1-0.3c-0.2,0-2.6-0.4-3.9-2.4c-1.4-2.1-0.9-4.5-0.9-4.7l0.5-2.4l2.3,0.8
								c0.4,0.1,2.5,1,3.5,2.5c1.2,1.9,1,3.5,0.9,4.2L193.5,262.4z"/>
							<g>
								<path fill="#D70D21" d="M181.4,297.2c1.2,0.2,3.4,0.5,6.1-0.8c2.7-1.4,3.8-4.9,3.8-4.9s-3.4-0.9-6.5,0.9
									C182,293.9,181.4,297.2,181.4,297.2z"/>
								<path fill="#D70D21" d="M183.4,299.5c-1.1,0-1.9-0.1-2.3-0.2l-2.1-0.4l0.4-2.1c0.1-0.4,0.9-4.3,4.3-6.2
									c3.9-2.2,8.1-1.1,8.2-1.1l2.1,0.6l-0.7,2.1c-0.1,0.4-1.5,4.4-4.8,6.1C186.5,299.3,184.7,299.5,183.4,299.5z M187.6,293.6
									c-0.6,0.1-1.2,0.3-1.8,0.7c-0.4,0.2-0.7,0.5-1,0.8c0.5-0.1,1.1-0.3,1.7-0.6C186.9,294.2,187.3,293.9,187.6,293.6z"/>
							</g>
							<g>
								<path fill="#D70D21" d="M166.9,289.1c1,0.8,2.5,2.3,5.9,2.4c2.6,0,5.9-2.4,5.9-2.4s-2.6-2.6-6.3-2.6
									C169.2,286.5,166.9,289.1,166.9,289.1z"/>
								<path fill="#D70D21" d="M172.8,293.7c0,0-0.1,0-0.1,0c-4-0.1-6-1.9-7.1-2.8l-1.8-1.6l1.4-1.7c0.3-0.3,3-3.4,7-3.4l0,0
									c4.6,0,7.7,3.1,7.9,3.2l1.8,1.8l-2,1.5C179.6,291.1,176.1,293.7,172.8,293.7z M170.7,289c0.6,0.2,1.3,0.3,2.1,0.3
									c0.5,0,1-0.1,1.6-0.3c-0.6-0.2-1.3-0.3-2-0.3l0,0C171.7,288.6,171.2,288.8,170.7,289z"/>
							</g>
							<g>
								<path fill="#D70D21" d="M211.5,291.7c0.7,1,2.5,3.1,4.6,3.7c2.6,0.7,6.3-0.7,6.3-0.7s-1.5-3.2-4.7-4
									C214.2,289.7,211.5,291.7,211.5,291.7z"/>
								<path fill="#D70D21" d="M217.9,297.7c-0.8,0-1.6-0.1-2.3-0.3c-3.3-0.9-5.6-4.1-5.8-4.5l-1.1-1.7l1.7-1.2
									c0.1-0.1,3.5-2.6,8.1-1.4c4.1,1.1,6.1,5,6.1,5.2l1,2.1l-2.2,0.8C222.9,296.8,220.5,297.7,217.9,297.7z M215.4,292.6
									c0.4,0.3,0.9,0.5,1.3,0.7c0.5,0.1,1.2,0.1,1.8,0.1c-0.4-0.2-0.8-0.5-1.3-0.6C216.5,292.6,216,292.6,215.4,292.6z"/>
							</g>
						</g>
					</g>
				</g>
				<path fill="#D70D21" d="M288.8,345"/>
				<path fill="#D70D21" d="M273.6,238.8l0.1-50.1l-58.1,34l0,0l-2.6,1.5c-0.1,0-8.2,4.5-18,6.1c-14.8,2.4-26.1-7-26.2-7.1l-2.7-2.4
					l-2.6,2.5c-0.3,0.3-8.6,8-24.9,7.3c-7.2-0.3-14.6-3.8-17.9-5.5l-2.6-1.5l-1.8-1.1l0,0L58.5,189l-0.1,49.7l-21.5-12.2l0.3,114.9
					v0.2c0.6,10.9,1.3,20.1,4.1,29.5c3.2,10.8,8.9,20.4,17.5,29.4c5.9,6,12.5,10.5,19.9,13.6c6.3,2.6,13.4,4.2,20.9,4.7
					c1.9,0.1,3.8,0.2,5.6,0.2c11.6,0,22.4-2.2,31.3-4.1c4.2-0.8,8-1.6,11-2c10.8-0.2,14.3,4.9,16.9,5.5c0.5,0.2,1,0.4,1.6,0.4
					c0.1,0,0.3,0,0.5,0c0.7-0.1,1.3-0.3,1.8-0.6l0,0c2.6-1.8,4.7-3.1,6.7-3.9c8.6-3.4,16.3-1.5,25.9,0.9c1.7,0.4,3.4,0.8,5.1,1.3
					l0.2,0c6.7,1.1,14.2,2.2,21.8,2.2c4.3,0,8.7-0.3,13-1.2c12.4-2.4,23.4-8.6,33.4-19c8.5-8.8,13.8-17.2,16.6-26.3
					c2.6-8.3,3-16.6,3.6-26.3l0.1-1.8l0.2-117.7L273.6,238.8z M266.1,224.5l0,18.8l-18.3,11l-7.8-7.7l-2.9-3L266.1,224.5z
					 M170.2,233.4c4.7,2.5,11.6,5.2,20,5.2c2,0,4-0.1,6.1-0.5c7.7-1.2,14.4-4,17.9-5.7l27.4,27l0.6,0.6c-5.1,5.7-15,19.1-14.4,37
					c0.2,6.2,1.3,12.7,2.8,18.7c-6.4-1.2-15.7-2.4-26.8-2.5c-0.1,0-0.3,0-0.4,0v-15c0.4-2.7,3.1-3,3.7-3.1l-0.2-2.1l0.1,2.1
					l-0.3-4.3c-0.9,0.1-2.1,0.4-3.3,1v-3.1c0.6-2.9,6.5-3.4,6.5-3.3l-0.2-4.3c-0.2,0-3.5,0.2-6.3,1.7v-5.4c0.1-0.2,0.3-0.5,0.4-0.8
					c2.1,0.3,6.1,0.4,9.6-2.7c3.1-2.7,3.7-6.8,3.7-7l0.3-2.1l-2.1-0.3c-0.2,0-5.4-0.6-9.6,3.2c-1.7,1.5-3.2,3.3-4.3,4.9
					c-1.2-1.9-3.2-4-6.4-5.8c-3.5-1.9-6.9-1.8-7-1.8l-2.4,0.1l0.4,2.4c0,0.3,1.2,7.2,6.8,9.1c2.6,0.9,4.7,0.6,6,0.2
					c0.3,0.8,0.3,1.3,0.3,1.3v4.8c-2.9-1.5-6.2-1.7-6.4-1.7l-0.2,4.3c0,0,1.7,0.1,3.5,0.7c1.9,0.7,3,1.6,3.1,2.8v3
					c-1.2-0.6-2.4-0.9-3.3-1l-0.3,4.3c0.1,0,3.4,0.3,3.7,3.4v14.7c-13.6,0.3-23.4,2.1-28.8,3.3V233.4z M206.9,272.4
					c0.5-0.5,1-1,1.6-1.5l0,0c1.1-1,2.2-1.5,3.3-1.8c-0.3,0.6-0.7,1.2-1.3,1.6l0,0C209.3,271.8,208.1,272.3,206.9,272.4z
					 M196.1,272.7c-0.6,0-1.2-0.1-2-0.3c-1.3-0.4-2.2-1.5-2.8-2.6c0.5,0.2,1.1,0.4,1.7,0.7C194.2,271.2,195.3,272,196.1,272.7z
					 M117.8,232.4c4.1,2.1,12.3,5.8,20.6,6.1c0.7,0,1.5,0,2.2,0c9.6,0,16.9-2.5,21.7-5v83.2h-0.1c-2.8-0.7-9.1-2-17.7-2.8
					c-0.2-2.4-0.7-8.8-0.7-8.8s0.5-5.2,0.7-6c1.2-3.7,1.9-6.4,2.2-6.9c0.7-0.4,2.9-1.8,4.1-3.3c1.2-1.5,1.7-1.9,2-4.3l0.9-8
					l-1.1-20.4l6.3-0.8l1.2-1.8l0.1-2l-8.4-6c0,0-3.6,1.2-4.4,1.5c-1.7-0.9-4.8-1.4-7.9,1.1c0.3,1.2,1.4,2.3,2.7,3
					c1.7,1,4.7,0.9,4.7,0.9s0,0.8,0,1.5c0.3,8.8,0.1,18.5,0.1,18.5l-8.7,0.6l-22.3-1l-7.9,7.4l-1,2.7c-0.9,2.4-0.8,5.2,0.3,7.6
					l3.9-4.2l1.6,7.4l-2.1,10.2l1.4,4.1c0,0,1.5,3.7,2.8,7.3c-6.7,0.7-11.6,1.7-14.2,2.4c1.9-7.3,2.4-11.3,2.5-12.2
					c0.3-2,2.9-17.9-2.2-29.4c-2.5-5.6-5.4-9.9-7.9-12.9c-0.7-1.2-1.4-2.2-2-2.9L117.8,232.4z M140.7,313.7c-0.4,0-0.8,0-1.2-0.1
					c-0.3-3.7-0.8-12.2-0.8-12.2l0.4-1l0.8-4.7l-0.1,5.1v1.7L140.7,313.7z M135.9,313.5c-1.2,0-2.4-0.1-3.6-0.1
					c-2.2,0-4.3,0-6.4,0.1c-1-3.2-1.7-6.1-2.6-9.1c-0.3-0.9,0.3-5,0.3-5l4.1-6.8l3.3,1.2l3.1-0.6l-0.3,9L135.9,313.5z M122.1,313.6
					C122.1,313.7,122.1,313.7,122.1,313.6c-1.1,0.1-2.2,0.2-3.2,0.3c-1.4-4-3.2-11-3.2-11l3.7-9.9l-0.4,11
					C118.9,304.1,121.4,310.4,122.1,313.6z M66,225.1l29.8,18.3l-10.3,10.5L66,243.1L66,225.1z M82.1,353.6l-30-17.6
					c-3.2-2.4-7.1-6.7-7.2-13.1c0-1.6-0.1-2.4-0.2-2.7l-0.1-36.4c4.9,2.7,40.8,22.8,49.3,29c-1.5,6-4.1,15-8.7,27.2
					C83.5,344.5,82.4,349,82.1,353.6z M233.5,384.7c-10.4,9-20.7,14.3-42.1,15.2c-13.9,0.5-21,5.2-25.3,9.4
					c-3.5-3.5-10.7-8.9-25.8-9.4c-14.8-0.4-24.6-4.4-30.2-7.6c-5.9-3.4-8.5-6.8-8.7-7l0-0.2l-0.2-0.2c0,0-4.6-4.5-7.9-12
					c-4.3-9.8-4.5-19.9-0.6-30c2.7-7.1,4.7-13.1,6.3-18.2h134.2c3.1,9.8,6.4,17.1,7,18.3c0.3,0.8,2.7,7.4,3.1,15.5
					C243.8,369.8,240.6,378.6,233.5,384.7z M287.4,323.8c-0.5,7.2-5.3,11-8,12.6l-0.4,0.2c-0.8,0.5-1.4,0.7-1.4,0.7l0.3,0
					l-27.3,15.8c-1-7.5-3.1-12.9-3.2-13.2l-0.1-0.2c-0.1-0.2-4.5-9.7-7.9-21.7c0-0.1,0-0.1-0.1-0.3c-0.5-1.7-0.9-3.4-1.3-5.2
					l49.5-28.7L287.4,323.8z"/>
			</g>
		</g>
		<g>
			<g>
				<path fill="#D70D21" d="M183.3,380.3c-0.8-3.7-4.1-6-7.6-5.8c0-0.3-0.1-0.6-0.1-1c-0.9-3.8-4.5-6.2-8.3-5.6
					c-1.1-3.6-4.8-5.8-8.5-4.9c-0.5,0.1-1,0.3-1.5,0.5c-1.3-3.3-4.8-5.3-8.4-4.5c-1.9,0.4-3.4,1.5-4.3,3c-1.6-2.4-4.6-3.8-7.7-3.1
					c-2.8,0.6-4.9,2.8-5.5,5.5c-1.6-1-3.6-1.5-5.6-1c-3.9,0.9-6.3,4.8-5.5,8.7c0.7,3.2,3.5,5.4,6.5,5.7c-0.1,0.9-0.1,1.8,0.1,2.6
					c0.9,3.9,4.7,6.4,8.6,5.5c0.6-0.1,1.3-0.4,1.8-0.7c0,0.6-0.2,4.7,3.8,6.6c1.9,0.9,4.4,0.6,6.2-0.4c1.1,3.2,4.2,4.8,6.8,4.6
					c3.9-0.2,5.2-2.3,6.2-4.2c1.7,1.5,4,2.1,6.3,1.6c2.8-0.6,4.9-2.9,5.5-5.5c1.6,1,3.6,1.4,5.5,1
					C181.7,388.1,184.1,384.2,183.3,380.3z"/>
				<path fill="#D70D21" d="M167.6,367.7c2.2,6.8-5.4,12.3-10.7,8.2c-0.5-0.4-2.1-1.5-2.6-3.3"/>
				<path fill="#D70D21" d="M144.8,370.9c-1.9,3.5-6.9,4.8-10.5,2"/>
				<path fill="#D70D21" d="M134.2,369.8c0,0,1.9,7.7-7,8.4"/>
				<path fill="#D70D21" d="M140.8,378.1c0,0,0.7,8.7-7,8.4"/>
				<path fill="#D70D21" d="M156.3,369.9c-3.4,6.1-12.8,4.6-13.3-2.7c0-0.7-0.3-2.5,1.5-5"/>
				<path fill="#D70D21" d="M151.3,367.5c0,0-4.2,1-4.6,0.9c-0.3,0-1.5-1.4-1.5-1.4l0-2.3l2.1-1.2L151.3,367.5z"/>
				<path fill="#FFFFFF" d="M183.9,380.2c-0.8-3.4-3.8-5.9-7.3-6.1l-0.1-0.9c-0.2,0-0.4,0-0.5,0.1c-1-3.4-4.1-5.8-7.6-5.8
					c0,0,0,0,0,0l0,0c-0.2,0-0.5,0-0.7,0c-1.4-3.6-5.3-5.8-9.1-4.9c-0.3,0-0.7,0.1-1,0.3c-1.6-3.3-5.3-5.1-8.9-4.3
					c-1.6,0.4-3.1,1.3-4.2,2.5c-1.9-2.3-4.9-3.4-7.8-2.7c-2.7,0.6-4.8,2.6-5.7,5.1c-1.7-0.9-3.5-1.1-5.3-0.7c-4.2,0.9-6.9,5.2-6,9.4
					c0.7,3.2,3.3,5.6,6.5,6.1c0,0.7,0,1.5,0.2,2.2c0.4,2,1.7,3.8,3.5,4.9c1.2,0.8,2.5,1.2,3.9,1.2l-0.1,1.1c1.2-0.1,2.3-0.3,3.3-0.7
					c0.3,1.7,1.3,4,4,5.2c1.8,0.8,4.1,0.8,6.2-0.1c1.4,3.1,4.5,4.5,7.1,4.4c0,0,0.1,0,0.1,0.1c3.6-0.2,5.2-1.9,6.3-3.9
					c1.8,1.3,4.1,1.7,6.3,1.2c2.7-0.6,4.9-2.6,5.8-5.2c1.6,0.8,3.5,1,5.3,0.6C182.2,388.7,184.9,384.4,183.9,380.2z M149,359.8
					c3.2-0.7,6.5,1,7.7,4.1l0.2,0.6l0.6-0.3c0.4-0.2,0.9-0.4,1.4-0.5c3.3-0.8,6.6,1.1,7.7,4.2l0,0c1.1,3.3-0.3,6.4-2.1,7.6
					c-3.2,2.2-6.6,0.6-6.6,0.6c-1.7-0.6-3.3-1.8-3.8-3.8c0.7-0.7,1.2-1.6,1.6-2.9l-0.1,0.2c-1.7,3-4.7,3.5-6.9,3
					c-2.1-0.5-4.5-2.2-4.7-5.6V367c0-0.7-0.1-2.2,1.3-4.2l-0.3-0.2l0,0C146,361.1,147.4,360.2,149,359.8z M120.9,372
					c-0.8-3.6,1.5-7.1,5-8c1.8-0.4,3.6,0,5.1,0.9l0.7,0.5l0.2-0.9c0.6-2.4,2.5-4.4,5-5c2.4-0.5,5,0.4,6.6,2.3
					c-1.6,2.5-1.5,4.4-1.5,5.3v0.1c0.1,1.5,0.5,2.8,1.3,3.9c-0.8,1.1-2,1.8-3.4,2.1c-1.6,0.4-3.4,0-4.8-1c0-1.3-0.5-2.4-0.7-2.8
					c-0.6-1.3-1.8-2.5-1.8-2.5c1.7,3.1,1.1,6-0.3,7.8c-1,1.4-2.8,2.2-5.3,2.4l0,0.1l-0.2,0C124,376.9,121.5,374.9,120.9,372z
					 M154.2,395.4L154.2,395.4c-2,0.1-4.4-0.9-5.7-3.1c2.5-1.7,3.7-4.3,3.3-7.2c-0.1-0.4-0.2-0.9-0.3-1.3c1.3-0.6,3.7-1.2,5.8,0.6
					c-0.1,0.2-0.1,0.3-0.2,0.5l-0.1,0.5c-0.7,4,1.1,6.3,2.1,7.2C158.4,394,157,395.2,154.2,395.4z M177.6,388.3
					c-1.7,0.4-3.5,0.1-5-0.9l-0.7-0.5l-0.2,0.9c-0.5,2.5-2.5,4.5-5,5.1c-2,0.4-4.1-0.1-5.6-1.3c-0.4-0.4-2.5-2.4-1.8-6.2
					c0.2-0.7,1.2-4.4,6.4-4.6c0,0,1.5,0,2.1,0.2c-1.3-0.8-3-0.9-3.8-0.9c-2.6,0.2-4.3,1.2-5.4,2.5c-2.8-2-6.3-1.5-7.9-0.6
					c-1-1.4-2.5-2.4-4.4-2.6v0c2.7,1.3,4.1,3.7,4.1,6c0,1.3-0.3,3.7-3,5.4l0,0l-0.2,0.1c-1.8,1-4.1,1.1-5.7,0.4
					c-2.4-1.2-3.2-3.2-3.4-4.7c1.8-1,3.1-2.7,3.2-4.8c0-0.2,0-0.3,0-0.5c-0.1-1.7-1-3.4-2.3-4.6c1.3,1.9,1.4,4.5,0.3,6.4
					c-0.3,0.6-0.8,1.2-1.4,1.6c-0.6,0.4-1.2,0.7-1.9,0.9c-0.5,0.2-1,0.4-1.5,0.4c-0.7,0-1.4,0-2.2-0.2c-0.7-0.2-1.3-0.5-1.8-0.9
					c-1.7-1.3-2.2-2.8-2.4-4.1c-0.1-0.5-0.1-1.3,0-2c2.7-0.4,4.7-1.4,5.9-3.2c0.4-0.5,0.6-1,0.8-1.5c1.3,0.7,2.8,1.1,4.3,1
					c0.4,0,0.8-0.1,1.2-0.2c1.8-0.4,3.3-1.3,4.4-2.6c0.9,0.7,2,1.2,3.3,1.5c0.8,0.1,2,0,2.8,0c1.3-0.3,2.3-0.8,3.2-1.5
					c0.3,2.9,2.4,4.5,2.4,4.5c1.5,1.1,3.3,1.7,5,1.6c1.5-0.1,2.9-0.5,4.1-1.4c2.7-1.9,3.8-5.3,3.2-8.6c2.8,0.1,5.2,2,6,4.8
					c-2,0.4-3.2,1.3-4.3,2.7c-2.1,2.9-1.3,5-1.1,6.1c0,0,0.7,2.2,1.8,3.5c-0.8-1.8-0.9-3.8-0.9-4.6c0-1,0.3-2.4,1.2-3.7
					c1-1.3,2.6-2.1,5-2.4c2.9,0.1,5.5,2.2,6.2,5.2C183.4,383.9,181.2,387.5,177.6,388.3z"/>
			</g>
			<path fill="none" stroke="#D70D21" stroke-width="4" stroke-miterlimit="10" d="M198.2,351.7"/>
			<path fill="none" stroke="#D70D21" stroke-width="4" stroke-miterlimit="10" d="M198.2,351.7"/>
			<path fill="#D70D21" d="M160.8,364.1c-0.1,0-7.7-6-16.3-7.5c-10.2-1.8-20.9,5.7-21,5.8l-2.3-3.2c0.5-0.3,12.1-8.6,24-6.5
				c9.7,1.7,17.7,8,18.1,8.3L160.8,364.1z"/>
			<path fill="none" stroke="#D70D21" stroke-width="10" stroke-miterlimit="10" d="M132.7,351.8"/>
			<path fill="#D70D21" d="M218.8,346.9c-0.1-2.2-0.6-5.2-2.5-7.2c-0.9-2.5-3.3-6.1-7.1-7.1c-2.8-2.1-6-1.8-7.6-1.2
				c-3.3,0-5.2,2-6.1,3.5c-0.4,0.2-0.8,0.6-1.1,1.1c-0.6,0.9-1.2,2.4-0.5,4.8c0,3.1,1.7,4.8,3.4,5.4c1.9,0.9,4,0,4.3-0.2l1.9-1
				l-1.1-1.9c0,0-0.6-1-0.7-2.1c0-0.1,0-0.5,0-0.8c0.2-0.2,0.5-0.5,0.8-0.6l0,0c0.6-0.2,1.7,0,2.4,0.2c0.2,0.8,0.7,1.9,1.6,2.8
				c-0.5,1.1-0.9,2.4-1,3.9c-1.5,0.5-2.2,1.8-2.7,2.6c-0.4,0.1-0.8,0.3-1.1,0.4c-0.5,0.2-1.1,0.5-3.4,0l-0.2,0h-0.2
				c-1.6,0-3.7-1.1-4.3-1.5l-0.1,0c-0.1,0-13.6-7.7-21.6-12.3l-0.1-0.1c-2.8-1.5-9.4-4.8-17.8-4.5c-6.2,0.1-13.2,2.8-17.7,6.9
				l-1.5,1.4c-2.8,0.5-4.9,1-5,1.1l-1.4,0.3L128,346c-2.5,1-5.2,2.3-5.4,2.4l-0.2,0.1c-0.1,0-0.2,0.1-0.3,0.1l0,0l-0.6,0.3l0,1.2
				c0,0.6,0,3,0.2,4.9c-1.3,0.8-1.8,1.3-1.9,1.3l-0.8,0.6l0,1c0,0.1,0.3,4.3,1.1,8.1l0.5,2.2l2.1-0.8c0,0,4.2-1.7,9.3-3.6
				c6.4-2.5,11.3-3.6,14.4-3.2c6.5,0.8,11.2,2.9,16.5,5.3c0.6,0.2,1.2,0.5,1.8,0.8l1.8,0.8l0.8-1.8c0.3-0.6,0.7-1.4,1.1-2.2v0
				c4.7,1.9,17.9,6.9,24.9,6.8c1,0.1,2.4,0.3,4.1,0.2c2.3,0,5-0.4,7.6-1.2c7-1.4,10.9-8.1,11.9-11.1
				C219.3,355.5,219.7,350.3,218.8,346.9z M150.8,352.4c-6.7-1.9-16.3-1.8-25,1.6c-0.1-0.7-0.1-1.6-0.1-2.5
				c6.9-2.4,17.3-3.6,25.8-0.8c6.5,2.2,9.8,5,12.6,7.5c0.5,0.5,1.1,0.9,1.6,1.4C162.5,357.5,156.7,354.1,150.8,352.4z M200.3,360
				L200.3,360c-0.4,3.5-1.4,5.7-2,6.7c0,0,0,0,0,0c0.3-1.4,0.6-3.4,0.3-6.1c-0.4-3.4-1.4-5.6-2.5-7.5c0.5,0.1,1.1,0.2,1.7,0.3
				c0.8,0.2,1.5,0.3,2.1,0.4C200.3,354.7,200.8,356.7,200.3,360z M209.7,347.5c-0.1-0.7,0-1.4,0.2-2c2.9,0.5,4.3,2.4,5.4,4.7
				c0,0.1,0,0.2,0,0.2C213.7,349,211.8,347.9,209.7,347.5z"/>
			<path fill="#FFFFFF" d="M117.9,371.7l-1.5-2c4.5-3.2,16-8.3,25-9c11-0.9,21.6,2.6,27.3,5.9l-1.2,2.1c-4.3-2.5-14.6-6.4-25.9-5.5
				C133,363.9,122.1,368.7,117.9,371.7z"/>
			<path fill="#D70D21" d="M137.8,340.5"/>
			<path fill="#FFFFFF" d="M124.4,352l-5.4,2.1c0,0-2.5,4.7,0,2.9c3.1-1.9,9.5-4,9.5-4l-1.7-1.9L124.4,352z"/>
		</g>
	</g>
	<g>
		<g>
			<path fill="#D30D20" d="M416.8,256.6h24.9v77.8c0,38.8-19.6,56.9-50.9,56.9c-19,0-35.6-10.6-43.2-27.2l20.7-8.9
				c3.8,8.2,12.9,13.9,22.4,13.9c16,0,26.1-8.9,26.1-32v-2.5c-6.4,8.7-18.6,13.1-28.5,13.1c-22.8,0-43.5-18.3-43.5-46.8
				s20.7-46.6,43.5-46.6c10.1,0,22.1,4.2,28.5,12.9V256.6z M416,300.9c0-13.7-11.4-23.4-23-23.4c-12.5,0-23,10.2-23,23.4
				c0,12.9,10.4,23.6,23,23.6C405.2,324.5,416,314.4,416,300.9z"/>
			<path fill="#D30D20" d="M461.3,301.1c0-28.2,22.4-46.8,47.7-46.8c25.3,0,47.7,18.6,47.7,46.8c0,28-22.4,46.6-47.7,46.6
				C483.8,347.7,461.3,329.1,461.3,301.1z M531.5,301.1c0-13.9-10.1-23.6-22.4-23.6c-12.3,0-22.4,9.7-22.4,23.6
				c0,13.7,10.1,23.4,22.4,23.4C521.4,324.5,531.5,314.8,531.5,301.1z"/>
			<path fill="#D30D20" d="M673.3,300.9c0,28.5-20.7,46.8-43.5,46.8c-10.1,0-22.3-4.2-28.5-13.3v11h-24.9V208.3h24.9v59
				c6.3-8.9,18.4-12.9,28.5-12.9C652.6,254.3,673.3,272.4,673.3,300.9z M647.8,300.9c0-13.1-10.2-23.4-22.8-23.4
				c-11.6,0-23,9.7-23,23.4c0,13.5,10.8,23.6,23,23.6C637.6,324.5,647.8,313.8,647.8,300.9z"/>
			<path fill="#D30D20" d="M688.7,331.7c0-8.7,7.2-15.2,15.8-15.2c8.7,0,16.2,6.4,16.2,15.2c0,8.9-7.4,15.4-16.2,15.4
				C696,347.1,688.7,340.6,688.7,331.7z"/>
			<path fill="#D30D20" d="M839.3,300.9c0,28.7-20.7,46.8-43.5,46.8c-10.1,0-22.3-4.2-28.5-13.3v54.6h-24.9V256.6h24.9v10.8
				c6.3-8.9,18.4-13.1,28.5-13.1C818.6,254.3,839.3,272.5,839.3,300.9z M813.9,301.1c0-13.1-10.2-23.6-22.8-23.6
				c-12.2,0-23,10.1-23,23.6c0,13.5,11.4,23.4,23,23.4C803.6,324.5,813.9,314.2,813.9,301.1z"/>
			<path fill="#D30D20" d="M946.6,309.1h-66.8c2.7,10.4,11,16.5,22.8,16.5c9.1,0,17.9-4.2,23.4-10.4l14.4,14.6
				c-8.3,11.2-23.8,17.9-39.4,17.9c-27.4,0-47.3-19.2-47.3-46.6c0-28.7,21.9-46.8,47.1-46.8c25.5,0,46.2,18.1,46.2,45.2
				C947.1,302,946.9,305.1,946.6,309.1z M922.1,292.9c-0.8-10.4-9.3-17.1-20.5-17.1c-10.2,0-19,5.1-21.7,17.1H922.1z"/>
		</g>
	</g>
</g>
</svg>
