<svg width="32" height="32" viewBox="0 0 32 32" fill="none" xmlns="http://www.w3.org/2000/svg">
<path d="M27 0H5C2.23858 0 0 2.23858 0 5V27C0 29.7614 2.23858 32 5 32H27C29.7614 32 32 29.7614 32 27V5C32 2.23858 29.7614 0 27 0Z" fill="#F00073"/>
<path d="M16 9.2002C18.2 9.2002 18.5 9.2002 19.4 9.2002C20.2 9.2002 20.6 9.4002 20.9 9.5002C21.3 9.7002 21.6 9.8002 21.9 10.1002C22.2 10.4002 22.4 10.7002 22.5 11.1002C22.6 11.4002 22.7 11.8002 22.8 12.6002C22.8 13.5002 22.8 13.7002 22.8 16.0002C22.8 18.3002 22.8 18.5002 22.8 19.4002C22.8 20.2002 22.6 20.6002 22.5 20.9002C22.3 21.3002 22.2 21.6002 21.9 21.9002C21.6 22.2002 21.3 22.4002 20.9 22.5002C20.6 22.6002 20.2 22.7002 19.4 22.8002C18.5 22.8002 18.3 22.8002 16 22.8002C13.7 22.8002 13.5 22.8002 12.6 22.8002C11.8 22.8002 11.4 22.6002 11.1 22.5002C10.7 22.3002 10.4 22.2002 10.1 21.9002C9.80001 21.6002 9.60001 21.3002 9.50001 20.9002C9.40001 20.6002 9.30001 20.2002 9.20001 19.4002C9.20001 18.5002 9.20001 18.3002 9.20001 16.0002C9.20001 13.7002 9.20001 13.5002 9.20001 12.6002C9.20001 11.8002 9.40001 11.4002 9.50001 11.1002C9.70001 10.7002 9.80001 10.4002 10.1 10.1002C10.4 9.8002 10.7 9.6002 11.1 9.5002C11.4 9.4002 11.8 9.3002 12.6 9.2002C13.5 9.2002 13.8 9.2002 16 9.2002ZM16 7.7002C13.7 7.7002 13.5 7.7002 12.6 7.7002C11.7 7.7002 11.1 7.9002 10.6 8.1002C10.1 8.3002 9.60001 8.6002 9.10001 9.1002C8.60001 9.6002 8.40001 10.0002 8.10001 10.6002C7.90001 11.1002 7.80001 11.7002 7.70001 12.6002C7.70001 13.5002 7.70001 13.8002 7.70001 16.0002C7.70001 18.3002 7.70001 18.5002 7.70001 19.4002C7.70001 20.3002 7.90001 20.9002 8.10001 21.4002C8.30001 21.9002 8.60001 22.4002 9.10001 22.9002C9.60001 23.4002 10 23.6002 10.6 23.9002C11.1 24.1002 11.7 24.2002 12.6 24.3002C13.5 24.3002 13.8 24.3002 16 24.3002C18.2 24.3002 18.5 24.3002 19.4 24.3002C20.3 24.3002 20.9 24.1002 21.4 23.9002C21.9 23.7002 22.4 23.4002 22.9 22.9002C23.4 22.4002 23.6 22.0002 23.9 21.4002C24.1 20.9002 24.2 20.3002 24.3 19.4002C24.3 18.5002 24.3 18.2002 24.3 16.0002C24.3 13.8002 24.3 13.5002 24.3 12.6002C24.3 11.7002 24.1 11.1002 23.9 10.6002C23.7 10.1002 23.4 9.6002 22.9 9.1002C22.4 8.6002 22 8.4002 21.4 8.1002C20.9 7.9002 20.3 7.8002 19.4 7.7002C18.5 7.7002 18.3 7.7002 16 7.7002Z" fill="white"/>
<path d="M16 11.7002C13.6 11.7002 11.7 13.6002 11.7 16.0002C11.7 18.4002 13.6 20.3002 16 20.3002C18.4 20.3002 20.3 18.4002 20.3 16.0002C20.3 13.6002 18.4 11.7002 16 11.7002ZM16 18.8002C14.5 18.8002 13.2 17.6002 13.2 16.0002C13.2 14.5002 14.4 13.2002 16 13.2002C17.5 13.2002 18.8 14.4002 18.8 16.0002C18.8 17.5002 17.5 18.8002 16 18.8002Z" fill="white"/>
<path d="M20.4 12.6002C20.9523 12.6002 21.4 12.1525 21.4 11.6002C21.4 11.0479 20.9523 10.6002 20.4 10.6002C19.8477 10.6002 19.4 11.0479 19.4 11.6002C19.4 12.1525 19.8477 12.6002 20.4 12.6002Z" fill="white"/>
</svg>
