<svg width="24" height="24" viewBox="0 0 24 24" fill="none" xmlns="http://www.w3.org/2000/svg">
<path fill-rule="evenodd" clip-rule="evenodd" d="M21 10C21 17 12 23 12 23C12 23 3 17 3 10C3 5.02944 7.02944 1 12 1C16.9706 1 21 5.02944 21 10V10Z" stroke="url(#paint0_linear_533_64256)" stroke-width="2" stroke-linecap="round" stroke-linejoin="round"/>
<path fill-rule="evenodd" clip-rule="evenodd" d="M12 13C13.6569 13 15 11.6569 15 10C15 8.34315 13.6569 7 12 7C10.3431 7 9 8.34315 9 10C9 11.6569 10.3431 13 12 13Z" stroke="url(#paint1_linear_533_64256)" stroke-width="2" stroke-linecap="round" stroke-linejoin="round"/>
<defs>
<linearGradient id="paint0_linear_533_64256" x1="12" y1="1" x2="12" y2="23" gradientUnits="userSpaceOnUse">
<stop stop-color="#E71D73"/>
<stop offset="1" stop-color="#462563"/>
</linearGradient>
<linearGradient id="paint1_linear_533_64256" x1="12" y1="7" x2="12" y2="13" gradientUnits="userSpaceOnUse">
<stop stop-color="#E71D73"/>
<stop offset="1" stop-color="#462563"/>
</linearGradient>
</defs>
</svg>
