<svg width="24" height="24" viewBox="0 0 24 24" fill="none" xmlns="http://www.w3.org/2000/svg">
<path d="M14.0504 6L14.2419 5.01851C13.8103 4.93429 13.3743 5.14198 13.1676 5.53022C12.961 5.91847 13.0323 6.39612 13.3433 6.70711L14.0504 6ZM18.0004 9.95L17.2933 10.6571C17.6043 10.9681 18.082 11.0394 18.4702 10.8328C18.8585 10.6262 19.0661 10.1902 18.9819 9.75851L18.0004 9.95ZM14.0504 2L14.1608 1.00611C13.7386 0.959211 13.3329 1.18417 13.149 1.5671C12.9651 1.95004 13.0432 2.40736 13.3438 2.70755L14.0504 2ZM22.0004 9.94L21.2938 10.6476C21.5943 10.9477 22.0518 11.0253 22.4345 10.8409C22.8172 10.6565 23.0416 10.2505 22.9942 9.82834L22.0004 9.94ZM21.0004 17.92L20.0007 17.8952C20.0005 17.9035 20.0004 17.9117 20.0004 17.92H21.0004ZM21.0004 20.92H20.0004L20.0004 20.9241L21.0004 20.92ZM18.8204 22.92L18.7124 23.9142C18.7184 23.9148 18.7244 23.9154 18.7304 23.9159L18.8204 22.92ZM10.1904 19.85L10.7346 19.0109L10.7268 19.006L10.1904 19.85ZM4.19043 13.85L5.03447 13.3137L5.02971 13.3063L4.19043 13.85ZM1.12043 5.18L0.124487 5.27C0.124957 5.2752 0.125468 5.2804 0.12602 5.2856L1.12043 5.18ZM1.63519 3.65162L2.37375 4.32581L1.63519 3.65162ZM3.11043 3V2L3.10949 2L3.11043 3ZM6.11043 3V4.00005L6.12027 3.99995L6.11043 3ZM8.11043 4.72L9.10189 4.58924L9.10059 4.58005L8.11043 4.72ZM8.81043 7.53L7.87353 7.87961L7.87438 7.88186L8.81043 7.53ZM8.36043 9.64L9.06755 10.3471L9.07148 10.3431L8.36043 9.64ZM7.09043 10.91L6.38332 10.2029C6.06501 10.5212 5.99862 11.013 6.22113 11.4043L7.09043 10.91ZM13.0904 16.91L12.5961 17.7793C12.9875 18.0018 13.4792 17.9354 13.7975 17.6171L13.0904 16.91ZM14.3604 15.64L13.6573 14.9289L13.6533 14.9329L14.3604 15.64ZM16.4704 15.19L16.1186 16.1261L16.1208 16.1269L16.4704 15.19ZM19.2804 15.89L19.4201 14.8998L19.4112 14.8986L19.2804 15.89ZM13.8589 6.98149C15.4573 7.29335 16.7071 8.5431 17.0189 10.1415L18.9819 9.75851C18.5141 7.36092 16.6395 5.48629 14.2419 5.01851L13.8589 6.98149ZM18.7075 9.24289L14.7575 5.29289L13.3433 6.70711L17.2933 10.6571L18.7075 9.24289ZM13.94 2.99389C17.6552 3.40661 20.5893 6.33703 21.0067 10.0517L22.9942 9.82834C22.4724 5.18505 18.8048 1.52202 14.1608 1.00611L13.94 2.99389ZM22.7071 9.23245L14.7571 1.29245L13.3438 2.70755L21.2938 10.6476L22.7071 9.23245ZM20.0004 17.92V20.92H22.0004V17.92H20.0004ZM20.0004 20.9241C20.0016 21.2056 19.884 21.4746 19.6765 21.665L21.0285 23.1387C21.651 22.5677 22.0038 21.7607 22.0004 20.9159L20.0004 20.9241ZM19.6765 21.665C19.469 21.8553 19.1909 21.9494 18.9104 21.9241L18.7304 23.9159C19.5717 23.992 20.4061 23.7098 21.0285 23.1387L19.6765 21.665ZM18.9285 21.9259C16.0068 21.6084 13.2003 20.61 10.7345 19.011L9.64633 20.689C12.3746 22.4583 15.4797 23.5629 18.7124 23.9142L18.9285 21.9259ZM10.7268 19.006C8.43448 17.5494 6.49104 15.6059 5.03444 13.3137L3.34641 14.3863C4.96049 16.9264 7.11403 19.0799 9.65411 20.694L10.7268 19.006ZM5.02971 13.3063C3.42508 10.8293 2.42649 8.00921 2.11484 5.0744L0.12602 5.2856C0.470849 8.53278 1.57573 11.6531 3.35115 14.3937L5.02971 13.3063ZM2.11637 5.09C2.09111 4.81044 2.18451 4.53313 2.37375 4.32581L0.896635 2.97743C0.328895 3.59938 0.0486966 4.43131 0.124487 5.27L2.11637 5.09ZM2.37375 4.32581C2.563 4.11849 2.83067 4.00026 3.11137 4L3.10949 2C2.26738 2.00079 1.46438 2.35548 0.896635 2.97743L2.37375 4.32581ZM3.11043 4H6.11043V2H3.11043V4ZM6.12027 3.99995C6.6222 3.99501 7.05002 4.36294 7.12027 4.85995L9.10059 4.58005C8.88984 3.089 7.60638 1.98523 6.10059 2.00005L6.12027 3.99995ZM7.11901 4.85076C7.2555 5.8856 7.50861 6.90167 7.87353 7.8796L9.74733 7.1804C9.43514 6.34378 9.2186 5.47454 9.10184 4.58924L7.11901 4.85076ZM7.87438 7.88186C8.01174 8.2473 7.92388 8.65926 7.64938 8.93686L9.07148 10.3431C9.895 9.51035 10.1586 8.27445 9.74648 7.17814L7.87438 7.88186ZM7.65332 8.93289L6.38332 10.2029L7.79754 11.6171L9.06754 10.3471L7.65332 8.93289ZM6.22113 11.4043C7.73366 14.0643 9.93612 16.2668 12.5961 17.7793L13.5847 16.0407C11.2376 14.7061 9.29431 12.7628 7.95972 10.4157L6.22113 11.4043ZM13.7975 17.6171L15.0675 16.3471L13.6533 14.9329L12.3833 16.2029L13.7975 17.6171ZM15.0636 16.3511C15.3412 16.0765 15.7531 15.9887 16.1186 16.1261L16.8223 14.2539C15.726 13.8418 14.4901 14.1054 13.6573 14.9289L15.0636 16.3511ZM16.1208 16.1269C17.0988 16.4918 18.1148 16.7449 19.1497 16.8814L19.4112 14.8986C18.5259 14.7818 17.6566 14.5653 16.82 14.2531L16.1208 16.1269ZM19.1407 16.8802C19.6435 16.9511 20.0133 17.3876 20.0007 17.8952L22.0001 17.9448C22.0379 16.422 20.9285 15.1126 19.4201 14.8998L19.1407 16.8802Z" fill="url(#paint0_linear_533_64273)"/>
<defs>
<linearGradient id="paint0_linear_533_64273" x1="11.5564" y1="2" x2="11.5564" y2="22.9281" gradientUnits="userSpaceOnUse">
<stop stop-color="#E71D73"/>
<stop offset="1" stop-color="#462563"/>
</linearGradient>
</defs>
</svg>
