<svg width="24" height="24" viewBox="0 0 24 24" fill="none" xmlns="http://www.w3.org/2000/svg">
<path fill-rule="evenodd" clip-rule="evenodd" d="M21.0004 16.9201V19.9201C21.0027 20.4832 20.7675 21.0213 20.3525 21.402C19.9375 21.7827 19.3813 21.9708 18.8204 21.9201C15.7433 21.5857 12.7874 20.5342 10.1904 18.8501C7.77426 17.3148 5.72576 15.2663 4.19043 12.8501C2.50041 10.2413 1.44867 7.27109 1.12043 4.1801C1.0699 3.62097 1.2567 3.06635 1.63519 2.65172C2.01369 2.23709 2.54902 2.00063 3.11043 2.0001H6.11043C7.11429 1.99022 7.96993 2.72607 8.11043 3.7201C8.23705 4.68016 8.47188 5.62283 8.81043 6.5301C9.08516 7.26097 8.90944 8.0849 8.36043 8.6401L7.09043 9.9101C8.51398 12.4136 10.5869 14.4865 13.0904 15.9101L14.3604 14.6401C14.9156 14.0911 15.7396 13.9154 16.4704 14.1901C17.3777 14.5286 18.3204 14.7635 19.2804 14.8901C20.286 15.032 21.0256 15.9049 21.0004 16.9201Z" stroke="url(#paint0_linear_533_64264)" stroke-width="2" stroke-linecap="round" stroke-linejoin="round"/>
<defs>
<linearGradient id="paint0_linear_533_64264" x1="11.0567" y1="2" x2="11.0567" y2="21.9282" gradientUnits="userSpaceOnUse">
<stop stop-color="#E71D73"/>
<stop offset="1" stop-color="#462563"/>
</linearGradient>
</defs>
</svg>
