<svg width="60" height="60" viewBox="0 0 60 60" fill="none" xmlns="http://www.w3.org/2000/svg">
<path d="M50.625 0H9.375C4.19733 0 0 4.19733 0 9.375V50.625C0 55.8027 4.19733 60 9.375 60H50.625C55.8027 60 60 55.8027 60 50.625V9.375C60 4.19733 55.8027 0 50.625 0Z" fill="white"/>
<path d="M52.9855 29.5061C53.4209 40.5348 43.9884 51.9988 30.4928 51.9988C18.0129 52.144 8 41.9859 8 29.5061C8 16.8811 18.5934 6.57796 31.2183 7.01331C43.6982 7.30354 53.4209 18.042 52.9855 29.5061ZM27.3002 22.9759C28.8965 23.121 30.3477 23.121 31.9439 23.2661C34.7011 23.5564 37.3132 23.9917 39.7801 25.0075C41.0861 25.4429 42.3922 26.1684 43.6982 26.894C44.4238 27.3294 45.2945 27.3294 46.02 26.894C46.7456 26.4587 47.0358 25.7331 46.8907 24.8624C46.7456 23.9917 46.1651 23.5564 45.4396 23.121C40.941 20.6541 36.0071 19.4932 30.9281 19.2029C28.4612 19.0578 25.9942 19.0578 23.6724 19.2029C21.2054 19.3481 18.8836 19.7834 16.5618 20.509C16.2715 20.6541 15.9813 20.7992 15.6911 20.9443C14.9655 21.6699 14.8204 22.6857 15.2557 23.5564C15.6911 24.4271 16.7069 24.8624 17.7227 24.5722C20.9152 23.4113 24.1077 23.121 27.3002 22.9759ZM26.8649 26.6038C25.704 26.6038 24.5431 26.6038 23.5273 26.7489C21.6408 27.0391 19.7543 27.4745 17.8678 27.9098C16.852 28.2 16.4166 29.0707 16.7069 30.0865C16.9971 30.9572 17.8678 31.3926 18.8836 31.2475C22.0761 30.3768 25.4138 29.9414 28.7514 30.2316C30.9281 30.3768 33.1048 30.667 35.2815 31.2475C37.4583 31.8279 39.4899 32.6986 41.3764 33.8595C42.3922 34.44 43.408 34.1497 43.8433 33.2791C44.2787 32.4084 43.9884 31.5377 43.1177 30.9572C42.5373 30.667 41.9568 30.2316 41.3764 29.9414C36.5876 27.7647 31.7988 26.7489 26.8649 26.6038ZM26.7198 34.0046C24.2528 34.0046 21.4957 34.44 18.7385 35.0204C17.8678 35.1655 17.2873 35.8911 17.5776 36.7618C17.7227 37.4874 18.4483 37.9227 19.3189 37.7776C22.5115 37.052 25.704 36.6167 29.0416 36.9069C31.2183 37.052 33.5402 37.4874 35.5718 38.3581C36.7327 38.7934 37.8936 39.3739 39.0545 39.9543C39.635 40.2446 40.0703 40.2446 40.5057 39.9543C40.941 39.6641 41.0861 39.0836 41.0861 38.6483C40.941 38.0678 40.5057 37.7776 40.0703 37.4874C36.0071 35.0204 31.6537 34.0046 26.7198 34.0046Z" fill="#1ED760"/>
<path d="M27.3001 22.9767C24.1076 22.9767 20.9151 23.4121 17.7226 24.2828C16.7068 24.573 15.691 24.1377 15.2556 23.267C14.8203 22.3963 14.9654 21.3805 15.691 20.6549C15.9812 20.5098 16.2714 20.3647 16.5617 20.2196C18.8835 19.494 21.2053 19.0586 23.6723 18.9135C26.1392 18.7684 28.6062 18.7684 30.928 18.9135C36.007 19.2038 40.9409 20.3647 45.4395 22.8316C46.165 23.267 46.7455 23.7023 46.8906 24.573C47.0357 25.4437 46.7455 26.1693 46.0199 26.6046C45.2944 27.0399 44.5688 27.0399 43.6981 26.6046C42.3921 26.0241 41.086 25.2986 39.78 24.7181C37.1679 23.8474 34.5559 23.267 31.9438 22.9767C30.3475 23.1218 28.8964 23.1218 27.3001 22.9767Z" fill="white"/>
<path d="M26.8648 26.6055C31.9438 26.6055 36.7326 27.6213 41.2311 29.798C41.8116 30.0882 42.3921 30.3784 42.9725 30.8138C43.8432 31.3943 44.1334 32.4101 43.6981 33.1356C43.1176 34.0063 42.2469 34.2965 41.2311 33.7161C39.3447 32.5552 37.313 31.6845 35.1363 31.104C32.9596 30.5236 30.7829 30.2333 28.6062 30.0882C25.2685 29.798 21.9309 30.2333 18.7384 31.104C17.8677 31.3943 16.8519 30.8138 16.5617 29.9431C16.2714 29.0724 16.7068 28.0566 17.7226 27.7664C19.6091 27.331 21.4956 26.8957 23.382 26.6055C24.543 26.7506 25.7039 26.7506 26.8648 26.6055Z" fill="white"/>
<path d="M26.7198 34.0059C31.6537 34.0059 36.0071 35.0217 40.0703 37.3435C40.5057 37.6337 40.941 37.924 41.0861 38.5044C41.2312 39.0849 41.0861 39.5202 40.5057 39.8104C40.0703 40.1007 39.4899 40.1007 39.0545 39.8104C37.8936 39.23 36.7327 38.6495 35.5718 38.2142C33.5402 37.3435 31.3634 37.0533 29.0416 36.763C25.704 36.4728 22.5114 36.9082 19.3189 37.6337C18.4482 37.7788 17.7227 37.4886 17.5775 36.6179C17.4324 35.7472 17.8678 35.1668 18.7385 34.8765C21.4956 34.4412 24.2528 34.0059 26.7198 34.0059Z" fill="white"/>
</svg>
