<svg width="32" height="32" viewBox="0 0 32 32" fill="none" xmlns="http://www.w3.org/2000/svg">
<path d="M0 5C0 2.23858 2.23858 0 5 0H27C29.7614 0 32 2.23858 32 5V27C32 29.7614 29.7614 32 27 32H5C2.23858 32 0 29.7614 0 27V5Z" fill="black"/>
<path d="M14.4984 14.3001V13.6772C14.285 13.6487 14.068 13.6309 13.844 13.6309C11.173 13.6274 9 15.8022 9 18.4789C9 20.1199 9.818 21.5722 11.0699 22.4514C10.2626 21.5864 9.76821 20.4224 9.76821 19.1481C9.76821 16.5105 11.8808 14.3606 14.4984 14.3001Z" fill="#25F4EE"/>
<path d="M14.6157 21.3624C15.8072 21.3624 16.7816 20.412 16.8243 19.2303L16.8279 8.66919H18.7555C18.7164 8.45206 18.695 8.22781 18.695 8H16.0632L16.0597 18.5611C16.017 19.7428 15.0425 20.6932 13.8511 20.6932C13.4812 20.6932 13.1327 20.6007 12.8232 20.4369C13.2216 20.9958 13.876 21.3624 14.6157 21.3624Z" fill="#25F4EE"/>
<path d="M22.3584 12.254V11.6667C21.6222 11.6667 20.9393 11.4496 20.3632 11.0723C20.8753 11.6596 21.5688 12.0868 22.3584 12.254Z" fill="#25F4EE"/>
<path d="M20.3631 11.0716C19.8012 10.4273 19.4633 9.5873 19.4633 8.66895H18.7592C18.9405 9.67273 19.538 10.5341 20.3631 11.0716Z" fill="#FE2C55"/>
<path d="M13.8475 16.2617C12.6276 16.2617 11.6354 17.2549 11.6354 18.4758C11.6354 19.3265 12.1191 20.0669 12.8232 20.4371C12.5601 20.074 12.4036 19.6291 12.4036 19.1449C12.4036 17.924 13.3958 16.9309 14.6158 16.9309C14.8434 16.9309 15.0638 16.9701 15.2701 17.0342V14.3432C15.0567 14.3147 14.8398 14.2969 14.6158 14.2969C14.5766 14.2969 14.541 14.3004 14.5019 14.3004V16.365C14.2921 16.3009 14.0751 16.2617 13.8475 16.2617Z" fill="#FE2C55"/>
<path d="M22.3582 12.2539V14.3006C20.9925 14.3006 19.7264 13.8628 18.695 13.1224V18.4795C18.695 21.1527 16.522 23.3311 13.8475 23.3311C12.8161 23.3311 11.8558 23.0036 11.0698 22.4519C11.9554 23.4023 13.218 24.0003 14.6157 24.0003C17.2866 24.0003 19.4632 21.8254 19.4632 19.1487V13.7916C20.4946 14.532 21.7607 14.9698 23.1264 14.9698V12.3358C22.8596 12.3358 22.6036 12.3073 22.3582 12.2539Z" fill="#FE2C55"/>
<path d="M18.695 18.4789V13.1219C19.7264 13.8623 20.9925 14.3001 22.3583 14.3001V12.2534C21.5687 12.0861 20.8752 11.6589 20.3631 11.0716C19.5379 10.5341 18.944 9.67273 18.7555 8.66895H16.8279L16.8243 19.23C16.7816 20.4117 15.8071 21.3621 14.6157 21.3621C13.876 21.3621 13.2251 20.9955 12.8197 20.4402C12.1155 20.0665 11.6318 19.3297 11.6318 18.4789C11.6318 17.258 12.6241 16.2649 13.8439 16.2649C14.0716 16.2649 14.2921 16.3041 14.4984 16.3681V14.3036C11.8808 14.3606 9.76819 16.5105 9.76819 19.1481C9.76819 20.4224 10.2625 21.5829 11.0699 22.4514C11.8559 23.0031 12.8161 23.3306 13.8475 23.3306C16.5185 23.3306 18.695 21.1521 18.695 18.4789Z" fill="white"/>
</svg>
