<?xml version="1.0" encoding="utf-8"?>
<!-- Generator: Adobe Illustrator 18.1.1, SVG Export Plug-In . SVG Version: 6.00 Build 0)  -->
<svg version="1.1" id="Layer_1" xmlns="http://www.w3.org/2000/svg" xmlns:xlink="http://www.w3.org/1999/xlink" x="0px" y="0px"
	 viewBox="0 0 300 300" enable-background="new 0 0 300 300" xml:space="preserve">
<g>
	<path d="M234.8,295H65.3C32,295,5,268,5,234.8V65.3C5,32,32,5,65.3,5h169.5C268,5,295,32,295,65.3v169.5C295,268,268,295,234.8,295
		z"/>
	<g>
		<path fill="#FFFFFF" d="M254.1,248.4c-2.3,0-3.5,0-4.7,0c-17.8,0-35.7-0.1-53.5,0.1c-2.6,0-4.3-0.7-5.9-2.9
			c-17.6-24-35.4-47.9-53.1-71.8c-0.5-0.7-1.1-1.3-2.1-2.5c-3.8,4.1-7.4,8-11,11.9c-19.4,21.2-38.8,42.4-58.3,63.6
			c-0.6,0.7-1.6,1.4-2.4,1.5c-5.4,0.1-10.7,0.1-17.2,0.1c2.6-2.8,4.5-4.8,6.4-6.9c20.1-21.9,40.1-43.9,60.2-65.8
			c4.1-4.5,8.2-9.2,12.5-13.6c1.5-1.6,1.3-2.5,0.1-4.1c-17.1-23-34.1-46-51.1-69c-8.6-11.6-17.2-23.2-25.8-34.8
			c-0.4-0.6-0.8-1.2-1.5-2.3c1.7-0.1,3-0.2,4.3-0.2c17.8,0,35.7,0.1,53.5-0.1c2.9,0,4.5,1,6.1,3.2c16.1,21.9,32.4,43.8,48.6,65.7
			c0.4,0.6,0.9,1.1,1.8,2.1c3.5-3.8,7-7.4,10.3-11c17.7-19.3,35.4-38.7,53.2-58c0.8-0.8,2-1.8,3-1.8c5.2-0.2,10.5-0.1,16.7-0.1
			c-4.3,4.8-8,8.9-11.8,13c-20.5,22.4-41,44.8-61.6,67.1c-1.4,1.5-1.4,2.5-0.2,4.1c18.3,24.6,36.5,49.2,54.7,73.8
			C234.8,222.3,244.1,234.9,254.1,248.4z M226.9,234.8c-0.9-1.5-1.3-2.3-1.9-3.1c-12-16.2-24.1-32.5-36.1-48.7
			c-27.9-37.6-55.8-75.2-83.5-113c-2.7-3.6-5.3-5.2-9.9-5c-7.1,0.4-14.2,0.1-22,0.1c1,1.6,1.5,2.6,2.2,3.4
			c14.2,19.2,28.4,38.3,42.6,57.5c25.7,34.7,51.4,69.4,76.9,104.2c2.5,3.4,5,4.9,9.2,4.6C211.7,234.6,219,234.8,226.9,234.8z"/>
		<path d="M226.9,234.8c-7.9,0-15.1-0.3-22.3,0.1c-4.2,0.2-6.8-1.3-9.2-4.6c-25.6-34.8-51.3-69.5-76.9-104.2
			C104.2,107,90,87.8,75.8,68.6c-0.6-0.9-1.2-1.8-2.2-3.4c7.8,0,14.9,0.3,22-0.1c4.6-0.3,7.2,1.3,9.9,5
			c27.7,37.7,55.6,75.3,83.5,113c12,16.2,24.1,32.5,36.1,48.7C225.6,232.5,226,233.4,226.9,234.8z"/>
	</g>
</g>
</svg>
