<svg width="24" height="24" viewBox="0 0 24 24" fill="none" xmlns="http://www.w3.org/2000/svg">
<path d="M17.7584 13.7904C17.7116 13.768 15.962 12.9064 15.651 12.7945C15.5241 12.7489 15.3881 12.7044 15.2435 12.7044C15.0073 12.7044 14.8088 12.8222 14.6542 13.0535C14.4794 13.3132 13.9503 13.9317 13.7868 14.1165C13.7655 14.1409 13.7363 14.17 13.7189 14.17C13.7032 14.17 13.4324 14.0585 13.3505 14.0229C11.4736 13.2076 10.0489 11.247 9.85357 10.9164C9.82567 10.8688 9.8245 10.8472 9.82427 10.8472C9.83112 10.8221 9.89424 10.7588 9.92681 10.7262C10.0221 10.6319 10.1254 10.5076 10.2253 10.3874C10.2726 10.3304 10.3199 10.2734 10.3664 10.2196C10.5114 10.051 10.5759 9.92005 10.6507 9.76842L10.6899 9.68964C10.8726 9.32676 10.7166 9.02052 10.6661 8.92164C10.6248 8.83889 9.88598 7.05587 9.80744 6.86855C9.61855 6.41652 9.36897 6.20605 9.02214 6.20605C8.98996 6.20605 9.02214 6.20605 8.88718 6.21174C8.72284 6.21868 7.8279 6.3365 7.43222 6.58592C7.0126 6.85047 6.30273 7.69374 6.30273 9.17676C6.30273 10.5115 7.14975 11.7717 7.51341 12.251C7.52245 12.2631 7.53905 12.2876 7.56312 12.3229C8.95583 14.3568 10.692 15.8641 12.452 16.5672C14.1464 17.244 14.9488 17.3223 15.405 17.3223C15.405 17.3223 15.405 17.3223 15.405 17.3223C15.5967 17.3223 15.7502 17.3072 15.8855 17.2939L15.9714 17.2857C16.5567 17.2338 17.8431 16.5673 18.1357 15.7542C18.3662 15.1137 18.4269 14.414 18.2736 14.16C18.1686 13.9874 17.9875 13.9005 17.7584 13.7904Z" fill="url(#paint0_linear_533_64281)"/>
<path d="M12.213 0C5.71307 0 0.424969 5.24836 0.424969 11.6995C0.424969 13.786 0.983358 15.8284 2.04115 17.6159L0.0165014 23.5883C-0.0212129 23.6996 0.00683904 23.8227 0.0892027 23.9066C0.148657 23.9673 0.229307 24 0.31167 24C0.343229 24 0.375021 23.9952 0.406034 23.9854L6.63357 22.0064C8.33772 22.917 10.2638 23.3976 12.2131 23.3976C18.7124 23.3977 24 18.1498 24 11.6995C24 5.24836 18.7124 0 12.213 0ZM12.213 20.9606C10.3788 20.9606 8.60227 20.4309 7.07515 19.4289C7.0238 19.3951 6.96419 19.3778 6.90419 19.3778C6.87248 19.3778 6.84068 19.3826 6.80975 19.3925L3.69014 20.3841L4.6972 17.413C4.72977 17.3169 4.71349 17.2108 4.65349 17.1288C3.49058 15.5398 2.87585 13.6625 2.87585 11.6995C2.87585 6.59221 7.06448 2.43709 12.2129 2.43709C17.3608 2.43709 21.5489 6.59221 21.5489 11.6995C21.549 16.8061 17.3609 20.9606 12.213 20.9606Z" fill="url(#paint1_linear_533_64281)"/>
<defs>
<linearGradient id="paint0_linear_533_64281" x1="12.3304" y1="6.20605" x2="12.3304" y2="17.3223" gradientUnits="userSpaceOnUse">
<stop stop-color="#E71D73"/>
<stop offset="1" stop-color="#462563"/>
</linearGradient>
<linearGradient id="paint1_linear_533_64281" x1="12" y1="0" x2="12" y2="24" gradientUnits="userSpaceOnUse">
<stop stop-color="#E71D73"/>
<stop offset="1" stop-color="#462563"/>
</linearGradient>
</defs>
</svg>
