<svg width="32" height="32" viewBox="0 0 32 32" fill="none" xmlns="http://www.w3.org/2000/svg">
<path d="M27 0H5C2.23858 0 0 2.23858 0 5V27C0 29.7614 2.23858 32 5 32H27C29.7614 32 32 29.7614 32 27V5C32 2.23858 29.7614 0 27 0Z" fill="#FF0000"/>
<path d="M23.6 12.1004C23.4 11.4004 22.9 10.9004 22.2 10.7004C21 10.4004 15.9 10.4004 15.9 10.4004C15.9 10.4004 10.9 10.4004 9.60001 10.7004C8.90001 10.9004 8.4 11.4004 8.2 12.1004C8 13.4004 8 16.0004 8 16.0004C8 16.0004 8 18.6004 8.3 19.9004C8.5 20.6004 9 21.1004 9.7 21.3004C10.9 21.6004 16 21.6004 16 21.6004C16 21.6004 21 21.6004 22.3 21.3004C23 21.1004 23.5 20.6004 23.7 19.9004C24 18.6004 24 16.0004 24 16.0004C24 16.0004 24 13.4004 23.6 12.1004ZM14.4 18.4004V13.6004L18.6 16.0004L14.4 18.4004Z" fill="white"/>
</svg>
