<svg width="48" height="48" viewBox="0 0 48 48" fill="none" xmlns="http://www.w3.org/2000/svg">
<path d="M47.3774 17.7524L45.0648 16.208L24.2517 2.16847H23.9974C23.8556 2.09569 23.7085 2.03928 23.558 2H23.1186H22.7023C22.5443 2.03931 22.3895 2.09569 22.2398 2.16847H21.9854L1.17235 16.208C0.816451 16.4529 0.520424 16.8081 0.314468 17.2372C0.108513 17.6664 0 18.1542 0 18.6509C0 19.1476 0.108513 19.6354 0.314468 20.0646C0.520424 20.4938 0.816451 20.8489 1.17235 21.0938L6.93063 24.9687V38.2782C6.93063 40.5123 7.66157 42.655 8.96264 44.2347C10.2637 45.8145 12.0283 46 13.8683 46H32.3688C34.2088 46 35.9734 45.8145 37.2745 44.2347C38.5756 42.655 39.3065 40.5123 39.3065 38.2782V24.9687L44.5098 21.7818V29.8545C44.5098 31.2585 44.8737 31.779 45.0648 32.011C45.3277 32.3302 45.8784 32.6624 46.2442 32.6624C46.6101 32.6624 47.4231 32.6624 47.7618 32.011C48.1006 31.3597 47.9786 31.2585 47.9786 29.8545V19.6758C47.9779 19.1783 47.9786 18.6229 47.9786 18.6229C47.9786 18.6229 47.7346 17.9962 47.3774 17.7524ZM34.8991 38.2782C34.8991 39.0229 34.7586 39.9394 34.1033 40.7352C33.8142 41.0861 32.9822 41.7881 32.3688 41.7881H13.8683C13.255 41.7881 11.9433 41.2057 11.5558 40.7352C11.1332 40.2221 10.6885 39.0229 10.6885 38.2782V27.0466L21.9854 35.1053L22.3323 35.2738H22.5404C22.7324 35.3031 22.9266 35.3031 23.1186 35.2738C23.3105 35.3031 23.5048 35.3031 23.6967 35.2738H23.9048C24.0276 35.2423 24.145 35.1853 24.2517 35.1053L34.9705 28.0996L34.8991 38.2782ZM22.5404 30.7341L4.61807 18.6509L23.1186 6.54353L41.0409 18.6229L22.5404 30.7341Z" fill="url(#paint0_linear_533_27184)"/>
<defs>
<linearGradient id="paint0_linear_533_27184" x1="24" y1="2" x2="24" y2="46" gradientUnits="userSpaceOnUse">
<stop stop-color="#E71D73"/>
<stop offset="1" stop-color="#462563"/>
</linearGradient>
</defs>
</svg>
