<svg width="48" height="48" viewBox="0 0 48 48" fill="none" xmlns="http://www.w3.org/2000/svg">
<path d="M25.2932 6.54718C24.8648 6.51555 24.4354 6.49971 24.0059 6.49969V4C24.4971 4.00024 24.9882 4.01858 25.4782 4.05499L25.2932 6.54718ZM30.3026 7.67204C29.5013 7.36284 28.6783 7.11303 27.8404 6.92463L28.3878 4.48494C29.3452 4.69991 30.2876 4.98488 31.2025 5.33983L30.3026 7.67204ZM33.7271 9.44682C33.3698 9.20847 33.0037 8.98335 32.6298 8.7719L33.8621 6.59718C34.7168 7.08145 35.5347 7.62786 36.3093 8.23197L34.772 10.2042C34.4331 9.93983 34.0846 9.68803 33.7271 9.44932V9.44682ZM38.3116 13.9213C37.8171 13.2188 37.2715 12.5537 36.6793 11.9315L38.489 10.2067C39.164 10.9191 39.7889 11.6815 40.3563 12.4814L38.3116 13.9213ZM40.1713 17.3008C40.0073 16.9045 39.8288 16.5143 39.6364 16.131L41.8686 15.0061C42.3101 15.8837 42.686 16.7928 42.9935 17.7258L40.6188 18.5082C40.4844 18.1004 40.3352 17.6977 40.1713 17.3008ZM41.4962 23.5676C41.476 22.7085 41.3924 21.8521 41.2462 21.0054L43.7084 20.5804C43.8759 21.5453 43.9734 22.5252 43.9984 23.5051L41.4987 23.5676H41.4962ZM41.1687 27.4121C41.2512 26.9871 41.3187 26.5647 41.3712 26.1372L43.8534 26.4447C43.7333 27.42 43.5411 28.385 43.2785 29.3318L40.8688 28.6644C40.9837 28.252 41.0837 27.8345 41.1687 27.4121ZM38.789 33.3588C39.249 32.6339 39.6539 31.874 40.0039 31.0891L42.2886 32.1015C41.8886 33.0014 41.4262 33.8663 40.9012 34.6962L38.789 33.3588ZM36.3793 36.371C36.6843 36.066 36.9767 35.751 37.2542 35.4261L39.149 37.0584C38.8281 37.4304 38.4937 37.7906 38.1466 38.1382L36.3793 36.371Z" fill="url(#paint0_linear_533_27190)" stroke="url(#paint1_linear_533_27190)"/>
<path d="M24.0053 6.49969C21.1279 6.4999 18.2949 7.20972 15.7573 8.56628C13.2197 9.92284 11.0558 11.8843 9.45727 14.2768C7.85875 16.6694 6.87494 19.4193 6.59297 22.2829C6.31101 25.1465 6.73959 28.0354 7.84077 30.6938C8.94195 33.3522 10.6817 35.698 12.906 37.5234C15.1303 39.3489 17.7704 40.5976 20.5926 41.159C23.4147 41.7204 26.3317 41.5772 29.0853 40.742C31.8389 39.9069 34.344 38.4055 36.3788 36.371L38.146 38.1382C35.8207 40.4649 32.9573 42.1821 29.8097 43.1376C26.662 44.0931 23.3273 44.2575 20.101 43.6163C16.8746 42.975 13.8562 41.5478 11.3133 39.4611C8.77031 37.3745 6.7813 34.6928 5.52245 31.6538C4.26361 28.6147 3.7738 25.312 4.09643 22.0384C4.41906 18.7648 5.54417 15.6213 7.37206 12.8864C9.19995 10.1516 11.6742 7.90979 14.5756 6.35971C17.4769 4.80964 20.7158 3.99913 24.0053 4V6.49969Z" fill="url(#paint2_linear_533_27190)" stroke="url(#paint3_linear_533_27190)"/>
<path d="M22.7557 11.4991C23.0872 11.4991 23.4051 11.6308 23.6395 11.8652C23.8739 12.0995 24.0055 12.4174 24.0055 12.7489V25.7723L32.1245 30.4117C32.404 30.5803 32.6064 30.8515 32.6885 31.1673C32.7707 31.4832 32.726 31.8186 32.5641 32.102C32.4022 32.3854 32.1359 32.5941 31.822 32.6837C31.5082 32.7733 31.1718 32.7366 30.8847 32.5814L22.1358 27.5821C21.9445 27.4728 21.7855 27.3149 21.6749 27.1244C21.5642 26.9339 21.5059 26.7175 21.5059 26.4972V12.7489C21.5059 12.4174 21.6375 12.0995 21.8719 11.8652C22.1063 11.6308 22.4242 11.4991 22.7557 11.4991Z" fill="url(#paint4_linear_533_27190)" stroke="url(#paint5_linear_533_27190)"/>
<defs>
<linearGradient id="paint0_linear_533_27190" x1="34.0021" y1="4" x2="34.0021" y2="38.1382" gradientUnits="userSpaceOnUse">
<stop stop-color="#E71D73"/>
<stop offset="1" stop-color="#462563"/>
</linearGradient>
<linearGradient id="paint1_linear_533_27190" x1="34.0021" y1="4" x2="34.0021" y2="38.1382" gradientUnits="userSpaceOnUse">
<stop stop-color="#E71D73"/>
<stop offset="1" stop-color="#462563"/>
</linearGradient>
<linearGradient id="paint2_linear_533_27190" x1="21.073" y1="4" x2="21.073" y2="44" gradientUnits="userSpaceOnUse">
<stop stop-color="#E71D73"/>
<stop offset="1" stop-color="#462563"/>
</linearGradient>
<linearGradient id="paint3_linear_533_27190" x1="21.073" y1="4" x2="21.073" y2="44" gradientUnits="userSpaceOnUse">
<stop stop-color="#E71D73"/>
<stop offset="1" stop-color="#462563"/>
</linearGradient>
<linearGradient id="paint4_linear_533_27190" x1="27.1173" y1="11.4991" x2="27.1173" y2="32.7318" gradientUnits="userSpaceOnUse">
<stop stop-color="#E71D73"/>
<stop offset="1" stop-color="#462563"/>
</linearGradient>
<linearGradient id="paint5_linear_533_27190" x1="27.1173" y1="11.4991" x2="27.1173" y2="32.7318" gradientUnits="userSpaceOnUse">
<stop stop-color="#E71D73"/>
<stop offset="1" stop-color="#462563"/>
</linearGradient>
</defs>
</svg>
