<svg width="359" height="800" viewBox="0 0 359 800" fill="none" xmlns="http://www.w3.org/2000/svg">
<path opacity="0.1" d="M149.7 846.2L180 400L210.3 846.2H149.7ZM149.7 -46.2L180 400L210.3 -46.2H149.7ZM346.7 815L180 400L289 833.7L346.7 815ZM13.3 -15L180 400L71.0001 -33.8L13.3 -15ZM466.8 743.2L180 400L417.7 778.8L466.8 743.2ZM-106.8 56.8L180 400L-57.6999 21.2L-106.8 56.8ZM558.8 637.7L180 400L523.2 686.8L558.8 637.7ZM-198.8 162.3L180 400L-163.2 113.2L-198.8 162.3ZM613.7 509L180 400L595 566.7L613.7 509ZM-253.8 291L180 400L-235 233.3L-253.8 291ZM626.2 369.7L180 400L626.2 430.3V369.7ZM-266.2 430.3L180 400L-266.2 369.7V430.3ZM595 233.3L180 400L613.7 291L595 233.3ZM-235 566.7L180 400L-253.8 509L-235 566.7ZM523.2 113.2L180 400L558.8 162.3L523.2 113.2ZM-163.2 686.8L180 400L-198.8 637.7L-163.2 686.8ZM417.7 21.2L180 400L466.8 56.8L417.7 21.2ZM-57.6999 778.8L180 400L-106.8 743.2L-57.6999 778.8ZM289 -33.8L180 400L346.7 -15L289 -33.8ZM71.0001 833.7L180 400L13.3 815L71.0001 833.7Z" fill="white"/>
</svg>
