<svg width="100" height="20" viewBox="0 0 100 20" fill="none" xmlns="http://www.w3.org/2000/svg">
<path d="M7.91624 1.32038C8.49619 1.53453 8.99108 1.84292 9.40259 2.24553C9.81413 2.64814 10.1336 3.13813 10.3593 3.71722C10.5851 4.29458 10.6979 4.94733 10.6979 5.67546C10.6979 6.40359 10.5886 7.05461 10.3698 7.6337C10.151 8.21106 9.83497 8.70277 9.42343 9.10538C9.01192 9.50799 8.51529 9.81295 7.93708 10.022C7.35711 10.2293 6.70075 10.3338 5.968 10.3338H3.14808V14.0361C3.14808 14.3342 3.08905 14.5432 2.97446 14.6597C2.85811 14.7762 2.65322 14.8345 2.35629 14.8345H0.791797C0.494873 14.8345 0.289978 14.7762 0.17364 14.6597C0.0573011 14.5432 0 14.3359 0 14.0361V1.79837C0 1.50027 0.0573011 1.29125 0.17364 1.17475C0.289978 1.05825 0.494873 1 0.791797 1H5.96627C6.68686 1 7.33802 1.10622 7.91624 1.32038ZM6.96121 6.97066C7.27724 6.6657 7.43527 6.23397 7.43527 5.67546C7.43527 5.11693 7.28073 4.67834 6.97165 4.35967C6.66256 4.04101 6.21805 3.88167 5.63981 3.88167H3.14808V7.4281H5.63808C6.20589 7.4281 6.64694 7.27562 6.96121 6.97066Z" fill="white"/>
<path d="M21.7916 2.17871C22.6095 2.9651 23.0175 4.065 23.0175 5.48185C23.0175 6.45671 22.8248 7.28076 22.4376 7.95577C22.0521 8.63081 21.4982 9.13793 20.7776 9.47543C20.854 9.57993 20.9252 9.68959 20.9894 9.80609L21.1822 10.1573L23.1721 13.995C23.3006 14.228 23.3388 14.4267 23.2884 14.5895C23.2363 14.7522 23.0627 14.8328 22.7658 14.8328H21.2221C20.7324 14.8328 20.3765 14.7814 20.1507 14.6769C19.925 14.5723 19.741 14.3719 19.6003 14.0721L18.1713 11.0722C18.0688 10.8512 17.9629 10.6661 17.8535 10.5171C17.7441 10.368 17.6191 10.2515 17.4767 10.1659C17.336 10.0819 17.1676 10.0203 16.9749 9.98084C16.7821 9.94143 16.5443 9.9226 16.2595 9.9226H15.4677V14.0327C15.4677 14.3308 15.4104 14.5398 15.294 14.6563C15.1777 14.7728 14.9728 14.8311 14.6759 14.8311H13.1114C12.8162 14.8311 12.6096 14.7728 12.4932 14.6563C12.3769 14.5398 12.3196 14.3325 12.3196 14.0327V1.79837C12.3196 1.50027 12.3786 1.29125 12.4932 1.17475C12.6096 1.05825 12.8145 1 13.1114 1H18.4595C19.8642 1 20.9738 1.39233 21.7916 2.17871ZM19.3399 4.30313C19.062 4.02388 18.6679 3.8834 18.1521 3.8834H15.4677V7.0786H18.1521C18.6679 7.0786 19.0638 6.93812 19.3399 6.65887C19.6159 6.37959 19.7549 5.98727 19.7549 5.48014C19.7549 4.97473 19.6159 4.58241 19.3399 4.30313Z" fill="white"/>
<path d="M26.3987 2.40315C27.3781 1.46772 28.7862 1 30.6268 1C32.4673 1 33.8808 1.46772 34.8654 2.40315C35.85 3.33858 36.343 4.61837 36.343 6.24082V10.1762C36.343 11.8003 35.85 13.0784 34.8654 14.0138C33.8808 14.9492 32.4673 15.417 30.6268 15.417C28.7862 15.417 27.3762 14.9492 26.3987 14.0138C25.4211 13.0784 24.9315 11.7986 24.9315 10.1762V6.24253C24.9315 4.61839 25.4211 3.33858 26.3987 2.40315ZM32.53 4.46932C32.0854 4.09242 31.4516 3.90396 30.6287 3.90396C29.8176 3.90396 29.1908 4.09242 28.7462 4.46932C28.3019 4.84623 28.0795 5.41677 28.0795 6.18429V10.2361C28.0795 11.0019 28.3019 11.5742 28.7462 11.9511C29.1908 12.328 29.8176 12.5164 30.6287 12.5164C31.4533 12.5164 32.0854 12.328 32.53 11.9511C32.9743 11.5742 33.1968 11.0036 33.1968 10.2361V6.18429C33.1949 5.41677 32.9727 4.84623 32.53 4.46932Z" fill="white"/>
<path d="M48.9233 1.17647C48.8138 1.05997 48.6105 1.00171 48.3154 1.00171H46.8862C46.5911 1.00171 46.3846 1.05997 46.2681 1.17647C46.1519 1.29297 46.0946 1.50027 46.0946 1.80009V5.54353V8.99572L45.0024 7.32017C44.9919 7.30476 44.9849 7.29105 44.9746 7.27561L41.1127 1.37006C41.0224 1.23986 40.9251 1.14563 40.8227 1.08738C40.7203 1.02913 40.566 1 40.3592 1H38.7565C38.4595 1 38.2546 1.05825 38.1384 1.17475C38.0219 1.29125 37.9646 1.49855 37.9646 1.79837V14.0327C37.9646 14.3308 38.0219 14.5398 38.1384 14.6563C38.2546 14.7728 38.4595 14.8311 38.7565 14.8311H40.1857C40.4808 14.8311 40.6873 14.7728 40.8038 14.6563C40.9184 14.5398 40.9773 14.3325 40.9773 14.0327V10.243V9.37777V6.79079L42.1895 8.65137C42.1911 8.65308 42.1911 8.65479 42.1927 8.65649L45.9765 14.4627C46.1311 14.7094 46.3897 14.8328 46.7492 14.8328H48.3135C48.6089 14.8328 48.8119 14.7745 48.9214 14.658C49.0308 14.5415 49.0862 14.3342 49.0862 14.0344V1.79837C49.0862 1.50027 49.0324 1.29297 48.9233 1.17647Z" fill="white"/>
<path d="M63.444 14.0532L61.4959 8.80557L61.0878 7.70909L58.8286 1.62362C58.7384 1.36321 58.6221 1.19531 58.4813 1.1165C58.3392 1.03769 58.1343 1 57.8632 1H56.377C56.1059 1 55.903 1.04283 55.7692 1.12678C55.6338 1.21073 55.514 1.38891 55.4116 1.66303L50.7962 14.055C50.6938 14.3154 50.6797 14.509 50.7578 14.6392C50.8343 14.7694 51.0219 14.8345 51.317 14.8345H52.6489C52.8938 14.8345 53.0935 14.8242 53.2478 14.8054C53.4024 14.7865 53.5346 14.7471 53.6438 14.6888C53.7532 14.6306 53.8365 14.5552 53.8957 14.4644C53.953 14.3736 54.0084 14.2571 54.0589 14.1132L54.677 12.2817H59.4381L59.4557 12.3143L59.8376 13.4827L60.0443 14.1132C60.1346 14.3993 60.2735 14.5895 60.4592 14.6888C60.6467 14.7865 60.9835 14.8345 61.4732 14.8345H62.9213C63.4632 14.8328 63.6367 14.574 63.444 14.0532ZM55.5086 9.70845L56.514 6.66914C56.5227 6.64514 56.5281 6.62287 56.5349 6.5989L57.0697 4.97815L57.6273 6.66743C57.6289 6.67429 57.6305 6.68285 57.634 6.6897L58.6378 9.70845H55.5086Z" fill="white"/>
<path d="M74.3794 1.95428C75.107 2.59161 75.4697 3.49964 75.4697 4.68177C75.4697 5.34479 75.3673 5.90503 75.1608 6.36761C74.954 6.82847 74.6138 7.22766 74.1381 7.56516V7.64399C74.73 7.90439 75.1867 8.31215 75.5081 8.87065C75.8311 9.42919 75.9908 10.1368 75.9908 10.9951C75.9908 11.6187 75.8743 12.1669 75.6435 12.6415C75.4124 13.1161 75.0929 13.5153 74.6884 13.8391C74.2821 14.1629 73.803 14.4096 73.2508 14.5792C72.6967 14.7488 72.0924 14.8328 71.4362 14.8328H65.9335C65.6365 14.8328 65.4316 14.7745 65.3154 14.658C65.1989 14.5415 65.1416 14.3342 65.1416 14.0344V1.79837C65.1416 1.50027 65.1989 1.29125 65.3154 1.17475C65.4316 1.05825 65.6365 1 65.9335 1H71.3581C72.6446 1 73.6519 1.31866 74.3794 1.95428ZM70.8735 3.8063H68.2865V6.45497H70.8735C71.813 6.45497 72.2835 6.01297 72.2835 5.13065C72.2835 4.2483 71.813 3.8063 70.8735 3.8063ZM71.24 9.20302H68.2865V12.0282H71.24C72.2054 12.0282 72.6881 11.5605 72.6881 10.625C72.6897 9.67588 72.207 9.20302 71.24 9.20302Z" fill="white"/>
<path d="M86.7824 1.17647C86.8986 1.29297 86.9559 1.50027 86.9559 1.80009V3.10558C86.9559 3.40369 86.897 3.60926 86.7824 3.71892C86.6659 3.82857 86.461 3.8851 86.164 3.8851H80.7586V6.39844H85.1986C85.4956 6.39844 85.7005 6.45327 85.8167 6.56463C85.9332 6.67428 85.9905 6.87985 85.9905 7.17796V8.48345C85.9905 8.78156 85.9332 8.9906 85.8167 9.10708C85.7005 9.22359 85.4956 9.28183 85.1986 9.28183H80.7586V11.9305H86.3586C86.6537 11.9305 86.8605 11.9888 86.9767 12.1053C87.0932 12.2218 87.1505 12.4291 87.1505 12.7289V14.0344C87.1505 14.3325 87.0913 14.5415 86.9767 14.658C86.8605 14.7745 86.6556 14.8328 86.3586 14.8328H78.4043C78.1072 14.8328 77.9024 14.7745 77.7859 14.658C77.6697 14.5415 77.6124 14.3342 77.6124 14.0344V1.79837C77.6124 1.50027 77.6697 1.29125 77.7859 1.17475C77.9024 1.05825 78.1072 1 78.4043 1H86.1659C86.461 1 86.6678 1.05825 86.7824 1.17647Z" fill="white"/>
<path d="M90.2375 2.40315C91.2151 1.46772 92.6251 1 94.4656 1C95.9086 1 97.0753 1.28269 97.9697 1.84806C98.864 2.41343 99.4994 3.22208 99.871 4.27403C99.9735 4.54643 99.9875 4.75885 99.9091 4.90792C99.8329 5.05696 99.6575 5.18376 99.3883 5.28827L97.9021 5.81421C97.6051 5.90501 97.3897 5.91872 97.2562 5.85363C97.1205 5.78853 97.0007 5.61379 96.8983 5.32765C96.5372 4.38024 95.7262 3.90565 94.4656 3.90565C92.7656 3.90565 91.9167 4.67835 91.9167 6.22368V10.1984C91.9167 11.7438 92.7656 12.5165 94.4656 12.5165C95.728 12.5165 96.5389 12.0419 96.8983 11.0945C97.0007 10.8083 97.1275 10.6302 97.2751 10.5582C97.4226 10.4862 97.6329 10.5034 97.9037 10.6062L99.3899 11.1321C99.6591 11.2366 99.8345 11.3634 99.911 11.5125C99.9875 11.6615 99.9753 11.8723 99.8729 12.1464C99.4994 13.1983 98.8656 14.007 97.9713 14.5723C97.0772 15.1377 95.9086 15.4204 94.4672 15.4204C92.6267 15.4204 91.217 14.9527 90.2391 14.0173C89.2616 13.0818 88.7721 11.802 88.7721 10.1796V6.24253C88.7702 4.61837 89.2599 3.33858 90.2375 2.40315Z" fill="white"/>
<path d="M12.9018 17.9995H1.28876C0.845979 17.9995 0.488281 17.6466 0.488281 17.2097C0.488281 16.7729 0.845979 16.4199 1.28876 16.4199H12.9018C13.3446 16.4199 13.7023 16.7729 13.7023 17.2097C13.7023 17.6466 13.3428 17.9995 12.9018 17.9995Z" fill="white"/>
<path d="M27.1968 17.9995H15.5838C15.1411 17.9995 14.7834 17.6466 14.7834 17.2097C14.7834 16.7729 15.1411 16.4199 15.5838 16.4199H27.1968C27.6398 16.4199 27.9974 16.7729 27.9974 17.2097C27.9974 17.6466 27.6398 17.9995 27.1968 17.9995Z" fill="white"/>
<path d="M41.4919 17.9995H29.879C29.436 17.9995 29.0784 17.6466 29.0784 17.2097C29.0784 16.7729 29.436 16.4199 29.879 16.4199H41.4919C41.9346 16.4199 42.2925 16.7729 42.2925 17.2097C42.2925 17.6466 41.9346 17.9995 41.4919 17.9995Z" fill="white"/>
<path d="M55.7871 17.9995H44.1738C43.7311 17.9995 43.3735 17.6466 43.3735 17.2097C43.3735 16.7729 43.7311 16.4199 44.1738 16.4199H55.7871C56.2298 16.4199 56.5873 16.7729 56.5873 17.2097C56.5873 17.6466 56.2298 17.9995 55.7871 17.9995Z" fill="white"/>
<path d="M70.0822 17.9995H58.469C58.0263 17.9995 57.6687 17.6466 57.6687 17.2097C57.6687 16.7729 58.0263 16.4199 58.469 16.4199H70.0822C70.5249 16.4199 70.8825 16.7729 70.8825 17.2097C70.8825 17.6466 70.5249 17.9995 70.0822 17.9995Z" fill="white"/>
<path d="M84.3771 17.9995H72.7641C72.3214 17.9995 71.9636 17.6466 71.9636 17.2097C71.9636 16.7729 72.3214 16.4199 72.7641 16.4199H84.3771C84.82 16.4199 85.1776 16.7729 85.1776 17.2097C85.1776 17.6466 84.82 17.9995 84.3771 17.9995Z" fill="white"/>
<path d="M98.6722 17.9995H87.0593C86.6166 17.9995 86.2587 17.6466 86.2587 17.2097C86.2587 16.7729 86.6166 16.4199 87.0593 16.4199H98.6722C99.1149 16.4199 99.4728 16.7729 99.4728 17.2097C99.4728 17.6466 99.1149 17.9995 98.6722 17.9995Z" fill="white"/>
</svg>
