<svg width="93" height="24" viewBox="0 0 93 24" fill="none" xmlns="http://www.w3.org/2000/svg">
<path d="M3.46263 0.959999C3.83063 0.959999 4.08663 1.032 4.23063 1.176C4.37463 1.32 4.44663 1.576 4.44663 1.944V14.424H10.6386C10.9906 14.424 11.2386 14.504 11.3826 14.664C11.5426 14.808 11.6226 15.056 11.6226 15.408V17.016C11.6226 17.384 11.5506 17.64 11.4066 17.784C11.2626 17.928 11.0066 18 10.6386 18H1.51863C1.15063 18 0.894625 17.928 0.750625 17.784C0.606625 17.64 0.534625 17.384 0.534625 17.016V1.944C0.534625 1.576 0.606625 1.32 0.750625 1.176C0.894625 1.032 1.15063 0.959999 1.51863 0.959999H3.46263ZM12.2269 10.488C12.2269 8.76 12.7229 7.44 13.7149 6.528C14.7069 5.616 16.1309 5.16 17.9869 5.16C19.8909 5.16 21.3309 5.64 22.3069 6.6C23.2829 7.544 23.7709 8.752 23.7709 10.224V11.688C23.7709 12.488 23.3549 12.888 22.5229 12.888H15.8509V13.488C15.8509 14.752 16.5709 15.384 18.0109 15.384C19.0509 15.384 19.8109 15.064 20.2909 14.424C20.4989 14.136 20.6909 13.968 20.8669 13.92C21.0589 13.872 21.3309 13.936 21.6829 14.112L22.8589 14.712C23.4829 15.032 23.6109 15.504 23.2429 16.128C22.3149 17.616 20.5549 18.36 17.9629 18.36C15.9949 18.36 14.5469 17.88 13.6189 16.92C12.6909 15.944 12.2269 14.648 12.2269 13.032V10.488ZM20.1229 9.888C20.1229 8.656 19.4109 8.04 17.9869 8.04C16.5629 8.04 15.8509 8.656 15.8509 9.888V10.272H20.1229V9.888ZM26.0982 6.024C27.4902 5.448 29.1222 5.16 30.9942 5.16C34.4502 5.16 36.1782 6.816 36.1782 10.128V17.112C36.1782 17.448 36.1142 17.68 35.9862 17.808C35.8582 17.936 35.6342 18 35.3142 18H33.4422C33.1062 18 32.8742 17.936 32.7462 17.808C32.6182 17.68 32.5542 17.448 32.5542 17.112V10.248C32.5542 9.048 31.8742 8.448 30.5142 8.448C29.8902 8.448 29.3302 8.52 28.8342 8.664C28.7862 8.664 28.7622 8.696 28.7622 8.76V17.112C28.7622 17.448 28.6982 17.68 28.5702 17.808C28.4422 17.936 28.2102 18 27.8742 18H26.0262C25.6902 18 25.4582 17.936 25.3302 17.808C25.2022 17.68 25.1382 17.448 25.1382 17.112V7.416C25.1382 7.016 25.2022 6.728 25.3302 6.552C25.4582 6.36 25.7142 6.184 26.0982 6.024ZM37.6347 10.368C37.6347 6.896 39.5067 5.16 43.2507 5.16C45.1867 5.16 46.6987 5.424 47.7867 5.952C48.1707 6.128 48.4107 6.296 48.5067 6.456C48.6187 6.616 48.6747 6.896 48.6747 7.296V18.192C48.6747 19.856 48.2267 21.16 47.3307 22.104C46.4507 23.048 45.0747 23.52 43.2027 23.52C40.7227 23.52 39.0027 22.776 38.0427 21.288C37.6587 20.664 37.7867 20.192 38.4267 19.872L39.7707 19.176C40.1067 19 40.3707 18.936 40.5627 18.984C40.7547 19.032 40.9547 19.2 41.1627 19.488C41.5947 20.096 42.2507 20.4 43.1307 20.4C44.4107 20.4 45.0507 19.752 45.0507 18.456V17.424C44.2987 17.584 43.5547 17.664 42.8187 17.664C39.3627 17.664 37.6347 16.008 37.6347 12.696V10.368ZM44.9547 8.568C44.4427 8.456 43.9387 8.4 43.4427 8.4C41.9867 8.4 41.2587 9.056 41.2587 10.368V12.672C41.2587 13.232 41.4347 13.664 41.7867 13.968C42.1387 14.272 42.6347 14.424 43.2747 14.424C43.8667 14.424 44.4587 14.368 45.0507 14.256V8.712C45.0507 8.632 45.0187 8.584 44.9547 8.568ZM60.6494 5.52C60.9694 5.52 61.1934 5.584 61.3214 5.712C61.4494 5.84 61.5134 6.072 61.5134 6.408V16.104C61.5134 16.504 61.4494 16.8 61.3214 16.992C61.2094 17.168 60.9614 17.336 60.5774 17.496C59.1534 18.072 57.5134 18.36 55.6574 18.36C52.2014 18.36 50.4734 16.704 50.4734 13.392V6.408C50.4734 6.072 50.5374 5.84 50.6654 5.712C50.7934 5.584 51.0254 5.52 51.3614 5.52H53.2094C53.5454 5.52 53.7774 5.584 53.9054 5.712C54.0334 5.84 54.0974 6.072 54.0974 6.408V13.272C54.0974 14.472 54.7774 15.072 56.1374 15.072C56.6974 15.072 57.2254 15.016 57.7214 14.904C57.8334 14.856 57.8894 14.768 57.8894 14.64V6.408C57.8894 6.072 57.9534 5.84 58.0814 5.712C58.2094 5.584 58.4414 5.52 58.7774 5.52H60.6494ZM63.2819 7.656C64.1619 5.992 65.8739 5.16 68.4179 5.16C71.9859 5.16 73.7699 6.848 73.7699 10.224V16.32C73.7699 16.736 73.7059 17.04 73.5779 17.232C73.4659 17.408 73.2339 17.568 72.8819 17.712C71.9219 18.144 70.4099 18.36 68.3459 18.36C66.2659 18.36 64.8259 18.04 64.0259 17.4C63.2419 16.76 62.8499 15.76 62.8499 14.4C62.8499 12.928 63.2739 11.904 64.1219 11.328C64.9859 10.752 66.4259 10.464 68.4419 10.464C69.0659 10.464 69.6339 10.48 70.1459 10.512V9.984C70.1459 8.8 69.5299 8.208 68.2979 8.208C67.4179 8.208 66.7539 8.504 66.3059 9.096C66.0979 9.368 65.9219 9.536 65.7779 9.6C65.6499 9.648 65.4179 9.608 65.0819 9.48L63.7619 8.928C63.1539 8.672 62.9939 8.248 63.2819 7.656ZM70.1459 13.272C70.0019 13.272 69.6899 13.264 69.2099 13.248C68.7299 13.232 68.3699 13.224 68.1299 13.224C67.4899 13.224 67.0499 13.328 66.8099 13.536C66.5859 13.728 66.4739 14.008 66.4739 14.376C66.4739 14.76 66.5859 15.056 66.8099 15.264C67.0339 15.456 67.4579 15.552 68.0819 15.552C68.9299 15.552 69.5619 15.52 69.9779 15.456C70.0899 15.424 70.1459 15.368 70.1459 15.288V13.272ZM77.5958 0.743999C78.2518 0.743999 78.6998 0.871999 78.9398 1.128C79.1798 1.368 79.2998 1.808 79.2998 2.448V2.688C79.2998 3.328 79.1798 3.776 78.9398 4.032C78.6998 4.272 78.2518 4.392 77.5958 4.392H77.0918C76.4518 4.392 76.0038 4.272 75.7478 4.032C75.5078 3.776 75.3878 3.328 75.3878 2.688V2.448C75.3878 1.808 75.5078 1.368 75.7478 1.128C76.0038 0.871999 76.4518 0.743999 77.0918 0.743999H77.5958ZM78.2438 5.52C78.5958 5.52 78.8358 5.584 78.9638 5.712C79.0918 5.84 79.1558 6.072 79.1558 6.408V18.192C79.1558 21.744 77.2198 23.52 73.3478 23.52C72.9958 23.52 72.7558 23.456 72.6278 23.328C72.4998 23.2 72.4358 22.96 72.4358 22.608V21.12C72.4358 20.784 72.4998 20.552 72.6278 20.424C72.7558 20.296 72.9958 20.232 73.3478 20.232C74.8038 20.232 75.5318 19.496 75.5318 18.024V6.408C75.5318 6.072 75.5958 5.84 75.7238 5.712C75.8518 5.584 76.0918 5.52 76.4438 5.52H78.2438ZM80.7141 10.488C80.7141 8.76 81.2101 7.44 82.2021 6.528C83.1941 5.616 84.6181 5.16 86.4741 5.16C88.3781 5.16 89.8181 5.64 90.7941 6.6C91.7701 7.544 92.2581 8.752 92.2581 10.224V11.688C92.2581 12.488 91.8421 12.888 91.0101 12.888H84.3381V13.488C84.3381 14.752 85.0581 15.384 86.4981 15.384C87.5381 15.384 88.2981 15.064 88.7781 14.424C88.9861 14.136 89.1781 13.968 89.3541 13.92C89.5461 13.872 89.8181 13.936 90.1701 14.112L91.3461 14.712C91.9701 15.032 92.0981 15.504 91.7301 16.128C90.8021 17.616 89.0421 18.36 86.4501 18.36C84.4821 18.36 83.0341 17.88 82.1061 16.92C81.1781 15.944 80.7141 14.648 80.7141 13.032V10.488ZM88.6101 9.888C88.6101 8.656 87.8981 8.04 86.4741 8.04C85.0501 8.04 84.3381 8.656 84.3381 9.888V10.272H88.6101V9.888Z" fill="#A55B0A"/>
</svg>
