<svg width="135" height="49" viewBox="0 0 135 49" fill="none" xmlns="http://www.w3.org/2000/svg">
<path d="M0.41972 8.056C0.41972 6.04 1.03572 4.464 2.26772 3.328C3.51572 2.176 5.25972 1.6 7.49972 1.6C11.0037 1.6 13.2437 2.944 14.2197 5.632C14.4597 6.24 14.2597 6.656 13.6197 6.88L11.7717 7.528C11.4197 7.64 11.1557 7.656 10.9797 7.576C10.8037 7.496 10.6517 7.28 10.5237 6.928C10.0757 5.76 9.06772 5.176 7.49972 5.176C5.38772 5.176 4.33172 6.128 4.33172 8.032V12.928C4.33172 14.832 5.38772 15.784 7.49972 15.784C9.06772 15.784 10.0757 15.2 10.5237 14.032C10.6517 13.68 10.8037 13.464 10.9797 13.384C11.1717 13.288 11.4357 13.304 11.7717 13.432L13.6197 14.08C14.2597 14.304 14.4597 14.72 14.2197 15.328C13.2437 18.016 11.0037 19.36 7.49972 19.36C5.25972 19.36 3.51572 18.792 2.26772 17.656C1.03572 16.504 0.41972 14.92 0.41972 12.904V8.056ZM15.217 11.224C15.217 9.624 15.705 8.384 16.681 7.504C17.657 6.608 19.073 6.16 20.929 6.16C22.801 6.16 24.225 6.608 25.201 7.504C26.177 8.384 26.665 9.624 26.665 11.224V14.32C26.665 15.92 26.177 17.16 25.201 18.04C24.225 18.92 22.801 19.36 20.929 19.36C19.073 19.36 17.657 18.92 16.681 18.04C15.705 17.144 15.217 15.904 15.217 14.32V11.224ZM23.041 11.176C23.041 9.976 22.337 9.376 20.929 9.376C19.537 9.376 18.841 9.976 18.841 11.176V14.344C18.841 15.544 19.537 16.144 20.929 16.144C22.337 16.144 23.041 15.544 23.041 14.344V11.176ZM36.766 6.832C37.934 6.384 39.278 6.16 40.798 6.16C44.094 6.16 45.742 7.816 45.742 11.128V18.112C45.742 18.448 45.678 18.68 45.55 18.808C45.422 18.936 45.19 19 44.854 19H43.006C42.67 19 42.438 18.936 42.31 18.808C42.182 18.68 42.118 18.448 42.118 18.112V11.224C42.118 10.04 41.51 9.448 40.294 9.448C39.75 9.448 39.198 9.528 38.638 9.688C38.734 10.12 38.782 10.608 38.782 11.152V18.112C38.782 18.448 38.718 18.68 38.59 18.808C38.462 18.936 38.23 19 37.894 19H36.046C35.71 19 35.478 18.936 35.35 18.808C35.222 18.68 35.158 18.448 35.158 18.112V11.224C35.158 10.04 34.55 9.448 33.334 9.448C32.902 9.448 32.43 9.512 31.918 9.64C31.854 9.64 31.822 9.688 31.822 9.784V18.112C31.822 18.448 31.758 18.68 31.63 18.808C31.502 18.936 31.27 19 30.934 19H29.086C28.75 19 28.518 18.936 28.39 18.808C28.262 18.68 28.198 18.448 28.198 18.112V8.416C28.198 8.016 28.262 7.728 28.39 7.552C28.518 7.36 28.774 7.184 29.158 7.024C30.55 6.448 32.11 6.16 33.838 6.16C35.022 6.16 35.998 6.384 36.766 6.832ZM48.5062 6.904C49.8022 6.408 51.4262 6.16 53.3782 6.16C55.1382 6.16 56.4502 6.592 57.3142 7.456C58.1782 8.304 58.6102 9.528 58.6102 11.128V14.152C58.6102 15.848 58.1462 17.144 57.2182 18.04C56.2902 18.92 54.9062 19.36 53.0662 19.36C52.5222 19.36 51.8902 19.288 51.1702 19.144V23.392C51.1702 23.728 51.1062 23.96 50.9782 24.088C50.8502 24.216 50.6262 24.28 50.3062 24.28H48.4342C48.0982 24.28 47.8662 24.216 47.7382 24.088C47.6102 23.96 47.5462 23.728 47.5462 23.392V8.296C47.5462 7.896 47.6102 7.608 47.7382 7.432C47.8662 7.24 48.1222 7.064 48.5062 6.904ZM54.9622 11.152C54.9622 9.984 54.2902 9.4 52.9462 9.4C52.4022 9.4 51.8502 9.456 51.2902 9.568C51.2102 9.584 51.1702 9.64 51.1702 9.736V15.976C51.7782 16.072 52.3142 16.12 52.7782 16.12C54.2342 16.12 54.9622 15.464 54.9622 14.152V11.152ZM65.7123 6.16H66.5043C66.8243 6.16 67.0483 6.224 67.1763 6.352C67.3203 6.48 67.3923 6.712 67.3923 7.048V8.536C67.3923 8.856 67.3203 9.08 67.1763 9.208C67.0483 9.336 66.8243 9.4 66.5043 9.4H65.6163C64.9763 9.4 64.4083 9.456 63.9123 9.568C63.8163 9.584 63.7683 9.64 63.7683 9.736V18.112C63.7683 18.448 63.7043 18.68 63.5763 18.808C63.4483 18.936 63.2243 19 62.9043 19H61.0323C60.6963 19 60.4643 18.936 60.3363 18.808C60.2083 18.68 60.1443 18.448 60.1443 18.112V8.296C60.1443 7.896 60.2083 7.608 60.3363 7.432C60.4643 7.24 60.7203 7.064 61.1043 6.904C62.1923 6.472 63.7283 6.224 65.7123 6.16ZM67.7418 11.488C67.7418 9.76 68.2378 8.44 69.2298 7.528C70.2218 6.616 71.6458 6.16 73.5018 6.16C75.4058 6.16 76.8458 6.64 77.8218 7.6C78.7978 8.544 79.2858 9.752 79.2858 11.224V12.688C79.2858 13.488 78.8698 13.888 78.0378 13.888H71.3658V14.488C71.3658 15.752 72.0858 16.384 73.5258 16.384C74.5658 16.384 75.3258 16.064 75.8058 15.424C76.0138 15.136 76.2058 14.968 76.3818 14.92C76.5738 14.872 76.8458 14.936 77.1978 15.112L78.3738 15.712C78.9978 16.032 79.1258 16.504 78.7578 17.128C77.8298 18.616 76.0698 19.36 73.4778 19.36C71.5098 19.36 70.0618 18.88 69.1338 17.92C68.2058 16.944 67.7418 15.648 67.7418 14.032V11.488ZM75.6378 10.888C75.6378 9.656 74.9258 9.04 73.5018 9.04C72.0778 9.04 71.3658 9.656 71.3658 10.888V11.272H75.6378V10.888ZM81.613 7.024C83.005 6.448 84.637 6.16 86.509 6.16C89.965 6.16 91.693 7.816 91.693 11.128V18.112C91.693 18.448 91.629 18.68 91.501 18.808C91.373 18.936 91.149 19 90.829 19H88.957C88.621 19 88.389 18.936 88.261 18.808C88.133 18.68 88.069 18.448 88.069 18.112V11.248C88.069 10.048 87.389 9.448 86.029 9.448C85.405 9.448 84.845 9.52 84.349 9.664C84.301 9.664 84.277 9.696 84.277 9.76V18.112C84.277 18.448 84.213 18.68 84.085 18.808C83.957 18.936 83.725 19 83.389 19H81.541C81.205 19 80.973 18.936 80.845 18.808C80.717 18.68 80.653 18.448 80.653 18.112V8.416C80.653 8.016 80.717 7.728 80.845 7.552C80.973 7.36 81.229 7.184 81.613 7.024ZM93.0535 10.168C93.0535 8.952 93.4935 7.984 94.3735 7.264C95.2695 6.528 96.5495 6.16 98.2135 6.16C100.854 6.16 102.63 7.016 103.542 8.728C103.846 9.304 103.686 9.728 103.062 10L101.646 10.6C101.294 10.728 101.054 10.768 100.926 10.72C100.798 10.672 100.63 10.504 100.422 10.216C99.9895 9.608 99.2935 9.304 98.3335 9.304C97.1495 9.304 96.5575 9.592 96.5575 10.168C96.5575 10.52 96.7255 10.768 97.0615 10.912C97.3975 11.056 98.0055 11.168 98.8855 11.248C100.63 11.424 101.91 11.792 102.726 12.352C103.558 12.896 103.974 13.84 103.974 15.184C103.974 16.448 103.502 17.464 102.558 18.232C101.614 18.984 100.286 19.36 98.5735 19.36C95.6615 19.36 93.8215 18.408 93.0535 16.504C92.8295 15.912 93.0215 15.512 93.6295 15.304L95.0935 14.824C95.3975 14.712 95.6295 14.696 95.7895 14.776C95.9655 14.84 96.1255 15.024 96.2695 15.328C96.5575 15.936 97.2855 16.24 98.4535 16.24C99.8295 16.24 100.518 15.912 100.518 15.256C100.518 14.872 100.342 14.608 99.9895 14.464C99.6375 14.32 98.9655 14.2 97.9735 14.104C97.2535 14.04 96.6295 13.944 96.1015 13.816C95.5895 13.672 95.0855 13.464 94.5895 13.192C94.0935 12.92 93.7095 12.536 93.4375 12.04C93.1815 11.528 93.0535 10.904 93.0535 10.168ZM107.328 1.744C107.968 1.744 108.408 1.872 108.648 2.128C108.904 2.368 109.032 2.808 109.032 3.448V3.688C109.032 4.328 108.904 4.776 108.648 5.032C108.408 5.272 107.968 5.392 107.328 5.392H106.824C106.168 5.392 105.72 5.272 105.48 5.032C105.24 4.776 105.12 4.328 105.12 3.688V3.448C105.12 2.808 105.24 2.368 105.48 2.128C105.72 1.872 106.168 1.744 106.824 1.744H107.328ZM108.024 6.52C108.344 6.52 108.568 6.584 108.696 6.712C108.824 6.84 108.888 7.072 108.888 7.408V18.112C108.888 18.448 108.824 18.68 108.696 18.808C108.568 18.936 108.344 19 108.024 19H106.152C105.816 19 105.584 18.936 105.456 18.808C105.328 18.68 105.264 18.448 105.264 18.112V7.408C105.264 7.072 105.328 6.84 105.456 6.712C105.584 6.584 105.816 6.52 106.152 6.52H108.024ZM116.639 1.408C117.327 1.024 117.855 1.04 118.223 1.456L119.111 2.488C119.255 2.664 119.343 2.808 119.375 2.92C119.423 3.032 119.415 3.136 119.351 3.232C119.303 3.312 119.183 3.384 118.991 3.448L114.791 4.984C114.263 5.176 113.903 5.152 113.711 4.912L113.231 4.336C113.039 4.112 112.943 3.936 112.943 3.808C112.959 3.664 113.071 3.536 113.279 3.424L116.639 1.408ZM110.471 11.224C110.471 9.624 110.959 8.384 111.935 7.504C112.911 6.608 114.327 6.16 116.183 6.16C118.055 6.16 119.479 6.608 120.455 7.504C121.431 8.384 121.919 9.624 121.919 11.224V14.32C121.919 15.92 121.431 17.16 120.455 18.04C119.479 18.92 118.055 19.36 116.183 19.36C114.327 19.36 112.911 18.92 111.935 18.04C110.959 17.144 110.471 15.904 110.471 14.32V11.224ZM118.295 11.176C118.295 9.976 117.591 9.376 116.183 9.376C114.791 9.376 114.095 9.976 114.095 11.176V14.344C114.095 15.544 114.791 16.144 116.183 16.144C117.591 16.144 118.295 15.544 118.295 14.344V11.176ZM124.412 7.024C125.804 6.448 127.436 6.16 129.308 6.16C132.764 6.16 134.492 7.816 134.492 11.128V18.112C134.492 18.448 134.428 18.68 134.3 18.808C134.172 18.936 133.948 19 133.628 19H131.756C131.42 19 131.188 18.936 131.06 18.808C130.932 18.68 130.868 18.448 130.868 18.112V11.248C130.868 10.048 130.188 9.448 128.828 9.448C128.204 9.448 127.644 9.52 127.148 9.664C127.1 9.664 127.076 9.696 127.076 9.76V18.112C127.076 18.448 127.012 18.68 126.884 18.808C126.756 18.936 126.524 19 126.188 19H124.34C124.004 19 123.772 18.936 123.644 18.808C123.516 18.68 123.452 18.448 123.452 18.112V8.416C123.452 8.016 123.516 7.728 123.644 7.552C123.772 7.36 124.028 7.184 124.412 7.024ZM36.1016 47.112C36.1016 47.448 36.0376 47.68 35.9096 47.808C35.7816 47.936 35.5496 48 35.2136 48H33.3416C33.0216 48 32.7976 47.936 32.6696 47.808C32.5416 47.68 32.4776 47.448 32.4776 47.112V31.128C32.4776 30.792 32.5416 30.56 32.6696 30.432C32.7976 30.304 33.0216 30.24 33.3416 30.24H35.2136C35.5496 30.24 35.7816 30.304 35.9096 30.432C36.0376 30.56 36.1016 30.792 36.1016 31.128V47.112ZM37.6822 40.488C37.6822 38.76 38.1782 37.44 39.1702 36.528C40.1622 35.616 41.5862 35.16 43.4422 35.16C45.3462 35.16 46.7862 35.64 47.7622 36.6C48.7383 37.544 49.2263 38.752 49.2263 40.224V41.688C49.2263 42.488 48.8103 42.888 47.9782 42.888H41.3062V43.488C41.3062 44.752 42.0262 45.384 43.4662 45.384C44.5062 45.384 45.2662 45.064 45.7462 44.424C45.9542 44.136 46.1462 43.968 46.3222 43.92C46.5142 43.872 46.7862 43.936 47.1382 44.112L48.3142 44.712C48.9382 45.032 49.0662 45.504 48.6982 46.128C47.7702 47.616 46.0102 48.36 43.4182 48.36C41.4502 48.36 40.0022 47.88 39.0742 46.92C38.1462 45.944 37.6822 44.648 37.6822 43.032V40.488ZM45.5782 39.888C45.5782 38.656 44.8662 38.04 43.4422 38.04C42.0182 38.04 41.3062 38.656 41.3062 39.888V40.272H45.5782V39.888ZM50.2575 40.248C50.2575 38.632 50.7295 37.384 51.6735 36.504C52.6175 35.608 54.0495 35.16 55.9695 35.16C57.3455 35.16 58.4815 35.456 59.3775 36.048C60.2735 36.624 60.8895 37.392 61.2255 38.352C61.3375 38.704 61.3455 38.968 61.2495 39.144C61.1535 39.32 60.9375 39.472 60.6015 39.6L59.0655 40.104C58.7135 40.232 58.4415 40.256 58.2495 40.176C58.0735 40.08 57.9215 39.856 57.7935 39.504C57.4575 38.688 56.8015 38.28 55.8255 38.28C54.5295 38.28 53.8815 38.88 53.8815 40.08V43.44C53.8815 44.64 54.5295 45.24 55.8255 45.24C56.8015 45.24 57.4575 44.832 57.7935 44.016C57.9215 43.68 58.0735 43.472 58.2495 43.392C58.4415 43.312 58.7135 43.328 59.0655 43.44L60.6255 43.92C61.2975 44.128 61.5055 44.552 61.2495 45.192C60.3535 47.304 58.5135 48.36 55.7295 48.36C52.0815 48.36 50.2575 46.664 50.2575 43.272V40.248ZM66.5188 32.64C66.8388 32.64 67.0628 32.704 67.1908 32.832C67.3188 32.96 67.3828 33.192 67.3828 33.528V35.52H69.6148C69.9348 35.52 70.1588 35.584 70.2868 35.712C70.4148 35.84 70.4788 36.072 70.4788 36.408V37.848C70.4788 38.184 70.4148 38.416 70.2868 38.544C70.1588 38.672 69.9348 38.736 69.6148 38.736H67.3828V42.768C67.3828 43.664 67.5428 44.264 67.8628 44.568C68.1828 44.856 68.7588 45 69.5908 45C69.9268 45 70.1588 45.064 70.2868 45.192C70.4148 45.32 70.4788 45.56 70.4788 45.912V47.424C70.4788 47.776 70.4148 48.008 70.2868 48.12C70.1588 48.248 69.9268 48.32 69.5908 48.336C67.4948 48.4 65.9988 48.032 65.1028 47.232C64.2068 46.432 63.7588 44.992 63.7588 42.912V38.736H62.4868C62.1508 38.736 61.9188 38.672 61.7908 38.544C61.6628 38.416 61.5988 38.184 61.5988 37.848V36.408C61.5988 36.072 61.6628 35.84 61.7908 35.712C61.9188 35.584 62.1508 35.52 62.4868 35.52H63.7588V33.528C63.7588 33.192 63.8228 32.96 63.9508 32.832C64.0948 32.704 64.3268 32.64 64.6468 32.64H66.5188ZM71.3756 40.224C71.3756 38.624 71.8636 37.384 72.8396 36.504C73.8156 35.608 75.2316 35.16 77.0876 35.16C78.9596 35.16 80.3836 35.608 81.3596 36.504C82.3356 37.384 82.8236 38.624 82.8236 40.224V43.32C82.8236 44.92 82.3356 46.16 81.3596 47.04C80.3836 47.92 78.9596 48.36 77.0876 48.36C75.2316 48.36 73.8156 47.92 72.8396 47.04C71.8636 46.144 71.3756 44.904 71.3756 43.32V40.224ZM79.1996 40.176C79.1996 38.976 78.4956 38.376 77.0876 38.376C75.6956 38.376 74.9996 38.976 74.9996 40.176V43.344C74.9996 44.544 75.6956 45.144 77.0876 45.144C78.4956 45.144 79.1996 44.544 79.1996 43.344V40.176ZM89.9246 35.16H90.7166C91.0366 35.16 91.2606 35.224 91.3886 35.352C91.5326 35.48 91.6046 35.712 91.6046 36.048V37.536C91.6046 37.856 91.5326 38.08 91.3886 38.208C91.2606 38.336 91.0366 38.4 90.7166 38.4H89.8286C89.1886 38.4 88.6206 38.456 88.1246 38.568C88.0286 38.584 87.9806 38.64 87.9806 38.736V47.112C87.9806 47.448 87.9166 47.68 87.7886 47.808C87.6606 47.936 87.4366 48 87.1166 48H85.2446C84.9086 48 84.6766 47.936 84.5486 47.808C84.4206 47.68 84.3566 47.448 84.3566 47.112V37.296C84.3566 36.896 84.4206 36.608 84.5486 36.432C84.6766 36.24 84.9326 36.064 85.3166 35.904C86.4046 35.472 87.9406 35.224 89.9246 35.16ZM92.2884 37.656C93.1684 35.992 94.8804 35.16 97.4244 35.16C100.992 35.16 102.776 36.848 102.776 40.224V46.32C102.776 46.736 102.712 47.04 102.584 47.232C102.472 47.408 102.24 47.568 101.888 47.712C100.928 48.144 99.4164 48.36 97.3524 48.36C95.2724 48.36 93.8324 48.04 93.0324 47.4C92.2484 46.76 91.8564 45.76 91.8564 44.4C91.8564 42.928 92.2804 41.904 93.1284 41.328C93.9924 40.752 95.4324 40.464 97.4484 40.464C98.0724 40.464 98.6404 40.48 99.1524 40.512V39.984C99.1524 38.8 98.5364 38.208 97.3044 38.208C96.4244 38.208 95.7604 38.504 95.3124 39.096C95.1044 39.368 94.9284 39.536 94.7844 39.6C94.6564 39.648 94.4244 39.608 94.0884 39.48L92.7684 38.928C92.1604 38.672 92.0004 38.248 92.2884 37.656ZM99.1524 43.272C99.0084 43.272 98.6964 43.264 98.2164 43.248C97.7364 43.232 97.3764 43.224 97.1364 43.224C96.4964 43.224 96.0564 43.328 95.8164 43.536C95.5924 43.728 95.4804 44.008 95.4804 44.376C95.4804 44.76 95.5924 45.056 95.8164 45.264C96.0404 45.456 96.4644 45.552 97.0884 45.552C97.9364 45.552 98.5684 45.52 98.9844 45.456C99.0964 45.424 99.1524 45.368 99.1524 45.288V43.272Z" fill="#0A5628"/>
</svg>
