<svg width="108" height="20" viewBox="0 0 108 20" fill="none" xmlns="http://www.w3.org/2000/svg">
<path d="M14.1592 9.376C14.5272 9.376 14.7832 9.448 14.9272 9.592C15.0712 9.736 15.1432 9.992 15.1432 10.36V13.648C15.1432 15.328 14.5112 16.704 13.2472 17.776C11.9992 18.832 10.2632 19.36 8.03925 19.36C5.79925 19.36 4.05525 18.792 2.80725 17.656C1.57525 16.504 0.959248 14.92 0.959248 12.904V8.056C0.959248 6.04 1.57525 4.464 2.80725 3.328C4.05525 2.176 5.79925 1.6 8.03925 1.6C11.5432 1.6 13.7832 2.944 14.7592 5.632C14.9992 6.24 14.7992 6.656 14.1592 6.88L12.3112 7.528C11.9592 7.64 11.6952 7.656 11.5192 7.576C11.3432 7.496 11.1912 7.28 11.0632 6.928C10.6152 5.76 9.60725 5.176 8.03925 5.176C5.92725 5.176 4.87125 6.128 4.87125 8.032V12.928C4.87125 14.832 5.92725 15.784 8.03925 15.784C9.03125 15.784 9.81525 15.592 10.3912 15.208C10.9672 14.808 11.2552 14.304 11.2552 13.696V12.832H8.35125C7.98325 12.832 7.72725 12.76 7.58325 12.616C7.43925 12.472 7.36725 12.216 7.36725 11.848V10.36C7.36725 9.992 7.43925 9.736 7.58325 9.592C7.72725 9.448 7.98325 9.376 8.35125 9.376H14.1592ZM16.3419 11.488C16.3419 9.76 16.8379 8.44 17.8299 7.528C18.8219 6.616 20.2459 6.16 22.1019 6.16C24.0059 6.16 25.4459 6.64 26.4219 7.6C27.3979 8.544 27.8859 9.752 27.8859 11.224V12.688C27.8859 13.488 27.4699 13.888 26.6379 13.888H19.9659V14.488C19.9659 15.752 20.6859 16.384 22.1259 16.384C23.1659 16.384 23.9259 16.064 24.4059 15.424C24.6139 15.136 24.8059 14.968 24.9819 14.92C25.1739 14.872 25.4459 14.936 25.7979 15.112L26.9739 15.712C27.5979 16.032 27.7259 16.504 27.3579 17.128C26.4299 18.616 24.6699 19.36 22.0779 19.36C20.1099 19.36 18.6619 18.88 17.7339 17.92C16.8059 16.944 16.3419 15.648 16.3419 14.032V11.488ZM24.2379 10.888C24.2379 9.656 23.5259 9.04 22.1019 9.04C20.6779 9.04 19.9659 9.656 19.9659 10.888V11.272H24.2379V10.888ZM28.9172 11.224C28.9172 9.624 29.4052 8.384 30.3812 7.504C31.3572 6.608 32.7732 6.16 34.6292 6.16C36.5012 6.16 37.9252 6.608 38.9012 7.504C39.8772 8.384 40.3652 9.624 40.3652 11.224V14.32C40.3652 15.92 39.8772 17.16 38.9012 18.04C37.9252 18.92 36.5012 19.36 34.6292 19.36C32.7732 19.36 31.3572 18.92 30.3812 18.04C29.4052 17.144 28.9172 15.904 28.9172 14.32V11.224ZM36.7412 11.176C36.7412 9.976 36.0372 9.376 34.6292 9.376C33.2372 9.376 32.5412 9.976 32.5412 11.176V14.344C32.5412 15.544 33.2372 16.144 34.6292 16.144C36.0372 16.144 36.7412 15.544 36.7412 14.344V11.176ZM50.4662 6.832C51.6342 6.384 52.9782 6.16 54.4982 6.16C57.7942 6.16 59.4422 7.816 59.4422 11.128V18.112C59.4422 18.448 59.3782 18.68 59.2502 18.808C59.1222 18.936 58.8902 19 58.5542 19H56.7062C56.3702 19 56.1382 18.936 56.0102 18.808C55.8822 18.68 55.8182 18.448 55.8182 18.112V11.224C55.8182 10.04 55.2102 9.448 53.9942 9.448C53.4502 9.448 52.8982 9.528 52.3382 9.688C52.4342 10.12 52.4822 10.608 52.4822 11.152V18.112C52.4822 18.448 52.4182 18.68 52.2902 18.808C52.1622 18.936 51.9302 19 51.5942 19H49.7462C49.4102 19 49.1782 18.936 49.0502 18.808C48.9222 18.68 48.8582 18.448 48.8582 18.112V11.224C48.8582 10.04 48.2502 9.448 47.0342 9.448C46.6022 9.448 46.1302 9.512 45.6182 9.64C45.5542 9.64 45.5222 9.688 45.5222 9.784V18.112C45.5222 18.448 45.4582 18.68 45.3302 18.808C45.2022 18.936 44.9702 19 44.6342 19H42.7862C42.4502 19 42.2182 18.936 42.0902 18.808C41.9622 18.68 41.8982 18.448 41.8982 18.112V8.416C41.8982 8.016 41.9622 7.728 42.0902 7.552C42.2182 7.36 42.4742 7.184 42.8582 7.024C44.2502 6.448 45.8102 6.16 47.5382 6.16C48.7222 6.16 49.6982 6.384 50.4662 6.832ZM60.8863 11.488C60.8863 9.76 61.3823 8.44 62.3743 7.528C63.3663 6.616 64.7903 6.16 66.6463 6.16C68.5503 6.16 69.9903 6.64 70.9663 7.6C71.9423 8.544 72.4303 9.752 72.4303 11.224V12.688C72.4303 13.488 72.0143 13.888 71.1823 13.888H64.5103V14.488C64.5103 15.752 65.2303 16.384 66.6703 16.384C67.7103 16.384 68.4703 16.064 68.9503 15.424C69.1583 15.136 69.3503 14.968 69.5263 14.92C69.7183 14.872 69.9903 14.936 70.3423 15.112L71.5183 15.712C72.1423 16.032 72.2703 16.504 71.9023 17.128C70.9743 18.616 69.2143 19.36 66.6223 19.36C64.6543 19.36 63.2063 18.88 62.2783 17.92C61.3503 16.944 60.8863 15.648 60.8863 14.032V11.488ZM68.7823 10.888C68.7823 9.656 68.0703 9.04 66.6463 9.04C65.2223 9.04 64.5103 9.656 64.5103 10.888V11.272H68.7823V10.888ZM77.7576 3.64C78.0776 3.64 78.3016 3.704 78.4296 3.832C78.5576 3.96 78.6216 4.192 78.6216 4.528V6.52H80.8536C81.1736 6.52 81.3976 6.584 81.5256 6.712C81.6536 6.84 81.7176 7.072 81.7176 7.408V8.848C81.7176 9.184 81.6536 9.416 81.5256 9.544C81.3976 9.672 81.1736 9.736 80.8536 9.736H78.6216V13.768C78.6216 14.664 78.7816 15.264 79.1016 15.568C79.4216 15.856 79.9976 16 80.8296 16C81.1656 16 81.3976 16.064 81.5256 16.192C81.6536 16.32 81.7176 16.56 81.7176 16.912V18.424C81.7176 18.776 81.6536 19.008 81.5256 19.12C81.3976 19.248 81.1656 19.32 80.8296 19.336C78.7336 19.4 77.2376 19.032 76.3416 18.232C75.4456 17.432 74.9976 15.992 74.9976 13.912V9.736H73.7256C73.3896 9.736 73.1576 9.672 73.0296 9.544C72.9016 9.416 72.8376 9.184 72.8376 8.848V7.408C72.8376 7.072 72.9016 6.84 73.0296 6.712C73.1576 6.584 73.3896 6.52 73.7256 6.52H74.9976V4.528C74.9976 4.192 75.0616 3.96 75.1896 3.832C75.3336 3.704 75.5656 3.64 75.8856 3.64H77.7576ZM88.5184 6.16H89.3104C89.6304 6.16 89.8544 6.224 89.9824 6.352C90.1264 6.48 90.1984 6.712 90.1984 7.048V8.536C90.1984 8.856 90.1264 9.08 89.9824 9.208C89.8544 9.336 89.6304 9.4 89.3104 9.4H88.4224C87.7824 9.4 87.2144 9.456 86.7184 9.568C86.6224 9.584 86.5744 9.64 86.5744 9.736V18.112C86.5744 18.448 86.5104 18.68 86.3824 18.808C86.2544 18.936 86.0304 19 85.7104 19H83.8384C83.5024 19 83.2704 18.936 83.1424 18.808C83.0144 18.68 82.9504 18.448 82.9504 18.112V8.296C82.9504 7.896 83.0144 7.608 83.1424 7.432C83.2704 7.24 83.5264 7.064 83.9104 6.904C84.9984 6.472 86.5344 6.224 88.5184 6.16ZM93.0879 1.408C93.7439 0.959999 94.2719 0.967999 94.6719 1.432L95.5839 2.44C95.8079 2.68 95.9119 2.872 95.8959 3.016C95.8959 3.16 95.7599 3.288 95.4879 3.4L91.6959 4.984C91.1839 5.224 90.8239 5.216 90.6159 4.96L90.1119 4.384C89.9359 4.16 89.8479 3.984 89.8479 3.856C89.8479 3.728 89.9519 3.6 90.1599 3.472L93.0879 1.408ZM93.8559 6.52C94.1759 6.52 94.3999 6.584 94.5279 6.712C94.6559 6.84 94.7199 7.072 94.7199 7.408V18.112C94.7199 18.448 94.6559 18.68 94.5279 18.808C94.3999 18.936 94.1759 19 93.8559 19H91.9839C91.6479 19 91.4159 18.936 91.2879 18.808C91.1599 18.68 91.0959 18.448 91.0959 18.112V7.408C91.0959 7.072 91.1599 6.84 91.2879 6.712C91.4159 6.584 91.6479 6.52 91.9839 6.52H93.8559ZM96.5428 8.656C97.4228 6.992 99.1348 6.16 101.679 6.16C105.247 6.16 107.031 7.848 107.031 11.224V17.32C107.031 17.736 106.967 18.04 106.839 18.232C106.727 18.408 106.495 18.568 106.143 18.712C105.183 19.144 103.671 19.36 101.607 19.36C99.5268 19.36 98.0868 19.04 97.2868 18.4C96.5028 17.76 96.1108 16.76 96.1108 15.4C96.1108 13.928 96.5348 12.904 97.3828 12.328C98.2468 11.752 99.6868 11.464 101.703 11.464C102.327 11.464 102.895 11.48 103.407 11.512V10.984C103.407 9.8 102.791 9.208 101.559 9.208C100.679 9.208 100.015 9.504 99.5668 10.096C99.3588 10.368 99.1828 10.536 99.0388 10.6C98.9108 10.648 98.6788 10.608 98.3428 10.48L97.0228 9.928C96.4148 9.672 96.2548 9.248 96.5428 8.656ZM103.407 14.272C103.263 14.272 102.951 14.264 102.471 14.248C101.991 14.232 101.631 14.224 101.391 14.224C100.751 14.224 100.311 14.328 100.071 14.536C99.8468 14.728 99.7348 15.008 99.7348 15.376C99.7348 15.76 99.8468 16.056 100.071 16.264C100.295 16.456 100.719 16.552 101.343 16.552C102.191 16.552 102.823 16.52 103.239 16.456C103.351 16.424 103.407 16.368 103.407 16.288V14.272Z" fill="#841834"/>
</svg>
