<svg width="112" height="20" viewBox="0 0 112 20" fill="none" xmlns="http://www.w3.org/2000/svg">
<path d="M17.0037 18.04C17.2437 18.68 17.0277 19 16.3557 19H14.5557C13.9637 19 13.5477 18.944 13.3077 18.832C13.0677 18.704 12.8917 18.464 12.7797 18.112L12.0357 15.856H6.10772L5.33972 18.112C5.21172 18.464 5.03572 18.704 4.81172 18.832C4.58772 18.944 4.17972 19 3.58772 19H1.93172C1.25972 19 1.04372 18.68 1.28372 18.04L7.01972 2.776C7.13172 2.456 7.26772 2.24 7.42772 2.128C7.60372 2.016 7.86772 1.96 8.21972 1.96H10.0677C10.4197 1.96 10.6757 2.016 10.8357 2.128C11.0117 2.224 11.1557 2.424 11.2677 2.728L17.0037 18.04ZM9.77972 8.968C9.61972 8.456 9.48372 7.912 9.37172 7.336C9.27572 6.76 9.21972 6.312 9.20372 5.992L9.17972 5.536H8.93972C8.95572 6.672 8.77172 7.808 8.38772 8.944L7.13972 12.688H11.0277L9.77972 8.968ZM23.7207 6.16H24.5127C24.8327 6.16 25.0567 6.224 25.1847 6.352C25.3287 6.48 25.4007 6.712 25.4007 7.048V8.536C25.4007 8.856 25.3287 9.08 25.1847 9.208C25.0567 9.336 24.8327 9.4 24.5127 9.4H23.6247C22.9847 9.4 22.4167 9.456 21.9207 9.568C21.8247 9.584 21.7767 9.64 21.7767 9.736V18.112C21.7767 18.448 21.7127 18.68 21.5847 18.808C21.4567 18.936 21.2327 19 20.9127 19H19.0407C18.7047 19 18.4727 18.936 18.3447 18.808C18.2167 18.68 18.1527 18.448 18.1527 18.112V8.296C18.1527 7.896 18.2167 7.608 18.3447 7.432C18.4727 7.24 18.7287 7.064 19.1127 6.904C20.2007 6.472 21.7367 6.224 23.7207 6.16ZM28.6023 1.744C29.2423 1.744 29.6823 1.872 29.9223 2.128C30.1783 2.368 30.3063 2.808 30.3063 3.448V3.688C30.3063 4.328 30.1783 4.776 29.9223 5.032C29.6823 5.272 29.2423 5.392 28.6023 5.392H28.0983C27.4423 5.392 26.9943 5.272 26.7543 5.032C26.5143 4.776 26.3943 4.328 26.3943 3.688V3.448C26.3943 2.808 26.5143 2.368 26.7543 2.128C26.9943 1.872 27.4423 1.744 28.0983 1.744H28.6023ZM29.2983 6.52C29.6183 6.52 29.8423 6.584 29.9703 6.712C30.0983 6.84 30.1623 7.072 30.1623 7.408V18.112C30.1623 18.448 30.0983 18.68 29.9703 18.808C29.8423 18.936 29.6183 19 29.2983 19H27.4263C27.0903 19 26.8583 18.936 26.7303 18.808C26.6023 18.68 26.5383 18.448 26.5383 18.112V7.408C26.5383 7.072 26.6023 6.84 26.7303 6.712C26.8583 6.584 27.0903 6.52 27.4263 6.52H29.2983ZM36.2812 3.64C36.6012 3.64 36.8252 3.704 36.9532 3.832C37.0812 3.96 37.1452 4.192 37.1452 4.528V6.52H39.3772C39.6972 6.52 39.9212 6.584 40.0492 6.712C40.1772 6.84 40.2412 7.072 40.2412 7.408V8.848C40.2412 9.184 40.1772 9.416 40.0492 9.544C39.9212 9.672 39.6972 9.736 39.3772 9.736H37.1452V13.768C37.1452 14.664 37.3052 15.264 37.6252 15.568C37.9452 15.856 38.5212 16 39.3532 16C39.6892 16 39.9212 16.064 40.0492 16.192C40.1772 16.32 40.2412 16.56 40.2412 16.912V18.424C40.2412 18.776 40.1772 19.008 40.0492 19.12C39.9212 19.248 39.6892 19.32 39.3532 19.336C37.2572 19.4 35.7612 19.032 34.8652 18.232C33.9692 17.432 33.5212 15.992 33.5212 13.912V9.736H32.2492C31.9132 9.736 31.6812 9.672 31.5532 9.544C31.4252 9.416 31.3612 9.184 31.3612 8.848V7.408C31.3612 7.072 31.4252 6.84 31.5532 6.712C31.6812 6.584 31.9132 6.52 32.2492 6.52H33.5212V4.528C33.5212 4.192 33.5852 3.96 33.7132 3.832C33.8572 3.704 34.0892 3.64 34.4092 3.64H36.2812ZM50.282 6.832C51.45 6.384 52.794 6.16 54.314 6.16C57.61 6.16 59.258 7.816 59.258 11.128V18.112C59.258 18.448 59.194 18.68 59.066 18.808C58.938 18.936 58.706 19 58.37 19H56.522C56.186 19 55.954 18.936 55.826 18.808C55.698 18.68 55.634 18.448 55.634 18.112V11.224C55.634 10.04 55.026 9.448 53.81 9.448C53.266 9.448 52.714 9.528 52.154 9.688C52.25 10.12 52.298 10.608 52.298 11.152V18.112C52.298 18.448 52.234 18.68 52.106 18.808C51.978 18.936 51.746 19 51.41 19H49.562C49.226 19 48.994 18.936 48.866 18.808C48.738 18.68 48.674 18.448 48.674 18.112V11.224C48.674 10.04 48.066 9.448 46.85 9.448C46.418 9.448 45.946 9.512 45.434 9.64C45.37 9.64 45.338 9.688 45.338 9.784V18.112C45.338 18.448 45.274 18.68 45.146 18.808C45.018 18.936 44.786 19 44.45 19H42.602C42.266 19 42.034 18.936 41.906 18.808C41.778 18.68 41.714 18.448 41.714 18.112V8.416C41.714 8.016 41.778 7.728 41.906 7.552C42.034 7.36 42.29 7.184 42.674 7.024C44.066 6.448 45.626 6.16 47.354 6.16C48.538 6.16 49.514 6.384 50.282 6.832ZM67.1821 1.408C67.8541 1.024 68.3821 1.04 68.7661 1.456L69.6301 2.488C69.7741 2.664 69.8701 2.808 69.9181 2.92C69.9661 3.032 69.9581 3.136 69.8941 3.232C69.8301 3.312 69.7021 3.384 69.5101 3.448L65.3101 4.984C64.7821 5.176 64.4221 5.152 64.2301 4.912L63.7501 4.336C63.5581 4.112 63.4621 3.936 63.4621 3.808C63.4781 3.664 63.5901 3.536 63.7981 3.424L67.1821 1.408ZM60.9421 11.488C60.9421 9.76 61.4381 8.44 62.4301 7.528C63.4221 6.616 64.8461 6.16 66.7021 6.16C68.6061 6.16 70.0461 6.64 71.0221 7.6C71.9981 8.544 72.4861 9.752 72.4861 11.224V12.688C72.4861 13.488 72.0701 13.888 71.2381 13.888H64.5661V14.488C64.5661 15.752 65.2861 16.384 66.7261 16.384C67.7661 16.384 68.5261 16.064 69.0061 15.424C69.2141 15.136 69.4061 14.968 69.5821 14.92C69.7741 14.872 70.0461 14.936 70.3981 15.112L71.5741 15.712C72.1981 16.032 72.3261 16.504 71.9581 17.128C71.0301 18.616 69.2701 19.36 66.6781 19.36C64.7101 19.36 63.2621 18.88 62.3341 17.92C61.4061 16.944 60.9421 15.648 60.9421 14.032V11.488ZM68.8381 10.888C68.8381 9.656 68.1261 9.04 66.7021 9.04C65.2781 9.04 64.5661 9.656 64.5661 10.888V11.272H68.8381V10.888ZM78.0533 3.64C78.3733 3.64 78.5973 3.704 78.7253 3.832C78.8533 3.96 78.9173 4.192 78.9173 4.528V6.52H81.1493C81.4693 6.52 81.6933 6.584 81.8213 6.712C81.9493 6.84 82.0133 7.072 82.0133 7.408V8.848C82.0133 9.184 81.9493 9.416 81.8213 9.544C81.6933 9.672 81.4693 9.736 81.1493 9.736H78.9173V13.768C78.9173 14.664 79.0773 15.264 79.3973 15.568C79.7173 15.856 80.2933 16 81.1253 16C81.4613 16 81.6933 16.064 81.8213 16.192C81.9493 16.32 82.0133 16.56 82.0133 16.912V18.424C82.0133 18.776 81.9493 19.008 81.8213 19.12C81.6933 19.248 81.4613 19.32 81.1253 19.336C79.0293 19.4 77.5333 19.032 76.6373 18.232C75.7413 17.432 75.2933 15.992 75.2933 13.912V9.736H74.0213C73.6853 9.736 73.4533 9.672 73.3253 9.544C73.1973 9.416 73.1333 9.184 73.1333 8.848V7.408C73.1333 7.072 73.1973 6.84 73.3253 6.712C73.4533 6.584 73.6853 6.52 74.0213 6.52H75.2933V4.528C75.2933 4.192 75.3573 3.96 75.4853 3.832C75.6293 3.704 75.8613 3.64 76.1813 3.64H78.0533ZM85.5742 1.744C86.2142 1.744 86.6542 1.872 86.8942 2.128C87.1502 2.368 87.2782 2.808 87.2782 3.448V3.688C87.2782 4.328 87.1502 4.776 86.8942 5.032C86.6542 5.272 86.2142 5.392 85.5742 5.392H85.0702C84.4142 5.392 83.9662 5.272 83.7262 5.032C83.4862 4.776 83.3662 4.328 83.3662 3.688V3.448C83.3662 2.808 83.4862 2.368 83.7262 2.128C83.9662 1.872 84.4142 1.744 85.0702 1.744H85.5742ZM86.2702 6.52C86.5902 6.52 86.8142 6.584 86.9422 6.712C87.0702 6.84 87.1342 7.072 87.1342 7.408V18.112C87.1342 18.448 87.0702 18.68 86.9422 18.808C86.8142 18.936 86.5902 19 86.2702 19H84.3982C84.0622 19 83.8302 18.936 83.7022 18.808C83.5742 18.68 83.5102 18.448 83.5102 18.112V7.408C83.5102 7.072 83.5742 6.84 83.7022 6.712C83.8302 6.584 84.0622 6.52 84.3982 6.52H86.2702ZM88.957 11.248C88.957 9.632 89.429 8.384 90.373 7.504C91.317 6.608 92.749 6.16 94.669 6.16C96.045 6.16 97.181 6.456 98.077 7.048C98.973 7.624 99.589 8.392 99.925 9.352C100.037 9.704 100.045 9.968 99.949 10.144C99.853 10.32 99.637 10.472 99.301 10.6L97.765 11.104C97.413 11.232 97.141 11.256 96.949 11.176C96.773 11.08 96.621 10.856 96.493 10.504C96.157 9.688 95.501 9.28 94.525 9.28C93.229 9.28 92.581 9.88 92.581 11.08V14.44C92.581 15.64 93.229 16.24 94.525 16.24C95.501 16.24 96.157 15.832 96.493 15.016C96.621 14.68 96.773 14.472 96.949 14.392C97.141 14.312 97.413 14.328 97.765 14.44L99.325 14.92C99.997 15.128 100.205 15.552 99.949 16.192C99.053 18.304 97.213 19.36 94.429 19.36C90.781 19.36 88.957 17.664 88.957 14.272V11.248ZM101.402 8.656C102.282 6.992 103.994 6.16 106.538 6.16C110.106 6.16 111.89 7.848 111.89 11.224V17.32C111.89 17.736 111.826 18.04 111.698 18.232C111.586 18.408 111.354 18.568 111.002 18.712C110.042 19.144 108.53 19.36 106.466 19.36C104.386 19.36 102.946 19.04 102.146 18.4C101.362 17.76 100.97 16.76 100.97 15.4C100.97 13.928 101.394 12.904 102.242 12.328C103.106 11.752 104.546 11.464 106.562 11.464C107.186 11.464 107.754 11.48 108.266 11.512V10.984C108.266 9.8 107.65 9.208 106.418 9.208C105.538 9.208 104.874 9.504 104.426 10.096C104.218 10.368 104.042 10.536 103.898 10.6C103.77 10.648 103.538 10.608 103.202 10.48L101.882 9.928C101.274 9.672 101.114 9.248 101.402 8.656ZM108.266 14.272C108.122 14.272 107.81 14.264 107.33 14.248C106.85 14.232 106.49 14.224 106.25 14.224C105.61 14.224 105.17 14.328 104.93 14.536C104.706 14.728 104.594 15.008 104.594 15.376C104.594 15.76 104.706 16.056 104.93 16.264C105.154 16.456 105.578 16.552 106.202 16.552C107.05 16.552 107.682 16.52 108.098 16.456C108.21 16.424 108.266 16.368 108.266 16.288V14.272Z" fill="#318F3D"/>
</svg>
