<svg width="79" height="29" viewBox="0 0 79 29" fill="none" xmlns="http://www.w3.org/2000/svg">
<path d="M8.69828 1.184C9.38628 0.799999 9.91428 0.823999 10.2823 1.256L11.1703 2.288C11.3783 2.544 11.4743 2.744 11.4583 2.888C11.4583 3.016 11.3223 3.136 11.0503 3.248L6.82628 4.736C6.28228 4.928 5.92228 4.912 5.74628 4.688L5.26628 4.088C5.09028 3.864 5.00228 3.688 5.00228 3.56C5.00228 3.416 5.10628 3.288 5.31428 3.176L8.69828 1.184ZM16.0903 22.04C16.3303 22.68 16.1143 23 15.4423 23H13.6423C13.0503 23 12.6343 22.944 12.3943 22.832C12.1543 22.704 11.9783 22.464 11.8663 22.112L11.1223 19.856H5.19428L4.42628 22.112C4.29828 22.464 4.12228 22.704 3.89828 22.832C3.67428 22.944 3.26628 23 2.67428 23H1.01828C0.34628 23 0.13028 22.68 0.37028 22.04L6.10628 6.776C6.21828 6.456 6.35428 6.24 6.51428 6.128C6.69028 6.016 6.95428 5.96 7.30628 5.96H9.15428C9.50628 5.96 9.76228 6.016 9.92228 6.128C10.0983 6.224 10.2423 6.424 10.3543 6.728L16.0903 22.04ZM8.86628 12.968C8.70628 12.456 8.57028 11.912 8.45828 11.336C8.36228 10.76 8.30628 10.312 8.29028 9.992L8.26628 9.536H8.02628C8.04228 10.672 7.85828 11.808 7.47428 12.944L6.22628 16.688H10.1143L8.86628 12.968ZM20.7193 22.112C20.7193 22.448 20.6553 22.68 20.5273 22.808C20.3993 22.936 20.1673 23 19.8313 23H17.9593C17.6393 23 17.4153 22.936 17.2873 22.808C17.1593 22.68 17.0953 22.448 17.0953 22.112V6.128C17.0953 5.792 17.1593 5.56 17.2873 5.432C17.4153 5.304 17.6393 5.24 17.9593 5.24H19.8313C20.1673 5.24 20.3993 5.304 20.5273 5.432C20.6553 5.56 20.7193 5.792 20.7193 6.128V22.112ZM22.3239 15.368C22.3239 11.896 24.1959 10.16 27.9399 10.16C29.8759 10.16 31.3879 10.424 32.4759 10.952C32.8599 11.128 33.0999 11.296 33.1959 11.456C33.3079 11.616 33.3639 11.896 33.3639 12.296V23.192C33.3639 24.856 32.9159 26.16 32.0199 27.104C31.1399 28.048 29.7639 28.52 27.8919 28.52C25.4119 28.52 23.6919 27.776 22.7319 26.288C22.3479 25.664 22.4759 25.192 23.1159 24.872L24.4599 24.176C24.7959 24 25.0599 23.936 25.2519 23.984C25.4439 24.032 25.6439 24.2 25.8519 24.488C26.2839 25.096 26.9399 25.4 27.8199 25.4C29.0999 25.4 29.7399 24.752 29.7399 23.456V22.424C28.9879 22.584 28.2439 22.664 27.5079 22.664C24.0519 22.664 22.3239 21.008 22.3239 17.696V15.368ZM29.6439 13.568C29.1319 13.456 28.6279 13.4 28.1319 13.4C26.6759 13.4 25.9479 14.056 25.9479 15.368V17.672C25.9479 18.232 26.1239 18.664 26.4759 18.968C26.8279 19.272 27.3239 19.424 27.9639 19.424C28.5559 19.424 29.1479 19.368 29.7399 19.256V13.712C29.7399 13.632 29.7079 13.584 29.6439 13.568ZM34.8746 15.488C34.8746 13.76 35.3706 12.44 36.3626 11.528C37.3546 10.616 38.7786 10.16 40.6346 10.16C42.5386 10.16 43.9786 10.64 44.9546 11.6C45.9306 12.544 46.4186 13.752 46.4186 15.224V16.688C46.4186 17.488 46.0026 17.888 45.1706 17.888H38.4986V18.488C38.4986 19.752 39.2186 20.384 40.6586 20.384C41.6986 20.384 42.4586 20.064 42.9386 19.424C43.1466 19.136 43.3386 18.968 43.5146 18.92C43.7066 18.872 43.9786 18.936 44.3306 19.112L45.5066 19.712C46.1306 20.032 46.2586 20.504 45.8906 21.128C44.9626 22.616 43.2026 23.36 40.6106 23.36C38.6426 23.36 37.1946 22.88 36.2666 21.92C35.3386 20.944 34.8746 19.648 34.8746 18.032V15.488ZM42.7706 14.888C42.7706 13.656 42.0586 13.04 40.6346 13.04C39.2106 13.04 38.4986 13.656 38.4986 14.888V15.272H42.7706V14.888ZM50.5458 5.24C50.8658 5.24 51.0898 5.304 51.2178 5.432C51.3458 5.56 51.4098 5.792 51.4098 6.128V10.4C52.1618 10.24 52.9138 10.16 53.6658 10.16C55.3938 10.16 56.6898 10.592 57.5538 11.456C58.4178 12.304 58.8498 13.528 58.8498 15.128V18.128C58.8498 21.616 56.9698 23.36 53.2098 23.36C51.3378 23.36 49.8258 23.096 48.6738 22.568C48.2898 22.376 48.0418 22.2 47.9298 22.04C47.8338 21.88 47.7858 21.608 47.7858 21.224V6.128C47.7858 5.792 47.8498 5.56 47.9778 5.432C48.1058 5.304 48.3378 5.24 48.6738 5.24H50.5458ZM55.2018 15.152C55.2018 13.984 54.5298 13.4 53.1858 13.4C52.5938 13.4 52.0018 13.488 51.4098 13.664V19.808C51.4098 19.872 51.4338 19.912 51.4818 19.928C51.8818 20.056 52.3938 20.12 53.0178 20.12C54.4738 20.12 55.2018 19.456 55.2018 18.128V15.152ZM65.952 10.16H66.744C67.064 10.16 67.288 10.224 67.416 10.352C67.56 10.48 67.632 10.712 67.632 11.048V12.536C67.632 12.856 67.56 13.08 67.416 13.208C67.288 13.336 67.064 13.4 66.744 13.4H65.856C65.216 13.4 64.648 13.456 64.152 13.568C64.056 13.584 64.008 13.64 64.008 13.736V22.112C64.008 22.448 63.944 22.68 63.816 22.808C63.688 22.936 63.464 23 63.144 23H61.272C60.936 23 60.704 22.936 60.576 22.808C60.448 22.68 60.384 22.448 60.384 22.112V12.296C60.384 11.896 60.448 11.608 60.576 11.432C60.704 11.24 60.96 11.064 61.344 10.904C62.432 10.472 63.968 10.224 65.952 10.16ZM68.3158 12.656C69.1958 10.992 70.9078 10.16 73.4518 10.16C77.0198 10.16 78.8038 11.848 78.8038 15.224V21.32C78.8038 21.736 78.7398 22.04 78.6118 22.232C78.4998 22.408 78.2678 22.568 77.9158 22.712C76.9558 23.144 75.4438 23.36 73.3798 23.36C71.2998 23.36 69.8598 23.04 69.0598 22.4C68.2758 21.76 67.8838 20.76 67.8838 19.4C67.8838 17.928 68.3078 16.904 69.1558 16.328C70.0198 15.752 71.4598 15.464 73.4758 15.464C74.0998 15.464 74.6678 15.48 75.1798 15.512V14.984C75.1798 13.8 74.5638 13.208 73.3318 13.208C72.4518 13.208 71.7878 13.504 71.3398 14.096C71.1318 14.368 70.9558 14.536 70.8118 14.6C70.6838 14.648 70.4518 14.608 70.1158 14.48L68.7958 13.928C68.1878 13.672 68.0278 13.248 68.3158 12.656ZM75.1798 18.272C75.0358 18.272 74.7238 18.264 74.2438 18.248C73.7638 18.232 73.4038 18.224 73.1638 18.224C72.5238 18.224 72.0838 18.328 71.8438 18.536C71.6198 18.728 71.5078 19.008 71.5078 19.376C71.5078 19.76 71.6198 20.056 71.8438 20.264C72.0678 20.456 72.4918 20.552 73.1158 20.552C73.9638 20.552 74.5958 20.52 75.0118 20.456C75.1238 20.424 75.1798 20.368 75.1798 20.288V18.272Z" fill="#004A92"/>
</svg>
