<svg width="82" height="22" viewBox="0 0 82 22" fill="none" xmlns="http://www.w3.org/2000/svg">
<path d="M14.4881 18.4C14.7281 18.672 14.8401 18.904 14.8241 19.096C14.8081 19.304 14.6561 19.536 14.3681 19.792L13.1201 20.8C12.8481 21.04 12.6081 21.152 12.4001 21.136C12.1921 21.12 11.9761 20.968 11.7521 20.68L10.2401 18.904C9.39206 19.208 8.37606 19.36 7.19206 19.36C4.95206 19.36 3.20806 18.792 1.96006 17.656C0.728061 16.504 0.112061 14.92 0.112061 12.904V8.056C0.112061 6.04 0.728061 4.464 1.96006 3.328C3.20806 2.176 4.95206 1.6 7.19206 1.6C9.44806 1.6 11.1921 2.176 12.4241 3.328C13.6721 4.464 14.2961 6.04 14.2961 8.056V12.904C14.2961 14.472 13.9201 15.776 13.1681 16.816L14.4881 18.4ZM4.02406 12.976C4.02406 13.904 4.29606 14.608 4.84006 15.088C5.38406 15.552 6.16806 15.784 7.19206 15.784C9.32006 15.784 10.3841 14.848 10.3841 12.976V7.984C10.3841 6.112 9.32006 5.176 7.19206 5.176C6.16806 5.176 5.38406 5.416 4.84006 5.896C4.29606 6.36 4.02406 7.056 4.02406 7.984V12.976ZM26.3103 6.52C26.6303 6.52 26.8543 6.584 26.9823 6.712C27.1103 6.84 27.1743 7.072 27.1743 7.408V17.104C27.1743 17.504 27.1103 17.8 26.9823 17.992C26.8703 18.168 26.6223 18.336 26.2383 18.496C24.8143 19.072 23.1743 19.36 21.3183 19.36C17.8623 19.36 16.1343 17.704 16.1343 14.392V7.408C16.1343 7.072 16.1983 6.84 16.3263 6.712C16.4543 6.584 16.6863 6.52 17.0223 6.52H18.8703C19.2063 6.52 19.4383 6.584 19.5663 6.712C19.6943 6.84 19.7583 7.072 19.7583 7.408V14.272C19.7583 15.472 20.4383 16.072 21.7983 16.072C22.3583 16.072 22.8863 16.016 23.3823 15.904C23.4943 15.856 23.5503 15.768 23.5503 15.64V7.408C23.5503 7.072 23.6143 6.84 23.7423 6.712C23.8703 6.584 24.1023 6.52 24.4383 6.52H26.3103ZM31.0548 1.408C31.7108 0.959999 32.2388 0.967999 32.6388 1.432L33.5508 2.44C33.7748 2.68 33.8788 2.872 33.8628 3.016C33.8628 3.16 33.7268 3.288 33.4548 3.4L29.6628 4.984C29.1508 5.224 28.7908 5.216 28.5828 4.96L28.0788 4.384C27.9028 4.16 27.8148 3.984 27.8148 3.856C27.8148 3.728 27.9188 3.6 28.1268 3.472L31.0548 1.408ZM31.8228 6.52C32.1428 6.52 32.3668 6.584 32.4948 6.712C32.6228 6.84 32.6868 7.072 32.6868 7.408V18.112C32.6868 18.448 32.6228 18.68 32.4948 18.808C32.3668 18.936 32.1428 19 31.8228 19H29.9508C29.6148 19 29.3828 18.936 29.2548 18.808C29.1268 18.68 29.0628 18.448 29.0628 18.112V7.408C29.0628 7.072 29.1268 6.84 29.2548 6.712C29.3828 6.584 29.6148 6.52 29.9508 6.52H31.8228ZM43.1737 6.832C44.3417 6.384 45.6857 6.16 47.2057 6.16C50.5017 6.16 52.1497 7.816 52.1497 11.128V18.112C52.1497 18.448 52.0857 18.68 51.9577 18.808C51.8297 18.936 51.5977 19 51.2617 19H49.4137C49.0777 19 48.8457 18.936 48.7177 18.808C48.5897 18.68 48.5257 18.448 48.5257 18.112V11.224C48.5257 10.04 47.9177 9.448 46.7017 9.448C46.1577 9.448 45.6057 9.528 45.0457 9.688C45.1417 10.12 45.1897 10.608 45.1897 11.152V18.112C45.1897 18.448 45.1257 18.68 44.9977 18.808C44.8697 18.936 44.6377 19 44.3017 19H42.4537C42.1177 19 41.8857 18.936 41.7577 18.808C41.6297 18.68 41.5657 18.448 41.5657 18.112V11.224C41.5657 10.04 40.9577 9.448 39.7417 9.448C39.3097 9.448 38.8377 9.512 38.3257 9.64C38.2617 9.64 38.2297 9.688 38.2297 9.784V18.112C38.2297 18.448 38.1657 18.68 38.0377 18.808C37.9097 18.936 37.6777 19 37.3417 19H35.4937C35.1577 19 34.9257 18.936 34.7977 18.808C34.6697 18.68 34.6057 18.448 34.6057 18.112V8.416C34.6057 8.016 34.6697 7.728 34.7977 7.552C34.9257 7.36 35.1817 7.184 35.5657 7.024C36.9577 6.448 38.5177 6.16 40.2457 6.16C41.4297 6.16 42.4057 6.384 43.1737 6.832ZM56.0418 1.744C56.6818 1.744 57.1218 1.872 57.3618 2.128C57.6178 2.368 57.7458 2.808 57.7458 3.448V3.688C57.7458 4.328 57.6178 4.776 57.3618 5.032C57.1218 5.272 56.6818 5.392 56.0418 5.392H55.5378C54.8818 5.392 54.4338 5.272 54.1938 5.032C53.9538 4.776 53.8338 4.328 53.8338 3.688V3.448C53.8338 2.808 53.9538 2.368 54.1938 2.128C54.4338 1.872 54.8818 1.744 55.5378 1.744H56.0418ZM56.7378 6.52C57.0578 6.52 57.2818 6.584 57.4098 6.712C57.5378 6.84 57.6018 7.072 57.6018 7.408V18.112C57.6018 18.448 57.5378 18.68 57.4098 18.808C57.2818 18.936 57.0578 19 56.7378 19H54.8658C54.5298 19 54.2978 18.936 54.1698 18.808C54.0418 18.68 53.9778 18.448 53.9778 18.112V7.408C53.9778 7.072 54.0418 6.84 54.1698 6.712C54.2978 6.584 54.5298 6.52 54.8658 6.52H56.7378ZM59.1847 11.248C59.1847 9.632 59.6567 8.384 60.6007 7.504C61.5447 6.608 62.9767 6.16 64.8967 6.16C66.2727 6.16 67.4087 6.456 68.3047 7.048C69.2007 7.624 69.8167 8.392 70.1527 9.352C70.2647 9.704 70.2727 9.968 70.1767 10.144C70.0807 10.32 69.8647 10.472 69.5287 10.6L67.9927 11.104C67.6407 11.232 67.3687 11.256 67.1767 11.176C67.0007 11.08 66.8487 10.856 66.7207 10.504C66.3847 9.688 65.7287 9.28 64.7527 9.28C63.4567 9.28 62.8087 9.88 62.8087 11.08V14.44C62.8087 15.64 63.4567 16.24 64.7527 16.24C65.7287 16.24 66.3847 15.832 66.7207 15.016C66.8487 14.68 67.0007 14.472 67.1767 14.392C67.3687 14.312 67.6407 14.328 67.9927 14.44L69.5527 14.92C70.2247 15.128 70.4327 15.552 70.1767 16.192C69.2807 18.304 67.4407 19.36 64.6567 19.36C61.0087 19.36 59.1847 17.664 59.1847 14.272V11.248ZM71.39 8.656C72.27 6.992 73.982 6.16 76.526 6.16C80.094 6.16 81.878 7.848 81.878 11.224V17.32C81.878 17.736 81.814 18.04 81.686 18.232C81.574 18.408 81.342 18.568 80.99 18.712C80.03 19.144 78.518 19.36 76.454 19.36C74.374 19.36 72.934 19.04 72.134 18.4C71.35 17.76 70.958 16.76 70.958 15.4C70.958 13.928 71.382 12.904 72.23 12.328C73.094 11.752 74.534 11.464 76.55 11.464C77.174 11.464 77.742 11.48 78.254 11.512V10.984C78.254 9.8 77.638 9.208 76.406 9.208C75.526 9.208 74.862 9.504 74.414 10.096C74.206 10.368 74.03 10.536 73.886 10.6C73.758 10.648 73.526 10.608 73.19 10.48L71.87 9.928C71.262 9.672 71.102 9.248 71.39 8.656ZM78.254 14.272C78.11 14.272 77.798 14.264 77.318 14.248C76.838 14.232 76.478 14.224 76.238 14.224C75.598 14.224 75.158 14.328 74.918 14.536C74.694 14.728 74.582 15.008 74.582 15.376C74.582 15.76 74.694 16.056 74.918 16.264C75.142 16.456 75.566 16.552 76.19 16.552C77.038 16.552 77.67 16.52 78.086 16.456C78.198 16.424 78.254 16.368 78.254 16.288V14.272Z" fill="#7F0D41"/>
</svg>
