<svg width="102" height="48" viewBox="0 0 102 48" fill="none" xmlns="http://www.w3.org/2000/svg">
<path d="M21.5559 0.959999C23.3639 0.959999 24.7959 1.472 25.8519 2.496C26.9079 3.52 27.4359 4.928 27.4359 6.72C27.4359 8.512 26.9079 9.92 25.8519 10.944C24.8119 11.952 23.3799 12.456 21.5559 12.456H18.0519V17.016C18.0519 17.384 17.9799 17.64 17.8359 17.784C17.6919 17.928 17.4359 18 17.0679 18H15.1239C14.7559 18 14.4999 17.928 14.3559 17.784C14.2119 17.64 14.1399 17.384 14.1399 17.016V1.944C14.1399 1.576 14.2119 1.32 14.3559 1.176C14.4999 1.032 14.7559 0.959999 15.1239 0.959999H21.5559ZM21.1479 8.88C21.8519 8.88 22.3959 8.696 22.7799 8.328C23.1799 7.944 23.3799 7.408 23.3799 6.72C23.3799 6.032 23.1799 5.496 22.7799 5.112C22.3959 4.712 21.8519 4.512 21.1479 4.512H18.0519V8.88H21.1479ZM32.6601 17.112C32.6601 17.448 32.5961 17.68 32.4681 17.808C32.3401 17.936 32.1081 18 31.7721 18H29.9001C29.5801 18 29.3561 17.936 29.2281 17.808C29.1001 17.68 29.0361 17.448 29.0361 17.112V1.128C29.0361 0.791999 29.1001 0.559999 29.2281 0.431999C29.3561 0.303999 29.5801 0.24 29.9001 0.24H31.7721C32.1081 0.24 32.3401 0.303999 32.4681 0.431999C32.5961 0.559999 32.6601 0.791999 32.6601 1.128V17.112ZM34.7447 7.656C35.6247 5.992 37.3367 5.16 39.8807 5.16C43.4487 5.16 45.2327 6.848 45.2327 10.224V16.32C45.2327 16.736 45.1687 17.04 45.0407 17.232C44.9287 17.408 44.6967 17.568 44.3447 17.712C43.3847 18.144 41.8727 18.36 39.8087 18.36C37.7287 18.36 36.2887 18.04 35.4887 17.4C34.7047 16.76 34.3127 15.76 34.3127 14.4C34.3127 12.928 34.7367 11.904 35.5847 11.328C36.4487 10.752 37.8887 10.464 39.9047 10.464C40.5287 10.464 41.0967 10.48 41.6087 10.512V9.984C41.6087 8.8 40.9927 8.208 39.7607 8.208C38.8807 8.208 38.2167 8.504 37.7687 9.096C37.5607 9.368 37.3847 9.536 37.2407 9.6C37.1127 9.648 36.8807 9.608 36.5447 9.48L35.2247 8.928C34.6167 8.672 34.4567 8.248 34.7447 7.656ZM41.6087 13.272C41.4647 13.272 41.1527 13.264 40.6727 13.248C40.1927 13.232 39.8327 13.224 39.5927 13.224C38.9527 13.224 38.5127 13.328 38.2727 13.536C38.0487 13.728 37.9367 14.008 37.9367 14.376C37.9367 14.76 38.0487 15.056 38.2727 15.264C38.4967 15.456 38.9207 15.552 39.5447 15.552C40.3927 15.552 41.0247 15.52 41.4407 15.456C41.5527 15.424 41.6087 15.368 41.6087 15.288V13.272ZM48.1466 6.024C49.5386 5.448 51.1706 5.16 53.0426 5.16C56.4986 5.16 58.2266 6.816 58.2266 10.128V17.112C58.2266 17.448 58.1626 17.68 58.0346 17.808C57.9066 17.936 57.6826 18 57.3626 18H55.4906C55.1546 18 54.9226 17.936 54.7946 17.808C54.6666 17.68 54.6026 17.448 54.6026 17.112V10.248C54.6026 9.048 53.9226 8.448 52.5626 8.448C51.9386 8.448 51.3786 8.52 50.8826 8.664C50.8346 8.664 50.8106 8.696 50.8106 8.76V17.112C50.8106 17.448 50.7466 17.68 50.6186 17.808C50.4906 17.936 50.2586 18 49.9226 18H48.0746C47.7386 18 47.5066 17.936 47.3786 17.808C47.2506 17.68 47.1866 17.448 47.1866 17.112V7.416C47.1866 7.016 47.2506 6.728 47.3786 6.552C47.5066 6.36 47.7626 6.184 48.1466 6.024ZM64.5587 10.368C64.5587 8.672 64.9987 7.384 65.8787 6.504C66.7587 5.608 68.0547 5.16 69.7667 5.16C70.4067 5.16 71.1427 5.208 71.9747 5.304V1.128C71.9747 0.791999 72.0387 0.559999 72.1667 0.431999C72.2947 0.303999 72.5267 0.24 72.8627 0.24H74.7107C75.0467 0.24 75.2787 0.303999 75.4067 0.431999C75.5347 0.559999 75.5987 0.791999 75.5987 1.128V16.224C75.5987 16.624 75.5347 16.904 75.4067 17.064C75.2947 17.224 75.0387 17.384 74.6387 17.544C73.3267 18.088 71.7507 18.36 69.9107 18.36C66.3427 18.36 64.5587 16.704 64.5587 13.392V10.368ZM71.9747 8.544C71.3667 8.448 70.8307 8.4 70.3667 8.4C68.9107 8.4 68.1827 9.056 68.1827 10.368V13.368C68.1827 13.928 68.3587 14.36 68.7107 14.664C69.0627 14.968 69.5587 15.12 70.1987 15.12C70.8867 15.12 71.4547 15.064 71.9027 14.952C71.9507 14.936 71.9747 14.896 71.9747 14.832V8.544ZM77.3488 10.488C77.3488 8.76 77.8448 7.44 78.8368 6.528C79.8288 5.616 81.2528 5.16 83.1088 5.16C85.0128 5.16 86.4528 5.64 87.4288 6.6C88.4048 7.544 88.8928 8.752 88.8928 10.224V11.688C88.8928 12.488 88.4768 12.888 87.6448 12.888H80.9728V13.488C80.9728 14.752 81.6928 15.384 83.1328 15.384C84.1728 15.384 84.9328 15.064 85.4128 14.424C85.6208 14.136 85.8128 13.968 85.9888 13.92C86.1808 13.872 86.4528 13.936 86.8048 14.112L87.9808 14.712C88.6048 15.032 88.7328 15.504 88.3648 16.128C87.4368 17.616 85.6768 18.36 83.0848 18.36C81.1168 18.36 79.6688 17.88 78.7408 16.92C77.8128 15.944 77.3488 14.648 77.3488 13.032V10.488ZM85.2448 9.888C85.2448 8.656 84.5328 8.04 83.1088 8.04C81.6848 8.04 80.9728 8.656 80.9728 9.888V10.272H85.2448V9.888ZM6.45009 34.16H7.24209C7.56209 34.16 7.78609 34.224 7.91409 34.352C8.05809 34.48 8.13009 34.712 8.13009 35.048V36.536C8.13009 36.856 8.05809 37.08 7.91409 37.208C7.78609 37.336 7.56209 37.4 7.24209 37.4H6.35409C5.71409 37.4 5.14609 37.456 4.65009 37.568C4.55409 37.584 4.50609 37.64 4.50609 37.736V46.112C4.50609 46.448 4.44209 46.68 4.31409 46.808C4.18609 46.936 3.96209 47 3.64209 47H1.77009C1.43409 47 1.20209 46.936 1.07409 46.808C0.946093 46.68 0.882093 46.448 0.882093 46.112V36.296C0.882093 35.896 0.946093 35.608 1.07409 35.432C1.20209 35.24 1.45809 35.064 1.84209 34.904C2.93009 34.472 4.46609 34.224 6.45009 34.16ZM8.71959 39.488C8.71959 37.76 9.21559 36.44 10.2076 35.528C11.1996 34.616 12.6236 34.16 14.4796 34.16C16.3836 34.16 17.8236 34.64 18.7996 35.6C19.7756 36.544 20.2636 37.752 20.2636 39.224V40.688C20.2636 41.488 19.8476 41.888 19.0156 41.888H12.3436V42.488C12.3436 43.752 13.0636 44.384 14.5036 44.384C15.5436 44.384 16.3036 44.064 16.7836 43.424C16.9916 43.136 17.1836 42.968 17.3596 42.92C17.5516 42.872 17.8236 42.936 18.1756 43.112L19.3516 43.712C19.9756 44.032 20.1036 44.504 19.7356 45.128C18.8076 46.616 17.0476 47.36 14.4556 47.36C12.4876 47.36 11.0396 46.88 10.1116 45.92C9.18359 44.944 8.71959 43.648 8.71959 42.032V39.488ZM16.6156 38.888C16.6156 37.656 15.9036 37.04 14.4796 37.04C13.0556 37.04 12.3436 37.656 12.3436 38.888V39.272H16.6156V38.888ZM21.5588 39.368C21.5588 37.672 21.9988 36.384 22.8788 35.504C23.7588 34.608 25.0548 34.16 26.7668 34.16C27.4068 34.16 28.1428 34.208 28.9748 34.304V30.128C28.9748 29.792 29.0388 29.56 29.1668 29.432C29.2948 29.304 29.5268 29.24 29.8628 29.24H31.7108C32.0468 29.24 32.2788 29.304 32.4068 29.432C32.5348 29.56 32.5988 29.792 32.5988 30.128V45.224C32.5988 45.624 32.5348 45.904 32.4068 46.064C32.2948 46.224 32.0388 46.384 31.6388 46.544C30.3268 47.088 28.7508 47.36 26.9108 47.36C23.3428 47.36 21.5588 45.704 21.5588 42.392V39.368ZM28.9748 37.544C28.3668 37.448 27.8308 37.4 27.3668 37.4C25.9108 37.4 25.1828 38.056 25.1828 39.368V42.368C25.1828 42.928 25.3588 43.36 25.7108 43.664C26.0628 43.968 26.5588 44.12 27.1988 44.12C27.8868 44.12 28.4548 44.064 28.9028 43.952C28.9508 43.936 28.9748 43.896 28.9748 43.832V37.544ZM34.613 36.656C35.493 34.992 37.205 34.16 39.749 34.16C43.317 34.16 45.101 35.848 45.101 39.224V45.32C45.101 45.736 45.037 46.04 44.909 46.232C44.797 46.408 44.565 46.568 44.213 46.712C43.253 47.144 41.741 47.36 39.677 47.36C37.597 47.36 36.157 47.04 35.357 46.4C34.573 45.76 34.181 44.76 34.181 43.4C34.181 41.928 34.605 40.904 35.453 40.328C36.317 39.752 37.757 39.464 39.773 39.464C40.397 39.464 40.965 39.48 41.477 39.512V38.984C41.477 37.8 40.861 37.208 39.629 37.208C38.749 37.208 38.085 37.504 37.637 38.096C37.429 38.368 37.253 38.536 37.109 38.6C36.981 38.648 36.749 38.608 36.413 38.48L35.093 37.928C34.485 37.672 34.325 37.248 34.613 36.656ZM41.477 42.272C41.333 42.272 41.021 42.264 40.541 42.248C40.061 42.232 39.701 42.224 39.461 42.224C38.821 42.224 38.381 42.328 38.141 42.536C37.917 42.728 37.805 43.008 37.805 43.376C37.805 43.76 37.917 44.056 38.141 44.264C38.365 44.456 38.789 44.552 39.413 44.552C40.261 44.552 40.893 44.52 41.309 44.456C41.421 44.424 41.477 44.368 41.477 44.288V42.272ZM46.7189 39.248C46.7189 37.632 47.1909 36.384 48.1349 35.504C49.0789 34.608 50.5109 34.16 52.4309 34.16C53.8069 34.16 54.9429 34.456 55.8389 35.048C56.7349 35.624 57.3509 36.392 57.6869 37.352C57.7989 37.704 57.8069 37.968 57.7109 38.144C57.6149 38.32 57.3989 38.472 57.0629 38.6L55.5269 39.104C55.1749 39.232 54.9029 39.256 54.7109 39.176C54.5349 39.08 54.3829 38.856 54.2549 38.504C53.9189 37.688 53.2629 37.28 52.2869 37.28C50.9909 37.28 50.3429 37.88 50.3429 39.08V42.44C50.3429 43.64 50.9909 44.24 52.2869 44.24C53.2629 44.24 53.9189 43.832 54.2549 43.016C54.3829 42.68 54.5349 42.472 54.7109 42.392C54.9029 42.312 55.1749 42.328 55.5269 42.44L57.0869 42.92C57.7589 43.128 57.9669 43.552 57.7109 44.192C56.8149 46.304 54.9749 47.36 52.1909 47.36C48.5429 47.36 46.7189 45.664 46.7189 42.272V39.248ZM58.9242 39.248C58.9242 37.632 59.3962 36.384 60.3402 35.504C61.2842 34.608 62.7162 34.16 64.6362 34.16C66.0122 34.16 67.1482 34.456 68.0442 35.048C68.9402 35.624 69.5562 36.392 69.8922 37.352C70.0042 37.704 70.0122 37.968 69.9162 38.144C69.8202 38.32 69.6042 38.472 69.2682 38.6L67.7322 39.104C67.3802 39.232 67.1082 39.256 66.9162 39.176C66.7402 39.08 66.5882 38.856 66.4602 38.504C66.1242 37.688 65.4682 37.28 64.4922 37.28C63.1962 37.28 62.5482 37.88 62.5482 39.08V42.44C62.5482 43.64 63.1962 44.24 64.4922 44.24C65.4682 44.24 66.1242 43.832 66.4602 43.016C66.5882 42.68 66.7402 42.472 66.9162 42.392C67.1082 42.312 67.3802 42.328 67.7322 42.44L69.2922 42.92C69.9642 43.128 70.1722 43.552 69.9162 44.192C69.0202 46.304 67.1802 47.36 64.3962 47.36C60.7482 47.36 58.9242 45.664 58.9242 42.272V39.248ZM73.5535 29.744C74.1935 29.744 74.6335 29.872 74.8735 30.128C75.1295 30.368 75.2575 30.808 75.2575 31.448V31.688C75.2575 32.328 75.1295 32.776 74.8735 33.032C74.6335 33.272 74.1935 33.392 73.5535 33.392H73.0495C72.3935 33.392 71.9455 33.272 71.7055 33.032C71.4655 32.776 71.3455 32.328 71.3455 31.688V31.448C71.3455 30.808 71.4655 30.368 71.7055 30.128C71.9455 29.872 72.3935 29.744 73.0495 29.744H73.5535ZM74.2495 34.52C74.5695 34.52 74.7935 34.584 74.9215 34.712C75.0495 34.84 75.1135 35.072 75.1135 35.408V46.112C75.1135 46.448 75.0495 46.68 74.9215 46.808C74.7935 46.936 74.5695 47 74.2495 47H72.3775C72.0415 47 71.8095 46.936 71.6815 46.808C71.5535 46.68 71.4895 46.448 71.4895 46.112V35.408C71.4895 35.072 71.5535 34.84 71.6815 34.712C71.8095 34.584 72.0415 34.52 72.3775 34.52H74.2495ZM83.1044 29.408C83.7924 29.024 84.3204 29.04 84.6884 29.456L85.5764 30.488C85.7204 30.664 85.8084 30.808 85.8404 30.92C85.8884 31.032 85.8804 31.136 85.8164 31.232C85.7684 31.312 85.6484 31.384 85.4564 31.448L81.2564 32.984C80.7284 33.176 80.3684 33.152 80.1764 32.912L79.6964 32.336C79.5044 32.112 79.4084 31.936 79.4084 31.808C79.4244 31.664 79.5364 31.536 79.7444 31.424L83.1044 29.408ZM76.9364 39.224C76.9364 37.624 77.4244 36.384 78.4004 35.504C79.3764 34.608 80.7924 34.16 82.6484 34.16C84.5204 34.16 85.9444 34.608 86.9204 35.504C87.8964 36.384 88.3844 37.624 88.3844 39.224V42.32C88.3844 43.92 87.8964 45.16 86.9204 46.04C85.9444 46.92 84.5204 47.36 82.6484 47.36C80.7924 47.36 79.3764 46.92 78.4004 46.04C77.4244 45.144 76.9364 43.904 76.9364 42.32V39.224ZM84.7604 39.176C84.7604 37.976 84.0564 37.376 82.6484 37.376C81.2564 37.376 80.5604 37.976 80.5604 39.176V42.344C80.5604 43.544 81.2564 44.144 82.6484 44.144C84.0564 44.144 84.7604 43.544 84.7604 42.344V39.176ZM91.1174 35.024C92.5094 34.448 94.1414 34.16 96.0134 34.16C99.4694 34.16 101.197 35.816 101.197 39.128V46.112C101.197 46.448 101.133 46.68 101.005 46.808C100.877 46.936 100.653 47 100.333 47H98.4614C98.1254 47 97.8934 46.936 97.7654 46.808C97.6374 46.68 97.5734 46.448 97.5734 46.112V39.248C97.5734 38.048 96.8934 37.448 95.5334 37.448C94.9094 37.448 94.3494 37.52 93.8534 37.664C93.8054 37.664 93.7814 37.696 93.7814 37.76V46.112C93.7814 46.448 93.7174 46.68 93.5894 46.808C93.4614 46.936 93.2294 47 92.8934 47H91.0454C90.7094 47 90.4774 46.936 90.3494 46.808C90.2214 46.68 90.1574 46.448 90.1574 46.112V36.416C90.1574 36.016 90.2214 35.728 90.3494 35.552C90.4774 35.36 90.7334 35.184 91.1174 35.024Z" fill="#0A8CB3"/>
</svg>
