<svg width="122" height="48" viewBox="0 0 122 48" fill="none" xmlns="http://www.w3.org/2000/svg">
<path d="M38.1389 17.04C38.3789 17.68 38.1629 18 37.4909 18H35.6909C35.0989 18 34.6829 17.944 34.4429 17.832C34.2029 17.704 34.0269 17.464 33.9149 17.112L33.1709 14.856H27.2429L26.4749 17.112C26.3469 17.464 26.1709 17.704 25.9469 17.832C25.7229 17.944 25.3149 18 24.7229 18H23.0669C22.3949 18 22.1789 17.68 22.4189 17.04L28.1549 1.776C28.2669 1.456 28.4029 1.24 28.5629 1.128C28.7389 1.016 29.0029 0.959999 29.3549 0.959999H31.2029C31.5549 0.959999 31.8109 1.016 31.9709 1.128C32.1469 1.224 32.2909 1.424 32.4029 1.728L38.1389 17.04ZM30.9149 7.968C30.7549 7.456 30.6189 6.912 30.5069 6.336C30.4109 5.76 30.3549 5.312 30.3389 4.992L30.3149 4.536H30.0749C30.0909 5.672 29.9069 6.808 29.5229 7.944L28.2749 11.688H32.1629L30.9149 7.968ZM40.0079 5.904C41.3039 5.408 42.9279 5.16 44.8799 5.16C46.6399 5.16 47.9519 5.592 48.8159 6.456C49.6799 7.304 50.1119 8.528 50.1119 10.128V13.152C50.1119 14.848 49.6479 16.144 48.7199 17.04C47.7919 17.92 46.4079 18.36 44.5679 18.36C44.0239 18.36 43.3919 18.288 42.6719 18.144V22.392C42.6719 22.728 42.6079 22.96 42.4799 23.088C42.3519 23.216 42.1279 23.28 41.8079 23.28H39.9359C39.5999 23.28 39.3679 23.216 39.2399 23.088C39.1119 22.96 39.0479 22.728 39.0479 22.392V7.296C39.0479 6.896 39.1119 6.608 39.2399 6.432C39.3679 6.24 39.6239 6.064 40.0079 5.904ZM46.4639 10.152C46.4639 8.984 45.7919 8.4 44.4479 8.4C43.9039 8.4 43.3519 8.456 42.7919 8.568C42.7119 8.584 42.6719 8.64 42.6719 8.736V14.976C43.2799 15.072 43.8159 15.12 44.2799 15.12C45.7359 15.12 46.4639 14.464 46.4639 13.152V10.152ZM55.606 2.64C55.926 2.64 56.15 2.704 56.278 2.832C56.406 2.96 56.47 3.192 56.47 3.528V5.52H58.702C59.022 5.52 59.246 5.584 59.374 5.712C59.502 5.84 59.566 6.072 59.566 6.408V7.848C59.566 8.184 59.502 8.416 59.374 8.544C59.246 8.672 59.022 8.736 58.702 8.736H56.47V12.768C56.47 13.664 56.63 14.264 56.95 14.568C57.27 14.856 57.846 15 58.678 15C59.014 15 59.246 15.064 59.374 15.192C59.502 15.32 59.566 15.56 59.566 15.912V17.424C59.566 17.776 59.502 18.008 59.374 18.12C59.246 18.248 59.014 18.32 58.678 18.336C56.582 18.4 55.086 18.032 54.19 17.232C53.294 16.432 52.846 14.992 52.846 12.912V8.736H51.574C51.238 8.736 51.006 8.672 50.878 8.544C50.75 8.416 50.686 8.184 50.686 7.848V6.408C50.686 6.072 50.75 5.84 50.878 5.712C51.006 5.584 51.238 5.52 51.574 5.52H52.846V3.528C52.846 3.192 52.91 2.96 53.038 2.832C53.182 2.704 53.414 2.64 53.734 2.64H55.606ZM62.8868 0.743999C63.5268 0.743999 63.9668 0.871999 64.2068 1.128C64.4628 1.368 64.5908 1.808 64.5908 2.448V2.688C64.5908 3.328 64.4628 3.776 64.2068 4.032C63.9668 4.272 63.5268 4.392 62.8868 4.392H62.3828C61.7268 4.392 61.2788 4.272 61.0388 4.032C60.7988 3.776 60.6788 3.328 60.6788 2.688V2.448C60.6788 1.808 60.7988 1.368 61.0388 1.128C61.2788 0.871999 61.7268 0.743999 62.3828 0.743999H62.8868ZM63.5828 5.52C63.9028 5.52 64.1268 5.584 64.2548 5.712C64.3828 5.84 64.4468 6.072 64.4468 6.408V17.112C64.4468 17.448 64.3828 17.68 64.2548 17.808C64.1268 17.936 63.9028 18 63.5828 18H61.7108C61.3748 18 61.1428 17.936 61.0148 17.808C60.8868 17.68 60.8228 17.448 60.8228 17.112V6.408C60.8228 6.072 60.8868 5.84 61.0148 5.712C61.1428 5.584 61.3748 5.52 61.7108 5.52H63.5828ZM70.3257 2.64C70.6457 2.64 70.8697 2.704 70.9977 2.832C71.1257 2.96 71.1897 3.192 71.1897 3.528V5.52H73.4217C73.7417 5.52 73.9657 5.584 74.0937 5.712C74.2217 5.84 74.2857 6.072 74.2857 6.408V7.848C74.2857 8.184 74.2217 8.416 74.0937 8.544C73.9657 8.672 73.7417 8.736 73.4217 8.736H71.1897V12.768C71.1897 13.664 71.3497 14.264 71.6697 14.568C71.9897 14.856 72.5657 15 73.3977 15C73.7337 15 73.9657 15.064 74.0937 15.192C74.2217 15.32 74.2857 15.56 74.2857 15.912V17.424C74.2857 17.776 74.2217 18.008 74.0937 18.12C73.9657 18.248 73.7337 18.32 73.3977 18.336C71.3017 18.4 69.8057 18.032 68.9097 17.232C68.0137 16.432 67.5657 14.992 67.5657 12.912V8.736H66.2937C65.9577 8.736 65.7257 8.672 65.5977 8.544C65.4697 8.416 65.4057 8.184 65.4057 7.848V6.408C65.4057 6.072 65.4697 5.84 65.5977 5.712C65.7257 5.584 65.9577 5.52 66.2937 5.52H67.5657V3.528C67.5657 3.192 67.6297 2.96 67.7577 2.832C67.9017 2.704 68.1337 2.64 68.4537 2.64H70.3257ZM85.6225 5.52C85.9425 5.52 86.1665 5.584 86.2945 5.712C86.4225 5.84 86.4865 6.072 86.4865 6.408V16.104C86.4865 16.504 86.4225 16.8 86.2945 16.992C86.1825 17.168 85.9345 17.336 85.5505 17.496C84.1265 18.072 82.4865 18.36 80.6305 18.36C77.1745 18.36 75.4465 16.704 75.4465 13.392V6.408C75.4465 6.072 75.5105 5.84 75.6385 5.712C75.7665 5.584 75.9985 5.52 76.3345 5.52H78.1825C78.5185 5.52 78.7505 5.584 78.8785 5.712C79.0065 5.84 79.0705 6.072 79.0705 6.408V13.272C79.0705 14.472 79.7505 15.072 81.1105 15.072C81.6705 15.072 82.1985 15.016 82.6945 14.904C82.8065 14.856 82.8625 14.768 82.8625 14.64V6.408C82.8625 6.072 82.9265 5.84 83.0545 5.712C83.1825 5.584 83.4145 5.52 83.7505 5.52H85.6225ZM88.039 10.368C88.039 8.672 88.479 7.384 89.359 6.504C90.239 5.608 91.535 5.16 93.247 5.16C93.887 5.16 94.623 5.208 95.455 5.304V1.128C95.455 0.791999 95.519 0.559999 95.647 0.431999C95.775 0.303999 96.007 0.24 96.343 0.24H98.191C98.527 0.24 98.759 0.303999 98.887 0.431999C99.015 0.559999 99.079 0.791999 99.079 1.128V16.224C99.079 16.624 99.015 16.904 98.887 17.064C98.775 17.224 98.519 17.384 98.119 17.544C96.807 18.088 95.231 18.36 93.391 18.36C89.823 18.36 88.039 16.704 88.039 13.392V10.368ZM95.455 8.544C94.847 8.448 94.311 8.4 93.847 8.4C92.391 8.4 91.663 9.056 91.663 10.368V13.368C91.663 13.928 91.839 14.36 92.191 14.664C92.543 14.968 93.039 15.12 93.679 15.12C94.367 15.12 94.935 15.064 95.383 14.952C95.431 14.936 95.455 14.896 95.455 14.832V8.544ZM8.89619 34.832C10.0642 34.384 11.4082 34.16 12.9282 34.16C16.2242 34.16 17.8722 35.816 17.8722 39.128V46.112C17.8722 46.448 17.8082 46.68 17.6802 46.808C17.5522 46.936 17.3202 47 16.9842 47H15.1362C14.8002 47 14.5682 46.936 14.4402 46.808C14.3122 46.68 14.2482 46.448 14.2482 46.112V39.224C14.2482 38.04 13.6402 37.448 12.4242 37.448C11.8802 37.448 11.3282 37.528 10.7682 37.688C10.8642 38.12 10.9122 38.608 10.9122 39.152V46.112C10.9122 46.448 10.8482 46.68 10.7202 46.808C10.5922 46.936 10.3602 47 10.0242 47H8.17619C7.84019 47 7.60819 46.936 7.48019 46.808C7.35219 46.68 7.28819 46.448 7.28819 46.112V39.224C7.28819 38.04 6.68019 37.448 5.46419 37.448C5.03219 37.448 4.56019 37.512 4.04819 37.64C3.98419 37.64 3.95219 37.688 3.95219 37.784V46.112C3.95219 46.448 3.88819 46.68 3.76019 46.808C3.63219 46.936 3.40019 47 3.06419 47H1.21619C0.880187 47 0.648187 46.936 0.520187 46.808C0.392187 46.68 0.328187 46.448 0.328187 46.112V36.416C0.328187 36.016 0.392187 35.728 0.520187 35.552C0.648187 35.36 0.904187 35.184 1.28819 35.024C2.68019 34.448 4.24019 34.16 5.96819 34.16C7.15219 34.16 8.12819 34.384 8.89619 34.832ZM19.5803 36.656C20.4603 34.992 22.1723 34.16 24.7163 34.16C28.2843 34.16 30.0683 35.848 30.0683 39.224V45.32C30.0683 45.736 30.0043 46.04 29.8763 46.232C29.7643 46.408 29.5323 46.568 29.1803 46.712C28.2203 47.144 26.7083 47.36 24.6443 47.36C22.5643 47.36 21.1243 47.04 20.3243 46.4C19.5403 45.76 19.1483 44.76 19.1483 43.4C19.1483 41.928 19.5723 40.904 20.4203 40.328C21.2843 39.752 22.7243 39.464 24.7403 39.464C25.3643 39.464 25.9323 39.48 26.4443 39.512V38.984C26.4443 37.8 25.8283 37.208 24.5963 37.208C23.7163 37.208 23.0523 37.504 22.6043 38.096C22.3963 38.368 22.2203 38.536 22.0763 38.6C21.9483 38.648 21.7163 38.608 21.3803 38.48L20.0603 37.928C19.4523 37.672 19.2923 37.248 19.5803 36.656ZM26.4443 42.272C26.3003 42.272 25.9883 42.264 25.5083 42.248C25.0283 42.232 24.6683 42.224 24.4283 42.224C23.7883 42.224 23.3483 42.328 23.1083 42.536C22.8843 42.728 22.7723 43.008 22.7723 43.376C22.7723 43.76 22.8843 44.056 23.1083 44.264C23.3323 44.456 23.7563 44.552 24.3803 44.552C25.2283 44.552 25.8603 44.52 26.2763 44.456C26.3883 44.424 26.4443 44.368 26.4443 44.288V42.272ZM35.6485 31.64C35.9685 31.64 36.1925 31.704 36.3205 31.832C36.4485 31.96 36.5125 32.192 36.5125 32.528V34.52H38.7445C39.0645 34.52 39.2885 34.584 39.4165 34.712C39.5445 34.84 39.6085 35.072 39.6085 35.408V36.848C39.6085 37.184 39.5445 37.416 39.4165 37.544C39.2885 37.672 39.0645 37.736 38.7445 37.736H36.5125V41.768C36.5125 42.664 36.6725 43.264 36.9925 43.568C37.3125 43.856 37.8885 44 38.7205 44C39.0565 44 39.2885 44.064 39.4165 44.192C39.5445 44.32 39.6085 44.56 39.6085 44.912V46.424C39.6085 46.776 39.5445 47.008 39.4165 47.12C39.2885 47.248 39.0565 47.32 38.7205 47.336C36.6245 47.4 35.1285 47.032 34.2325 46.232C33.3365 45.432 32.8885 43.992 32.8885 41.912V37.736H31.6165C31.2805 37.736 31.0485 37.672 30.9205 37.544C30.7925 37.416 30.7285 37.184 30.7285 36.848V35.408C30.7285 35.072 30.7925 34.84 30.9205 34.712C31.0485 34.584 31.2805 34.52 31.6165 34.52H32.8885V32.528C32.8885 32.192 32.9525 31.96 33.0805 31.832C33.2245 31.704 33.4565 31.64 33.7765 31.64H35.6485ZM40.4813 39.488C40.4813 37.76 40.9773 36.44 41.9693 35.528C42.9613 34.616 44.3853 34.16 46.2413 34.16C48.1453 34.16 49.5853 34.64 50.5613 35.6C51.5373 36.544 52.0253 37.752 52.0253 39.224V40.688C52.0253 41.488 51.6093 41.888 50.7773 41.888H44.1053V42.488C44.1053 43.752 44.8253 44.384 46.2653 44.384C47.3053 44.384 48.0653 44.064 48.5453 43.424C48.7533 43.136 48.9453 42.968 49.1213 42.92C49.3133 42.872 49.5853 42.936 49.9373 43.112L51.1133 43.712C51.7373 44.032 51.8653 44.504 51.4973 45.128C50.5693 46.616 48.8093 47.36 46.2173 47.36C44.2493 47.36 42.8013 46.88 41.8733 45.92C40.9453 44.944 40.4813 43.648 40.4813 42.032V39.488ZM48.3773 38.888C48.3773 37.656 47.6653 37.04 46.2413 37.04C44.8173 37.04 44.1053 37.656 44.1053 38.888V39.272H48.3773V38.888ZM61.9606 34.832C63.1286 34.384 64.4726 34.16 65.9926 34.16C69.2886 34.16 70.9366 35.816 70.9366 39.128V46.112C70.9366 46.448 70.8726 46.68 70.7446 46.808C70.6166 46.936 70.3846 47 70.0486 47H68.2006C67.8646 47 67.6326 46.936 67.5046 46.808C67.3766 46.68 67.3126 46.448 67.3126 46.112V39.224C67.3126 38.04 66.7046 37.448 65.4886 37.448C64.9446 37.448 64.3926 37.528 63.8326 37.688C63.9286 38.12 63.9766 38.608 63.9766 39.152V46.112C63.9766 46.448 63.9126 46.68 63.7846 46.808C63.6566 46.936 63.4246 47 63.0886 47H61.2406C60.9046 47 60.6726 46.936 60.5446 46.808C60.4166 46.68 60.3526 46.448 60.3526 46.112V39.224C60.3526 38.04 59.7446 37.448 58.5286 37.448C58.0966 37.448 57.6246 37.512 57.1126 37.64C57.0486 37.64 57.0166 37.688 57.0166 37.784V46.112C57.0166 46.448 56.9526 46.68 56.8246 46.808C56.6966 46.936 56.4646 47 56.1286 47H54.2806C53.9446 47 53.7126 46.936 53.5846 46.808C53.4566 46.68 53.3926 46.448 53.3926 46.112V36.416C53.3926 36.016 53.4566 35.728 53.5846 35.552C53.7126 35.36 53.9686 35.184 54.3526 35.024C55.7446 34.448 57.3046 34.16 59.0326 34.16C60.2166 34.16 61.1926 34.384 61.9606 34.832ZM78.2367 29.408C78.9247 29.024 79.4527 29.04 79.8207 29.456L80.7087 30.488C80.9167 30.744 81.0127 30.944 80.9967 31.088C80.9967 31.216 80.8607 31.336 80.5887 31.448L76.3887 32.984C75.8447 33.176 75.4767 33.152 75.2847 32.912L74.8047 32.336C74.6287 32.112 74.5407 31.936 74.5407 31.808C74.5407 31.664 74.6447 31.536 74.8527 31.424L78.2367 29.408ZM72.6447 36.656C73.5247 34.992 75.2367 34.16 77.7807 34.16C81.3487 34.16 83.1327 35.848 83.1327 39.224V45.32C83.1327 45.736 83.0687 46.04 82.9407 46.232C82.8287 46.408 82.5967 46.568 82.2447 46.712C81.2847 47.144 79.7727 47.36 77.7087 47.36C75.6287 47.36 74.1887 47.04 73.3887 46.4C72.6047 45.76 72.2127 44.76 72.2127 43.4C72.2127 41.928 72.6367 40.904 73.4847 40.328C74.3487 39.752 75.7887 39.464 77.8047 39.464C78.4287 39.464 78.9967 39.48 79.5087 39.512V38.984C79.5087 37.8 78.8927 37.208 77.6607 37.208C76.7807 37.208 76.1167 37.504 75.6687 38.096C75.4607 38.368 75.2847 38.536 75.1407 38.6C75.0127 38.648 74.7807 38.608 74.4447 38.48L73.1247 37.928C72.5167 37.672 72.3567 37.248 72.6447 36.656ZM79.5087 42.272C79.3647 42.272 79.0527 42.264 78.5727 42.248C78.0927 42.232 77.7327 42.224 77.4927 42.224C76.8527 42.224 76.4127 42.328 76.1727 42.536C75.9487 42.728 75.8367 43.008 75.8367 43.376C75.8367 43.76 75.9487 44.056 76.1727 44.264C76.3967 44.456 76.8207 44.552 77.4447 44.552C78.2927 44.552 78.9247 44.52 79.3407 44.456C79.4527 44.424 79.5087 44.368 79.5087 44.288V42.272ZM88.7129 31.64C89.0329 31.64 89.2569 31.704 89.3849 31.832C89.5129 31.96 89.5769 32.192 89.5769 32.528V34.52H91.8089C92.1289 34.52 92.3529 34.584 92.4809 34.712C92.6089 34.84 92.6729 35.072 92.6729 35.408V36.848C92.6729 37.184 92.6089 37.416 92.4809 37.544C92.3529 37.672 92.1289 37.736 91.8089 37.736H89.5769V41.768C89.5769 42.664 89.7369 43.264 90.0569 43.568C90.3769 43.856 90.9529 44 91.7849 44C92.1209 44 92.3529 44.064 92.4809 44.192C92.6089 44.32 92.6729 44.56 92.6729 44.912V46.424C92.6729 46.776 92.6089 47.008 92.4809 47.12C92.3529 47.248 92.1209 47.32 91.7849 47.336C89.6889 47.4 88.1929 47.032 87.2969 46.232C86.4009 45.432 85.9529 43.992 85.9529 41.912V37.736H84.6809C84.3449 37.736 84.1129 37.672 83.9849 37.544C83.8569 37.416 83.7929 37.184 83.7929 36.848V35.408C83.7929 35.072 83.8569 34.84 83.9849 34.712C84.1129 34.584 84.3449 34.52 84.6809 34.52H85.9529V32.528C85.9529 32.192 86.0169 31.96 86.1449 31.832C86.2889 31.704 86.5209 31.64 86.8409 31.64H88.7129ZM95.9937 29.744C96.6337 29.744 97.0737 29.872 97.3137 30.128C97.5697 30.368 97.6977 30.808 97.6977 31.448V31.688C97.6977 32.328 97.5697 32.776 97.3137 33.032C97.0737 33.272 96.6337 33.392 95.9937 33.392H95.4897C94.8337 33.392 94.3857 33.272 94.1457 33.032C93.9057 32.776 93.7857 32.328 93.7857 31.688V31.448C93.7857 30.808 93.9057 30.368 94.1457 30.128C94.3857 29.872 94.8337 29.744 95.4897 29.744H95.9937ZM96.6897 34.52C97.0097 34.52 97.2337 34.584 97.3617 34.712C97.4897 34.84 97.5537 35.072 97.5537 35.408V46.112C97.5537 46.448 97.4897 46.68 97.3617 46.808C97.2337 46.936 97.0097 47 96.6897 47H94.8177C94.4817 47 94.2497 46.936 94.1217 46.808C93.9937 46.68 93.9297 46.448 93.9297 46.112V35.408C93.9297 35.072 93.9937 34.84 94.1217 34.712C94.2497 34.584 94.4817 34.52 94.8177 34.52H96.6897ZM99.1366 39.248C99.1366 37.632 99.6086 36.384 100.553 35.504C101.497 34.608 102.929 34.16 104.849 34.16C106.225 34.16 107.361 34.456 108.257 35.048C109.153 35.624 109.769 36.392 110.105 37.352C110.217 37.704 110.225 37.968 110.129 38.144C110.033 38.32 109.817 38.472 109.481 38.6L107.945 39.104C107.593 39.232 107.321 39.256 107.129 39.176C106.953 39.08 106.801 38.856 106.673 38.504C106.337 37.688 105.681 37.28 104.705 37.28C103.409 37.28 102.761 37.88 102.761 39.08V42.44C102.761 43.64 103.409 44.24 104.705 44.24C105.681 44.24 106.337 43.832 106.673 43.016C106.801 42.68 106.953 42.472 107.129 42.392C107.321 42.312 107.593 42.328 107.945 42.44L109.505 42.92C110.177 43.128 110.385 43.552 110.129 44.192C109.233 46.304 107.393 47.36 104.609 47.36C100.961 47.36 99.1366 45.664 99.1366 42.272V39.248ZM111.342 36.656C112.222 34.992 113.934 34.16 116.478 34.16C120.046 34.16 121.83 35.848 121.83 39.224V45.32C121.83 45.736 121.766 46.04 121.638 46.232C121.526 46.408 121.294 46.568 120.942 46.712C119.982 47.144 118.47 47.36 116.406 47.36C114.326 47.36 112.886 47.04 112.086 46.4C111.302 45.76 110.91 44.76 110.91 43.4C110.91 41.928 111.334 40.904 112.182 40.328C113.046 39.752 114.486 39.464 116.502 39.464C117.126 39.464 117.694 39.48 118.206 39.512V38.984C118.206 37.8 117.59 37.208 116.358 37.208C115.478 37.208 114.814 37.504 114.366 38.096C114.158 38.368 113.982 38.536 113.838 38.6C113.71 38.648 113.478 38.608 113.142 38.48L111.822 37.928C111.214 37.672 111.054 37.248 111.342 36.656ZM118.206 42.272C118.062 42.272 117.75 42.264 117.27 42.248C116.79 42.232 116.43 42.224 116.19 42.224C115.55 42.224 115.11 42.328 114.87 42.536C114.646 42.728 114.534 43.008 114.534 43.376C114.534 43.76 114.646 44.056 114.87 44.264C115.094 44.456 115.518 44.552 116.142 44.552C116.99 44.552 117.622 44.52 118.038 44.456C118.15 44.424 118.206 44.368 118.206 44.288V42.272Z" fill="#E71D73"/>
</svg>
