<svg width="140" height="25" viewBox="0 0 140 25" fill="none" xmlns="http://www.w3.org/2000/svg">
<path d="M12.5785 1.96C12.9465 1.96 13.2025 2.032 13.3465 2.176C13.4905 2.32 13.5625 2.576 13.5625 2.944V4.552C13.5625 4.92 13.4905 5.176 13.3465 5.32C13.2025 5.448 12.9465 5.512 12.5785 5.512H8.8345V18.016C8.8345 18.384 8.7625 18.64 8.6185 18.784C8.4745 18.928 8.2185 19 7.8505 19H5.9065C5.5385 19 5.2825 18.928 5.1385 18.784C5.0105 18.64 4.9465 18.384 4.9465 18.016V5.512H1.1785C0.8105 5.512 0.5545 5.448 0.4105 5.32C0.2665 5.176 0.1945 4.92 0.1945 4.552V2.944C0.1945 2.576 0.2665 2.32 0.4105 2.176C0.5545 2.032 0.8105 1.96 1.1785 1.96H12.5785ZM17.7893 6.16H18.5813C18.9013 6.16 19.1253 6.224 19.2533 6.352C19.3973 6.48 19.4693 6.712 19.4693 7.048V8.536C19.4693 8.856 19.3973 9.08 19.2533 9.208C19.1253 9.336 18.9013 9.4 18.5813 9.4H17.6933C17.0533 9.4 16.4853 9.456 15.9893 9.568C15.8933 9.584 15.8453 9.64 15.8453 9.736V18.112C15.8453 18.448 15.7813 18.68 15.6533 18.808C15.5253 18.936 15.3013 19 14.9813 19H13.1093C12.7733 19 12.5413 18.936 12.4133 18.808C12.2853 18.68 12.2213 18.448 12.2213 18.112V8.296C12.2213 7.896 12.2853 7.608 12.4133 7.432C12.5413 7.24 12.7973 7.064 13.1813 6.904C14.2693 6.472 15.8053 6.224 17.7893 6.16ZM22.1909 1.744C22.8309 1.744 23.2709 1.872 23.5109 2.128C23.7669 2.368 23.8949 2.808 23.8949 3.448V3.688C23.8949 4.328 23.7669 4.776 23.5109 5.032C23.2709 5.272 22.8309 5.392 22.1909 5.392H21.6869C21.0309 5.392 20.5829 5.272 20.3429 5.032C20.1029 4.776 19.9829 4.328 19.9829 3.688V3.448C19.9829 2.808 20.1029 2.368 20.3429 2.128C20.5829 1.872 21.0309 1.744 21.6869 1.744H22.1909ZM22.8869 6.52C23.2069 6.52 23.4309 6.584 23.5589 6.712C23.6869 6.84 23.7509 7.072 23.7509 7.408V18.112C23.7509 18.448 23.6869 18.68 23.5589 18.808C23.4309 18.936 23.2069 19 22.8869 19H21.0149C20.6789 19 20.4469 18.936 20.3189 18.808C20.1909 18.68 20.1269 18.448 20.1269 18.112V7.408C20.1269 7.072 20.1909 6.84 20.3189 6.712C20.4469 6.584 20.6789 6.52 21.0149 6.52H22.8869ZM25.0937 11.368C25.0937 7.896 26.9658 6.16 30.7098 6.16C32.6458 6.16 34.1578 6.424 35.2458 6.952C35.6298 7.128 35.8698 7.296 35.9658 7.456C36.0778 7.616 36.1338 7.896 36.1338 8.296V19.192C36.1338 20.856 35.6858 22.16 34.7898 23.104C33.9097 24.048 32.5338 24.52 30.6618 24.52C28.1818 24.52 26.4617 23.776 25.5017 22.288C25.1177 21.664 25.2457 21.192 25.8857 20.872L27.2297 20.176C27.5658 20 27.8298 19.936 28.0217 19.984C28.2138 20.032 28.4138 20.2 28.6218 20.488C29.0538 21.096 29.7097 21.4 30.5897 21.4C31.8698 21.4 32.5098 20.752 32.5098 19.456V18.424C31.7578 18.584 31.0138 18.664 30.2778 18.664C26.8217 18.664 25.0937 17.008 25.0937 13.696V11.368ZM32.4137 9.568C31.9018 9.456 31.3978 9.4 30.9018 9.4C29.4457 9.4 28.7177 10.056 28.7177 11.368V13.672C28.7177 14.232 28.8937 14.664 29.2457 14.968C29.5977 15.272 30.0938 15.424 30.7338 15.424C31.3258 15.424 31.9178 15.368 32.5098 15.256V9.712C32.5098 9.632 32.4778 9.584 32.4137 9.568ZM37.4284 11.224C37.4284 9.624 37.9164 8.384 38.8924 7.504C39.8684 6.608 41.2844 6.16 43.1404 6.16C45.0124 6.16 46.4364 6.608 47.4124 7.504C48.3884 8.384 48.8764 9.624 48.8764 11.224V14.32C48.8764 15.92 48.3884 17.16 47.4124 18.04C46.4364 18.92 45.0124 19.36 43.1404 19.36C41.2844 19.36 39.8684 18.92 38.8924 18.04C37.9164 17.144 37.4284 15.904 37.4284 14.32V11.224ZM45.2524 11.176C45.2524 9.976 44.5484 9.376 43.1404 9.376C41.7484 9.376 41.0524 9.976 41.0524 11.176V14.344C41.0524 15.544 41.7484 16.144 43.1404 16.144C44.5484 16.144 45.2524 15.544 45.2524 14.344V11.176ZM51.1294 7.024C52.5214 6.448 54.1534 6.16 56.0254 6.16C59.4814 6.16 61.2094 7.816 61.2094 11.128V18.112C61.2094 18.448 61.1454 18.68 61.0174 18.808C60.8894 18.936 60.6654 19 60.3454 19H58.4734C58.1374 19 57.9054 18.936 57.7774 18.808C57.6494 18.68 57.5854 18.448 57.5854 18.112V11.248C57.5854 10.048 56.9054 9.448 55.5454 9.448C54.9214 9.448 54.3614 9.52 53.8654 9.664C53.8174 9.664 53.7934 9.696 53.7934 9.76V18.112C53.7934 18.448 53.7294 18.68 53.6014 18.808C53.4734 18.936 53.2414 19 52.9054 19H51.0574C50.7214 19 50.4894 18.936 50.3614 18.808C50.2334 18.68 50.1694 18.448 50.1694 18.112V8.416C50.1694 8.016 50.2334 7.728 50.3614 7.552C50.4894 7.36 50.7454 7.184 51.1294 7.024ZM62.4259 11.224C62.4259 9.624 62.9139 8.384 63.8899 7.504C64.8659 6.608 66.2819 6.16 68.1379 6.16C70.0099 6.16 71.4339 6.608 72.4099 7.504C73.3859 8.384 73.8739 9.624 73.8739 11.224V14.32C73.8739 15.92 73.3859 17.16 72.4099 18.04C71.4339 18.92 70.0099 19.36 68.1379 19.36C66.2819 19.36 64.8659 18.92 63.8899 18.04C62.9139 17.144 62.4259 15.904 62.4259 14.32V11.224ZM70.2499 11.176C70.2499 9.976 69.5459 9.376 68.1379 9.376C66.7459 9.376 66.0499 9.976 66.0499 11.176V14.344C66.0499 15.544 66.7459 16.144 68.1379 16.144C69.5459 16.144 70.2499 15.544 70.2499 14.344V11.176ZM83.7349 6.832C84.9029 6.384 86.2469 6.16 87.7669 6.16C91.0629 6.16 92.7109 7.816 92.7109 11.128V18.112C92.7109 18.448 92.6469 18.68 92.5189 18.808C92.3909 18.936 92.1589 19 91.8229 19H89.9749C89.6389 19 89.4069 18.936 89.2789 18.808C89.1509 18.68 89.0869 18.448 89.0869 18.112V11.224C89.0869 10.04 88.4789 9.448 87.2629 9.448C86.7189 9.448 86.1669 9.528 85.6069 9.688C85.7029 10.12 85.7509 10.608 85.7509 11.152V18.112C85.7509 18.448 85.6869 18.68 85.5589 18.808C85.4309 18.936 85.1989 19 84.8629 19H83.0149C82.6789 19 82.4469 18.936 82.3189 18.808C82.1909 18.68 82.1269 18.448 82.1269 18.112V11.224C82.1269 10.04 81.5189 9.448 80.3029 9.448C79.8709 9.448 79.3989 9.512 78.8869 9.64C78.8229 9.64 78.7909 9.688 78.7909 9.784V18.112C78.7909 18.448 78.7269 18.68 78.5989 18.808C78.4709 18.936 78.2389 19 77.9029 19H76.0549C75.7189 19 75.4869 18.936 75.3589 18.808C75.2309 18.68 75.1669 18.448 75.1669 18.112V8.416C75.1669 8.016 75.2309 7.728 75.3589 7.552C75.4869 7.36 75.7429 7.184 76.1269 7.024C77.5189 6.448 79.0789 6.16 80.8069 6.16C81.9909 6.16 82.9669 6.384 83.7349 6.832ZM93.9151 11.488C93.9151 9.76 94.4111 8.44 95.4031 7.528C96.3951 6.616 97.8191 6.16 99.6751 6.16C101.579 6.16 103.019 6.64 103.995 7.6C104.971 8.544 105.459 9.752 105.459 11.224V12.688C105.459 13.488 105.043 13.888 104.211 13.888H97.5391V14.488C97.5391 15.752 98.2591 16.384 99.6991 16.384C100.739 16.384 101.499 16.064 101.979 15.424C102.187 15.136 102.379 14.968 102.555 14.92C102.747 14.872 103.019 14.936 103.371 15.112L104.547 15.712C105.171 16.032 105.299 16.504 104.931 17.128C104.003 18.616 102.243 19.36 99.6511 19.36C97.6831 19.36 96.2351 18.88 95.3071 17.92C94.3791 16.944 93.9151 15.648 93.9151 14.032V11.488ZM101.811 10.888C101.811 9.656 101.099 9.04 99.6751 9.04C98.2511 9.04 97.5391 9.656 97.5391 10.888V11.272H101.811V10.888ZM110.546 3.64C110.866 3.64 111.09 3.704 111.218 3.832C111.346 3.96 111.41 4.192 111.41 4.528V6.52H113.642C113.962 6.52 114.186 6.584 114.314 6.712C114.442 6.84 114.506 7.072 114.506 7.408V8.848C114.506 9.184 114.442 9.416 114.314 9.544C114.186 9.672 113.962 9.736 113.642 9.736H111.41V13.768C111.41 14.664 111.57 15.264 111.89 15.568C112.21 15.856 112.786 16 113.618 16C113.954 16 114.186 16.064 114.314 16.192C114.442 16.32 114.506 16.56 114.506 16.912V18.424C114.506 18.776 114.442 19.008 114.314 19.12C114.186 19.248 113.954 19.32 113.618 19.336C111.522 19.4 110.026 19.032 109.13 18.232C108.234 17.432 107.786 15.992 107.786 13.912V9.736H106.514C106.178 9.736 105.946 9.672 105.818 9.544C105.69 9.416 105.626 9.184 105.626 8.848V7.408C105.626 7.072 105.69 6.84 105.818 6.712C105.946 6.584 106.178 6.52 106.514 6.52H107.786V4.528C107.786 4.192 107.85 3.96 107.978 3.832C108.122 3.704 108.354 3.64 108.674 3.64H110.546ZM121.067 6.16H121.859C122.179 6.16 122.403 6.224 122.531 6.352C122.675 6.48 122.747 6.712 122.747 7.048V8.536C122.747 8.856 122.675 9.08 122.531 9.208C122.403 9.336 122.179 9.4 121.859 9.4H120.971C120.331 9.4 119.763 9.456 119.267 9.568C119.171 9.584 119.123 9.64 119.123 9.736V18.112C119.123 18.448 119.059 18.68 118.931 18.808C118.803 18.936 118.579 19 118.259 19H116.387C116.051 19 115.819 18.936 115.691 18.808C115.563 18.68 115.499 18.448 115.499 18.112V8.296C115.499 7.896 115.563 7.608 115.691 7.432C115.819 7.24 116.075 7.064 116.459 6.904C117.547 6.472 119.083 6.224 121.067 6.16ZM125.397 1.408C126.053 0.959999 126.581 0.967999 126.981 1.432L127.893 2.44C128.117 2.68 128.221 2.872 128.205 3.016C128.205 3.16 128.069 3.288 127.797 3.4L124.005 4.984C123.493 5.224 123.133 5.216 122.925 4.96L122.421 4.384C122.245 4.16 122.157 3.984 122.157 3.856C122.157 3.728 122.261 3.6 122.469 3.472L125.397 1.408ZM126.165 6.52C126.485 6.52 126.709 6.584 126.837 6.712C126.965 6.84 127.029 7.072 127.029 7.408V18.112C127.029 18.448 126.965 18.68 126.837 18.808C126.709 18.936 126.485 19 126.165 19H124.293C123.957 19 123.725 18.936 123.597 18.808C123.469 18.68 123.405 18.448 123.405 18.112V7.408C123.405 7.072 123.469 6.84 123.597 6.712C123.725 6.584 123.957 6.52 124.293 6.52H126.165ZM128.612 8.656C129.492 6.992 131.204 6.16 133.748 6.16C137.316 6.16 139.1 7.848 139.1 11.224V17.32C139.1 17.736 139.036 18.04 138.908 18.232C138.796 18.408 138.564 18.568 138.212 18.712C137.252 19.144 135.74 19.36 133.676 19.36C131.596 19.36 130.156 19.04 129.356 18.4C128.572 17.76 128.18 16.76 128.18 15.4C128.18 13.928 128.604 12.904 129.452 12.328C130.316 11.752 131.756 11.464 133.772 11.464C134.396 11.464 134.964 11.48 135.476 11.512V10.984C135.476 9.8 134.86 9.208 133.628 9.208C132.748 9.208 132.084 9.504 131.636 10.096C131.428 10.368 131.252 10.536 131.108 10.6C130.98 10.648 130.748 10.608 130.412 10.48L129.092 9.928C128.484 9.672 128.324 9.248 128.612 8.656ZM135.476 14.272C135.332 14.272 135.02 14.264 134.54 14.248C134.06 14.232 133.7 14.224 133.46 14.224C132.82 14.224 132.38 14.328 132.14 14.536C131.916 14.728 131.804 15.008 131.804 15.376C131.804 15.76 131.916 16.056 132.14 16.264C132.364 16.456 132.788 16.552 133.412 16.552C134.26 16.552 134.892 16.52 135.308 16.456C135.42 16.424 135.476 16.368 135.476 16.288V14.272Z" fill="#F59D24"/>
</svg>
