<svg width="59" height="20" viewBox="0 0 59 20" fill="none" xmlns="http://www.w3.org/2000/svg">
<path d="M10.7843 1.96C11.1523 1.96 11.4083 2.032 11.5523 2.176C11.6963 2.32 11.7683 2.576 11.7683 2.944V4.552C11.7683 4.92 11.6963 5.176 11.5523 5.32C11.4083 5.448 11.1523 5.512 10.7843 5.512H4.06428V8.944H9.58428C9.95228 8.944 10.2083 9.016 10.3523 9.16C10.4963 9.304 10.5683 9.56 10.5683 9.928V11.536C10.5683 11.904 10.4963 12.16 10.3523 12.304C10.2083 12.432 9.95228 12.496 9.58428 12.496H4.06428V18.016C4.06428 18.384 3.99228 18.64 3.84828 18.784C3.70428 18.928 3.44828 19 3.08028 19H1.13628C0.768282 19 0.512282 18.928 0.368282 18.784C0.224282 18.64 0.152282 18.384 0.152282 18.016V2.944C0.152282 2.576 0.224282 2.32 0.368282 2.176C0.512282 2.032 0.768282 1.96 1.13628 1.96H10.7843ZM15.0643 1.408C15.7203 0.959999 16.2483 0.967999 16.6483 1.432L17.5603 2.44C17.7843 2.68 17.8883 2.872 17.8723 3.016C17.8723 3.16 17.7363 3.288 17.4643 3.4L13.6723 4.984C13.1603 5.224 12.8003 5.216 12.5923 4.96L12.0883 4.384C11.9123 4.16 11.8243 3.984 11.8243 3.856C11.8243 3.728 11.9283 3.6 12.1363 3.472L15.0643 1.408ZM15.8323 6.52C16.1523 6.52 16.3763 6.584 16.5043 6.712C16.6323 6.84 16.6963 7.072 16.6963 7.408V18.112C16.6963 18.448 16.6323 18.68 16.5043 18.808C16.3763 18.936 16.1523 19 15.8323 19H13.9603C13.6243 19 13.3923 18.936 13.2643 18.808C13.1363 18.68 13.0723 18.448 13.0723 18.112V7.408C13.0723 7.072 13.1363 6.84 13.2643 6.712C13.3923 6.584 13.6243 6.52 13.9603 6.52H15.8323ZM18.1832 10.168C18.1832 8.952 18.6232 7.984 19.5032 7.264C20.3992 6.528 21.6792 6.16 23.3432 6.16C25.9832 6.16 27.7592 7.016 28.6712 8.728C28.9752 9.304 28.8152 9.728 28.1912 10L26.7752 10.6C26.4232 10.728 26.1832 10.768 26.0552 10.72C25.9272 10.672 25.7592 10.504 25.5512 10.216C25.1192 9.608 24.4232 9.304 23.4632 9.304C22.2792 9.304 21.6872 9.592 21.6872 10.168C21.6872 10.52 21.8552 10.768 22.1912 10.912C22.5272 11.056 23.1352 11.168 24.0152 11.248C25.7592 11.424 27.0392 11.792 27.8552 12.352C28.6872 12.896 29.1032 13.84 29.1032 15.184C29.1032 16.448 28.6312 17.464 27.6872 18.232C26.7432 18.984 25.4152 19.36 23.7032 19.36C20.7912 19.36 18.9512 18.408 18.1832 16.504C17.9592 15.912 18.1512 15.512 18.7592 15.304L20.2232 14.824C20.5272 14.712 20.7592 14.696 20.9192 14.776C21.0952 14.84 21.2552 15.024 21.3992 15.328C21.6872 15.936 22.4152 16.24 23.5832 16.24C24.9592 16.24 25.6472 15.912 25.6472 15.256C25.6472 14.872 25.4712 14.608 25.1192 14.464C24.7672 14.32 24.0952 14.2 23.1032 14.104C22.3832 14.04 21.7592 13.944 21.2312 13.816C20.7192 13.672 20.2152 13.464 19.7192 13.192C19.2232 12.92 18.8392 12.536 18.5672 12.04C18.3112 11.528 18.1832 10.904 18.1832 10.168ZM32.4576 1.744C33.0976 1.744 33.5376 1.872 33.7776 2.128C34.0336 2.368 34.1616 2.808 34.1616 3.448V3.688C34.1616 4.328 34.0336 4.776 33.7776 5.032C33.5376 5.272 33.0976 5.392 32.4576 5.392H31.9536C31.2976 5.392 30.8496 5.272 30.6096 5.032C30.3696 4.776 30.2496 4.328 30.2496 3.688V3.448C30.2496 2.808 30.3696 2.368 30.6096 2.128C30.8496 1.872 31.2976 1.744 31.9536 1.744H32.4576ZM33.1536 6.52C33.4736 6.52 33.6976 6.584 33.8256 6.712C33.9536 6.84 34.0176 7.072 34.0176 7.408V18.112C34.0176 18.448 33.9536 18.68 33.8256 18.808C33.6976 18.936 33.4736 19 33.1536 19H31.2816C30.9456 19 30.7136 18.936 30.5856 18.808C30.4576 18.68 30.3936 18.448 30.3936 18.112V7.408C30.3936 7.072 30.4576 6.84 30.5856 6.712C30.7136 6.584 30.9456 6.52 31.2816 6.52H33.1536ZM35.6005 11.248C35.6005 9.632 36.0725 8.384 37.0165 7.504C37.9605 6.608 39.3925 6.16 41.3125 6.16C42.6885 6.16 43.8245 6.456 44.7205 7.048C45.6165 7.624 46.2325 8.392 46.5685 9.352C46.6805 9.704 46.6885 9.968 46.5925 10.144C46.4965 10.32 46.2805 10.472 45.9445 10.6L44.4085 11.104C44.0565 11.232 43.7845 11.256 43.5925 11.176C43.4165 11.08 43.2645 10.856 43.1365 10.504C42.8005 9.688 42.1445 9.28 41.1685 9.28C39.8725 9.28 39.2245 9.88 39.2245 11.08V14.44C39.2245 15.64 39.8725 16.24 41.1685 16.24C42.1445 16.24 42.8005 15.832 43.1365 15.016C43.2645 14.68 43.4165 14.472 43.5925 14.392C43.7845 14.312 44.0565 14.328 44.4085 14.44L45.9685 14.92C46.6405 15.128 46.8485 15.552 46.5925 16.192C45.6965 18.304 43.8565 19.36 41.0725 19.36C37.4245 19.36 35.6005 17.664 35.6005 14.272V11.248ZM47.8058 8.656C48.6858 6.992 50.3978 6.16 52.9418 6.16C56.5098 6.16 58.2938 7.848 58.2938 11.224V17.32C58.2938 17.736 58.2298 18.04 58.1018 18.232C57.9898 18.408 57.7578 18.568 57.4058 18.712C56.4458 19.144 54.9338 19.36 52.8698 19.36C50.7898 19.36 49.3498 19.04 48.5498 18.4C47.7658 17.76 47.3738 16.76 47.3738 15.4C47.3738 13.928 47.7978 12.904 48.6458 12.328C49.5098 11.752 50.9498 11.464 52.9658 11.464C53.5898 11.464 54.1578 11.48 54.6698 11.512V10.984C54.6698 9.8 54.0538 9.208 52.8218 9.208C51.9418 9.208 51.2778 9.504 50.8298 10.096C50.6218 10.368 50.4458 10.536 50.3018 10.6C50.1738 10.648 49.9418 10.608 49.6058 10.48L48.2858 9.928C47.6778 9.672 47.5178 9.248 47.8058 8.656ZM54.6698 14.272C54.5258 14.272 54.2138 14.264 53.7338 14.248C53.2538 14.232 52.8938 14.224 52.6538 14.224C52.0138 14.224 51.5738 14.328 51.3338 14.536C51.1098 14.728 50.9978 15.008 50.9978 15.376C50.9978 15.76 51.1098 16.056 51.3338 16.264C51.5578 16.456 51.9818 16.552 52.6058 16.552C53.4538 16.552 54.0858 16.52 54.5018 16.456C54.6138 16.424 54.6698 16.368 54.6698 16.288V14.272Z" fill="#076777"/>
</svg>
