<svg width="24" height="24" viewBox="0 0 24 24" fill="none" xmlns="http://www.w3.org/2000/svg">
<path fill-rule="evenodd" clip-rule="evenodd" d="M21 16.9201V19.9201C21.0023 20.4832 20.767 21.0213 20.3521 21.402C19.9371 21.7827 19.3809 21.9708 18.82 21.9201C15.7428 21.5857 12.787 20.5342 10.19 18.8501C7.77383 17.3148 5.72534 15.2663 4.19 12.8501C2.49998 10.2413 1.44824 7.27109 1.12 4.1801C1.06947 3.62097 1.25627 3.06635 1.63477 2.65172C2.01326 2.23709 2.5486 2.00063 3.11 2.0001H6.11C7.11387 1.99022 7.9695 2.72607 8.11 3.7201C8.23662 4.68016 8.47145 5.62283 8.81 6.5301C9.08474 7.26097 8.90902 8.0849 8.36 8.6401L7.09 9.9101C8.51356 12.4136 10.5865 14.4865 13.09 15.9101L14.36 14.6401C14.9152 14.0911 15.7391 13.9154 16.47 14.1901C17.3773 14.5286 18.3199 14.7635 19.28 14.8901C20.2856 15.032 21.0252 15.9049 21 16.9201Z" stroke="url(#paint0_linear_172_14972)" stroke-width="2" stroke-linecap="round" stroke-linejoin="round"/>
<defs>
<linearGradient id="paint0_linear_172_14972" x1="11.0563" y1="2" x2="11.0563" y2="21.9282" gradientUnits="userSpaceOnUse">
<stop stop-color="#0A8CB3"/>
<stop offset="1" stop-color="#004D8E"/>
</linearGradient>
</defs>
</svg>
