<?xml version="1.0" encoding="utf-8"?>
<!-- Generator: Adobe Illustrator 18.1.1, SVG Export Plug-In . SVG Version: 6.00 Build 0)  -->
<svg version="1.1" id="Layer_1" xmlns="http://www.w3.org/2000/svg" xmlns:xlink="http://www.w3.org/1999/xlink" x="0px" y="0px"
	 viewBox="0 0 852.1 981.1" enable-background="new 0 0 852.1 981.1" xml:space="preserve">
<g>
	<path fill="#46C4E2" d="M99.3,946.5c0,0,3.3-25.9,52.4-31.8c0,0,2.6-4.7-6-10.8s-27.3-30.9-31.9-64.5c0,0-8,2-11.1,7.7
		c0,0-2.8-67.2,51.8-163.4c-0.6-30.7-2.8-95.9,33.9-138.6c0,0,3.7-10.5,0-11.7c-3.7-1.1-6.5-28.5-6-32.7c0.6-4.3-14.2-30.7-10-38.1
		c4.3-7.4-3.4-38.4-7.7-48.7c-4.3-10.2-15.4-45-15.9-54.6c-0.2-2.8-26.7-15.8-29.6-17.7c-14.4-9.6-27.9-20.3-39.1-33.5
		c-19.5-22.9-30.7-51.3-38.7-80c-5.5-19.7-18.6-56.4-3.9-74.7c15.7-19.4,82.3-5.7,103.3,4.3c18.5,8.8,36.2,19.9,53.1,31.4
		c1.2,0.8,2.5,1.7,3.7,2.5c1.8,1.3,2.2,1.8,4.4,0.5c5.6-3.4,11.1-6.9,16.6-10.4c5-3.2,10.8-5.3,16.5-7.1c11.5-3.7,23.4-5.6,35.2-8.1
		c11.2-2.3,22.4-4.5,33.7-6.3c11.5-1.8,23-3.2,34.6-4.1c3-0.3,6.1-0.4,9.1-0.5c4-0.1,7.9,0.1,11.8,0.9c1.2,0.2,2.4,0.4,3.5,0.5
		c2,0.2,4,0.2,6,0.1c0.7,0,1.5-0.1,2.2-0.1l3.1-1.1c0,0,0-28.5,14.8-49s68.3-72.3,68.3-72.3s42.7-41.6,64.9,14.2
		s26.2,97.3,17.1,131.5s-31.9,69.5-37.6,71.2c6.8,14.2,21.6,60.9,38.7,80.8s35.9,35,49.8,41.3c0,0-8.5,10.8-10.8,19.6
		c-2.3,8.8-1.1,7.4,1.7,6.3c2.8-1.1,16.5-2,16.5-2s-8.3,13.9-17.4,26.8c-9.1,12.8-31,52.7-56.4,66.9c-2.8,4-4,4,7.4,20.8
		c11.4,16.8,47.8,70.9,54.1,96.8c6.3,25.9,15.6,67.8,14.8,122.9c10.2,9.9,35.7,31.9,43.3,50.5c7.6,18.6,7.6,25.8,7.6,25.8
		s-11-14.4-15.6-15.9c0,0,10.2,24.3-7.2,63c0,0-3.8,5.7,14,3.4c17.8-2.3,82.7-6.1,105.1-33c22.4-26.9,11.8-72.9,0.4-86.5
		c0,0-25.4,41.4-71.7,10.6c-46.3-30.7,13.7-115.8,101.7-75.9c83.1,62.6,34.2,168.9-12.5,193.6c0,0-29.6,27.7-102.8,29.2l-72.5-1.1
		c0,0-7.2,4.2-7.2,10.6c0,6.5,5.7,5.7,15.2,5.7s39.8,4.2,52,15.9c12.1,11.8,12.1,20.9,12.1,20.9L502,945.7l-3-0.4
		c0,0-9.5,11.4-20.5,11.4s-19.7-7.6-30.7-21.6c-3,6.1-2.3,16.3-8.7,16.7c-6.5,0.4-21.3-2.3-22-33l-20.1,1.1c0,0,3,28.8-7.2,30.4
		c-10.2,1.5-13.3-10.2-18.2-11.8s-6.5,2.3-6.5,2.3s2.7,12.1-8.7,11.4s-13.7-2.3-15.2-11.8c-1.5-9.5-12.1-5.7-12.1-5.7l-3.4,4.6
		c0,0,4.2,14.4-12.1,14s-22.8,1.1-22.8-10.2L99.3,946.5z"/>
	<path fill="#3AB7D6" d="M523,405.8c0,0-16.8,107.4-101.8,130.1s-156.4,12.1-187.1,7.6s-75.2-19.4-77.4-24.7
		c-2.3-5.3,24.3-11,26.6-17.5s-17.8-7.2-31.1-8c-13.3-0.8,13.7-19.7,17.8-34.5c4.2-14.8-3-33.8-10.2-53.9
		c-7.2-20.1-26.6-100.6,0-156.7s63.4-65.7,69.8-69.5c6.5-3.8-4.2-13.3-19-16.3c-14.8-3,27.7-4.2,49,1.5c11.4,0.4,21.3-0.8,21.3-0.8
		s-13.3-11.3-34.2-13.6c-20.9-2.3,57.7-6.3,78.6,7.7c4.9,0,9.9,0,9.9,0s-16.7-20.3-25.8-23.7c0,0,35.3,16.1,52.4,26
		c17.1,9.9,39.5,16.6,65.3,57.6s27.7,109.6,48.2,129.4c20.5,19.7,45.9,37.5,45.9,37.5s-24.7,20.9-28.1,28.5L523,405.8z"/>
	<path fill="#2CADCE" d="M477.7,411.3c-1.7-9.2-6.3-18.7-14.2-28.8c-16.3-20.8-38.8-35.8-63.3-42.2c-12.3-3.2-23.2-4.8-33.5-4.8
		c-20.9,0-39.2,6.8-56,20.9c-26.4,22.2-42.2,53.4-42.1,83.6c0.1,30.6,23.2,53.6,53.7,53.6c1.5,0,3-0.1,4.5-0.2
		c12.3-0.9,23.7-5.6,32.2-13c6.8,1.1,27.5,3.2,43.3-8.1c7.7,4.8,16.1,8,24.5,8c5.2,0,10.1-1.3,14.5-3.8
		C463,464.3,482.5,438,477.7,411.3z"/>
	<path fill="#2CADCE" d="M223.3,545.8c26,4.5,50.8,10.7,75.8,12.7c62.7,4.9,125.4,7.6,181.5-29.4c1.2-0.8,2.9-1,5.9-2
		c1.2,10.3,2.8,20.1,3.5,29.9c1.8,22.9,3.2,45.9,4.9,68.9c2.5,32.6,6,65.1,7.5,97.8c1.6,33.7-1.3,67.2-11.8,99.4
		c-8.2,25-19.6,48.7-39.7,66.3c-10.7,9.4-23.2,17-35.9,23.6c-5.2,2.7-13.7,2.5-19.4,0.2c-17.1-6.9-34.9-13.4-49.9-23.8
		c-36.3-25-56.7-61-66.7-103.7c-9.5-40.7-21.2-80.8-31.1-121.4c-8.6-35.3-16-70.8-23.7-106.2C223.2,553.7,223.5,549.1,223.3,545.8z"
		/>
	<path fill="#2CADCE" d="M497.2,240.9c-12.8-15.5-22.8-30.1-35.2-42.2c-11.3-10.9-24.8-19.9-38.3-28.2c-8.4-5.1-11.3-9.5-6.2-18.5
		c13.9-24.5,31.8-45.4,55.3-60.8c14.4-9.4,26.6-6.3,33.8,9.4c19,41.3,23.4,83.1,1.3,125C505.2,230.7,501.3,235.1,497.2,240.9z"/>
	<path fill="#2CADCE" d="M147.9,343.1c-17.6-3.5-30.1-14.4-41-26.2c-23.7-25.6-34.5-57-36.3-91.5c-0.8-15.5,7.9-24.3,23.4-24.2
		c24.9,0.2,46.9,10.7,68.9,20.6c2.7,1.2,5.7,7.9,4.6,10.2c-16.4,33.7-19.1,69.6-17.7,106.2C149.8,339.3,149,340.4,147.9,343.1z"/>
	<path fill="#2CADCE" d="M156.4,690.6c1.2,4.2,3.3,8.3,3.4,12.5c1.2,37.6,10.1,73.8,21.4,109.7c1.9,6.2,3.8,12.4,5.5,18.6
		c3.2,11.7-0.1,15.6-12.6,11.5c-19.4-6.4-38-14.7-56.7-22.8c-11.7-5.1-10.4-14.9-7.4-24c6-18.2,12.1-36.5,19.3-54.3
		c7-17.3,15.4-34.2,23.1-51.2C153.7,690.5,155.1,690.6,156.4,690.6z"/>
	<path fill="#2CADCE" d="M807.5,713.3c15.1,29.8,13.4,58.8,3.7,86.3c-18.6,52.8-58.1,80.2-112.9,89.9c-27.2,4.8-54,6.2-81.3,6.1
		c-3.8,0-7.6-0.3-11,0.4c27.5-4.6,55-8.7,82.3-14c48.4-9.3,82.9-37.1,105.9-80.3c9.4-17.6,14-36.1,13.2-56
		C807.2,735.7,807.5,725.5,807.5,713.3z"/>
	<path fill="#341D1A" d="M256.3,362.2c0,18.1-12.4,30.7-30.6,31c-15.6,0.2-33.7-17.8-33.2-33.1c0.4-13.2,18.5-30,32.7-30.2
		C241.9,329.6,256.2,344.4,256.3,362.2z M213.2,349.1c-3.6,4.5-7.5,7.4-7.3,9.9c0.2,2.7,4.3,6.9,6.9,7c2.5,0.1,6.9-4,7.2-6.6
		C220.3,356.9,216.5,353.8,213.2,349.1z"/>
	<path fill="#341D1A" d="M456.7,273.3c18.8,0.1,31.9,12.4,31.7,29.7c-0.2,16.3-15.9,32.1-31.4,31.7c-15.7-0.4-31.5-17.3-31.5-33.4
		C425.6,286.2,440.1,273.2,456.7,273.3z M459,296.5c-4.3-3.5-7.5-8-9.7-7.6c-3.3,0.7-6,4.8-8.9,7.5c2.9,2.6,5.5,6.6,8.7,7.2
		C451.5,304,454.7,299.8,459,296.5z"/>
	<path fill="#FFFFFF" d="M213.2,349.1c6.3,0.4,7.1,7.8,6.8,10.3c-0.3,2.7-4.7,6.7-7.2,6.6c-2.5-0.1-6.7-4.3-6.9-7
		C205.6,356.5,206.9,348.7,213.2,349.1z"/>
	<path fill="#FFFFFF" d="M459,296.5c-0.2,6.7-7.5,7.5-9.9,7.1c-3.2-0.6-8.6-0.6-8.7-7.2s5.6-6.8,8.9-7.5
		C451.5,288.4,459.3,289.8,459,296.5z"/>
	<path fill="#3CD1F6" d="M375.1,440.3c-2.5,7.8-3.6,16.1-7.5,23.6c-7.8,14.9-24.3,23.7-40.9,25c-30.9,2.3-55.7-20.4-55.8-51.2
		c-0.1-31.9,17.3-61.7,41.3-81.8c26.5-22.2,54.6-24.2,87.4-15.6c24.5,6.5,46.5,21.6,62.1,41.4c6.4,8.2,11.9,17.5,13.8,27.8
		c4.6,25.6-13.9,50.8-35.3,62.9c-22,12.4-51.3-11.2-62.2-29.8C377.4,441.6,377,440.3,375.1,440.3z"/>
	<path fill="#884630" d="M403.5,378.2c-1,35.4-19.3,49.5-45.3,49.6c-24.5,0.2-54.4-20.7-53.9-48.2c0.4-23.8,28-45.3,58-44.9
		C387.9,335.1,403.8,351.8,403.5,378.2z"/>
	<path fill="#36A4C3" d="M298.5,843.6c0,0,84.4-29.6,139.4-80.1c55-50.5,63.8-59.6,63.8-59.6s8,63.4-9.9,115.4
		c-17.9,52-48.1,102.1-84,103.6C371.9,924.5,326.8,891.1,298.5,843.6z"/>
	<path fill="#38D0F5" d="M181.2,333.6c-2.8-0.5-5.5-0.7-8-1.5c-3.3-1-3.9-3.2-1.8-6c2.8-3.9,6.5-6.8,10.4-9.5
		c7.8-5.4,16.1-9.7,25.6-11.2c1.9-0.3,3.8-0.5,5.7-0.5c2.1,0,4,0.8,4.8,3.1c0.7,2.1-0.3,3.8-1.8,5.1c-1.9,1.5-3.8,2.8-6,3.8
		c-7.7,3.7-14.8,8.1-21.7,13.1C186.2,331.6,183.6,332.4,181.2,333.6z"/>
	<path fill="#38D0F5" d="M426.3,255c8.8-5.5,18.4-8.3,28.8-8.9c1.7-0.1,3.5-0.3,5.2-0.2c1.2,0,2.5,0.2,3.6,0.5
		c3.4,1.1,4.3,4.2,2.3,7.1c-1.8,2.5-4.4,4.2-7.2,5.3c-3,1.1-6.2,2-9.4,2.5c-7.3,1.1-14.3,2.6-21.1,5.6c-1.9,0.9-4.3,0.9-6.5,1.1
		c-1.9,0.1-3.4-0.7-4.2-2.6c-0.8-1.9-0.1-3.6,1.3-4.9c1.3-1.3,2.7-2.4,4.1-3.5C424.2,256.2,425.3,255.6,426.3,255z"/>
</g>
</svg>
