<?xml version="1.0" encoding="utf-8"?>
<!-- Generator: Adobe Illustrator 18.1.1, SVG Export Plug-In . SVG Version: 6.00 Build 0)  -->
<svg version="1.1" id="Layer_1" xmlns="http://www.w3.org/2000/svg" xmlns:xlink="http://www.w3.org/1999/xlink" x="0px" y="0px"
	 viewBox="0 0 1500.2 909.1" enable-background="new 0 0 1500.2 909.1" xml:space="preserve">
<g>
	<g>
		<path fill="#46C4E2" d="M280.3,814.6c0,0,2.6-20.9,42.2-25.7c0,0,2.1-3.8-4.8-8.7c-6.9-4.9-22-24.9-25.7-52c0,0-6.4,1.6-9,6.2
			c0,0-2.3-54.2,41.8-131.8c-0.5-24.8-2.3-77.4,27.3-111.8c0,0,3-8.5,0-9.4c-3-0.9-5.3-23-4.8-26.4c0.5-3.4-11.5-24.8-8-30.8
			c3.4-6-2.8-31-6.2-39.3c-3.4-8.3-12.4-36.3-12.9-44.1c-0.1-2.3-21.6-12.8-23.8-14.3c-11.6-7.8-22.5-16.3-31.6-27
			c-15.7-18.5-24.7-41.4-31.2-64.5c-4.5-15.9-15-45.5-3.1-60.2c12.6-15.6,66.4-4.6,83.3,3.4c14.9,7.1,29.2,16.1,42.8,25.3
			c1,0.7,2,1.3,3,2c1.5,1.1,1.8,1.5,3.6,0.4c4.5-2.7,8.9-5.6,13.4-8.4c4.1-2.6,8.7-4.3,13.3-5.7c9.3-3,18.9-4.5,28.4-6.5
			c9-1.9,18.1-3.7,27.2-5.1c9.2-1.5,18.6-2.6,27.9-3.3c2.4-0.2,4.9-0.3,7.3-0.4c3.3-0.1,6.3,0.1,9.5,0.7c0.9,0.2,1.9,0.3,2.9,0.4
			c1.6,0.1,3.2,0.2,4.8,0.1c0.6,0,1.2-0.1,1.8-0.1l2.5-0.9c0,0,0-23,11.9-39.5c11.9-16.5,55.1-58.3,55.1-58.3s34.4-33.5,52.3,11.5
			c17.9,45,21.1,78.5,13.8,106.1s-25.7,56-30.3,57.4c5.5,11.5,17.4,49.1,31.2,65.2c13.8,16.1,28.9,28.2,40.2,33.3
			c0,0-6.9,8.7-8.7,15.8c-1.8,7.1-0.9,6,1.4,5.1c2.3-0.9,13.3-1.6,13.3-1.6s-6.7,11.3-14,21.6c-7.3,10.3-25,42.5-45.5,54
			c-2.3,3.2-3.2,3.2,6,16.8c9.2,13.5,38.6,57.2,43.6,78.1c5.1,20.9,12.6,54.7,11.9,99.1c8.3,8,28.8,25.7,34.9,40.7
			c6.1,15,6.1,20.8,6.1,20.8s-8.9-11.6-12.6-12.9c0,0,8.3,19.6-5.8,50.8c0,0-3.1,4.6,11.3,2.8c14.4-1.8,66.7-4.9,84.8-26.6
			c18.1-21.7,9.5-58.8,0.3-69.8c0,0-20.5,33.4-57.9,8.6c-37.3-24.8,11-93.4,82-61.2c67,50.5,27.6,136.2-10.1,156.1
			c0,0-23.9,22.3-83,23.6l-58.5-0.9c0,0-5.8,3.4-5.8,8.6s4.6,4.6,12.2,4.6s32.1,3.4,41.9,12.9c9.8,9.5,9.8,16.8,9.8,16.8l-129.2-2.1
			l-2.4-0.3c0,0-7.7,9.2-16.5,9.2s-15.9-6.1-24.8-17.4c-2.4,4.9-1.8,13.2-7,13.5c-5.2,0.3-17.1-1.8-17.8-26.6l-16.2,0.9
			c0,0,2.4,23.3-5.8,24.5c-8.3,1.2-10.7-8.3-14.7-9.5s-5.2,1.8-5.2,1.8s2.1,9.8-7,9.2c-9.2-0.6-11-1.8-12.2-9.5
			c-1.2-7.7-9.8-4.6-9.8-4.6l-2.8,3.7c0,0,3.4,11.6-9.8,11.3c-13.2-0.3-18.4,0.9-18.4-8.3L280.3,814.6z"/>
		<path fill="#3AB7D6" d="M622.1,378.4c0,0-13.5,86.6-82.1,105c-68.6,18.4-126.2,9.8-151,6.1c-24.8-3.7-60.6-15.6-62.5-19.9
			c-1.8-4.3,19.6-8.9,21.4-14.1c1.8-5.2-14.4-5.8-25.1-6.4s11-15.9,14.4-27.9c3.4-11.9-2.5-27.2-8.3-43.5
			c-5.8-16.2-21.4-81.1,0-126.4c21.4-45.3,51.1-53,56.3-56s-3.4-10.7-15.3-13.2c-11.9-2.4,22.3-3.4,39.5,1.2
			c9.2,0.3,17.1-0.6,17.1-0.6s-10.7-9.5-27.6-11.3s46.5-5.2,63.4,5.8c4,0,8,0,8,0s-13.5-16-20.8-18.8c0,0,28.5,13.2,42.2,21.2
			c13.8,8,31.8,13.5,52.7,46.5s22.3,88.5,38.9,104.4c16.5,15.9,37,30.3,37,30.3s-19.9,16.8-22.7,23L622.1,378.4z"/>
		<path fill="#2CADCE" d="M585.5,382.9c-1.3-7.5-5.1-15-11.5-23.2c-13.1-16.8-31.3-28.9-51.1-34.1c-9.9-2.6-18.8-3.9-27-3.9
			c-16.9,0-31.7,5.5-45.2,16.8c-21.3,17.9-34,43.1-34,67.4c0.1,24.7,18.7,43.2,43.3,43.2c1.2,0,2.4,0,3.6-0.1
			c10-0.7,19.1-4.5,25.9-10.5c5.5,0.9,22.2,2.6,34.9-6.5c6.2,3.8,13,6.4,19.8,6.4c4.2,0,8.2-1,11.7-3
			C573.7,425.7,589.4,404.4,585.5,382.9z"/>
		<path fill="#2CADCE" d="M380.3,491.3c21,3.6,40.9,8.7,61.2,10.2c50.5,4,101.2,6.1,146.4-23.7c1-0.7,2.3-0.8,4.7-1.6
			c1,8.3,2.2,16.2,2.9,24.1c1.5,18.5,2.6,37,4,55.6c2,26.3,4.8,52.5,6.1,78.9c1.3,27.2-1.1,54.2-9.5,80.2
			c-6.6,20.2-15.8,39.3-32,53.5c-8.6,7.6-18.8,13.7-29,19c-4.2,2.2-11.1,2-15.7,0.2c-13.8-5.6-28.1-10.8-40.3-19.2
			c-29.3-20.1-45.7-49.2-53.8-83.7c-7.7-32.8-17.1-65.2-25.1-98c-6.9-28.4-12.9-57.1-19.1-85.7C380.2,497.7,380.5,494,380.3,491.3z"
			/>
		<path fill="#2CADCE" d="M601.2,245.5c-10.3-12.5-18.4-24.3-28.4-34c-9.1-8.8-20-16-30.9-22.7c-6.8-4.1-9.2-7.7-5-14.9
			c11.2-19.7,25.6-36.6,44.6-49.1c11.6-7.6,21.4-5.1,27.3,7.6c15.3,33.3,18.9,67.1,1.1,100.8C607.7,237.2,604.6,240.7,601.2,245.5z"
			/>
		<path fill="#2CADCE" d="M319.5,327.9c-14.2-2.8-24.3-11.7-33.1-21.2c-19.1-20.6-27.9-46-29.2-73.8c-0.6-12.5,6.4-19.6,18.9-19.5
			c20.1,0.1,37.9,8.6,55.6,16.7c2.2,1,4.6,6.4,3.7,8.2c-13.2,27.2-15.4,56.1-14.3,85.6C321,324.8,320.4,325.7,319.5,327.9z"/>
		<path fill="#2CADCE" d="M326.3,608.2c0.9,3.4,2.6,6.7,2.7,10.1c1,30.3,8.2,59.5,17.2,88.5c1.6,5,3,10,4.4,15
			c2.6,9.4-0.1,12.6-10.2,9.2c-15.6-5.2-30.7-11.9-45.7-18.4c-9.5-4.1-8.4-12-6-19.4c4.9-14.7,9.8-29.4,15.6-43.8
			c5.6-14,12.4-27.6,18.6-41.3C324.2,608.1,325.3,608.1,326.3,608.2z"/>
		<path fill="#2CADCE" d="M851.5,626.4c12.2,24.1,10.8,47.4,3,69.6c-15,42.6-46.9,64.7-91.1,72.5c-21.9,3.9-43.6,5-65.5,4.9
			c-3,0-6.1-0.3-8.8,0.4c22.1-3.7,44.4-7,66.4-11.3c39-7.5,66.9-30,85.5-64.8c7.6-14.2,11.3-29.1,10.7-45.2
			C851.3,644.5,851.5,636.3,851.5,626.4z"/>
		<path fill="#341D1A" d="M406.9,343.3c0,14.6-10,24.8-24.7,25c-12.6,0.2-27.2-14.4-26.8-26.7c0.3-10.7,14.9-24.2,26.3-24.4
			C395.3,317,406.9,328.9,406.9,343.3z M372.1,332.7c-2.9,3.7-6.1,6-5.9,8c0.2,2.2,3.5,5.6,5.6,5.7c2,0.1,5.5-3.2,5.8-5.3
			C377.9,339,374.8,336.5,372.1,332.7z"/>
		<path fill="#341D1A" d="M568.6,271.5c15.1,0.1,25.7,10,25.5,23.9c-0.2,13.1-12.9,25.9-25.3,25.5c-12.6-0.3-25.4-14-25.4-27
			C543.5,281.9,555.2,271.5,568.6,271.5z M570.5,290.2c-3.5-2.9-6.1-6.5-7.8-6.1c-2.7,0.6-4.8,3.9-7.2,6c2.3,2.1,4.4,5.4,7.1,5.8
			C564.4,296.3,566.9,292.9,570.5,290.2z"/>
		<path fill="#FFFFFF" d="M372.1,332.7c5,0.3,5.7,6.3,5.5,8.3c-0.3,2.1-3.8,5.4-5.8,5.3c-2.1-0.1-5.4-3.5-5.6-5.7
			C366,338.7,367.1,332.4,372.1,332.7z"/>
		<path fill="#FFFFFF" d="M570.5,290.2c-0.2,5.4-6.1,6.1-8,5.7c-2.6-0.5-7-0.5-7.1-5.8s4.5-5.5,7.2-6
			C564.4,283.8,570.7,284.9,570.5,290.2z"/>
		<path fill="#36A4C3" d="M441,731.6c0,0,68.1-23.9,112.4-64.6s51.4-48.1,51.4-48.1s6.5,51.1-8,93.1c-14.5,41.9-38.8,82.3-67.8,83.6
			C500.1,796.8,463.8,769.9,441,731.6z"/>
		<path fill="#38D0F5" d="M346.3,320.2c-2.3-0.4-4.4-0.6-6.4-1.2c-2.7-0.8-3.1-2.6-1.5-4.8c2.3-3.1,5.2-5.5,8.4-7.6
			c6.3-4.4,13-7.8,20.7-9.1c1.5-0.2,3.1-0.4,4.6-0.4c1.7,0,3.2,0.7,3.9,2.5c0.6,1.7-0.2,3.1-1.5,4.1c-1.5,1.2-3.1,2.3-4.8,3.1
			c-6.2,3-12,6.6-17.5,10.6C350.4,318.6,348.3,319.2,346.3,320.2z"/>
		<path fill="#38D0F5" d="M544.1,256.8c7.1-4.4,14.9-6.7,23.2-7.2c1.4-0.1,2.8-0.2,4.2-0.2c1,0,2,0.1,2.9,0.4
			c2.7,0.9,3.5,3.4,1.8,5.7c-1.5,2-3.5,3.4-5.8,4.3c-2.4,0.9-5,1.6-7.6,2c-5.9,0.9-11.6,2.1-17,4.5c-1.6,0.7-3.5,0.7-5.2,0.9
			c-1.5,0.1-2.8-0.6-3.3-2.1c-0.6-1.5,0-2.9,1-4c1-1,2.2-1.9,3.3-2.8C542.4,257.8,543.2,257.3,544.1,256.8z"/>
	</g>
	<g>
		<path fill="#FFB56C" d="M172.3,362.7c17.2,0,34.4,0,51.6,0c11,0,17.9,6.4,18,17.5c0.2,34.7,0.2,69.5,0,104.2
			c-0.1,11.6-7,18.1-18.6,18.1c-34.4,0-68.8,0-103.2,0c-11.1,0-18-6.4-18-17.4c-0.2-35.1-0.2-70.1,0-105.2
			c0-10.9,6.7-17.2,17.6-17.2C137.3,362.7,154.8,362.7,172.3,362.7z M224.4,432.4c-0.2-29.2-23.8-52.6-53-52.3
			c-29.1,0.2-52,23.8-51.8,53.4c0.2,28.4,24.4,52.2,52.7,51.8C201.2,484.8,224.6,461.1,224.4,432.4z"/>
		<path fill="#FFFFFF" d="M224.4,432.4c0.2,28.7-23.2,52.5-52.2,52.9c-28.3,0.4-52.5-23.4-52.7-51.8c-0.2-29.6,22.7-53.2,51.8-53.4
			C200.6,379.8,224.2,403.1,224.4,432.4z M171.9,479.5c26.4,0.1,47.2-20.5,47.2-46.9c0-26.2-21.1-47.5-47-47.4
			c-25.9,0.1-47.2,21.1-47.3,46.7C124.6,458.6,145.3,479.5,171.9,479.5z"/>
		<path fill="#004A90" d="M171.9,479.5c-26.6-0.1-47.3-21-47.2-47.6c0.1-25.6,21.4-46.6,47.3-46.7c25.9-0.1,47.1,21.2,47,47.4
			C219,459,198.3,479.6,171.9,479.5z M185.2,432.5c0,5.1,4,9.3,9,9.3c4.8,0,9.2-4.6,9.2-9.4c-0.1-4.7-4.2-8.8-9-9
			C189.3,423.3,185.3,427.3,185.2,432.5z M150.1,423.5c-5.1-0.2-9.3,3.8-9.4,8.9c-0.1,5,4.1,9.4,8.9,9.5c4.6,0.1,8.9-4.1,9.2-8.8
			C159,428,155.1,423.6,150.1,423.5z"/>
		<path fill="#FFFFFF" d="M185.2,432.5c0-5.1,4.1-9.1,9.2-9c4.8,0.1,8.9,4.2,9,9c0.1,4.8-4.4,9.3-9.2,9.4
			C189.2,441.8,185.2,437.6,185.2,432.5z"/>
		<path fill="#FFFFFF" d="M150.1,423.5c5,0.2,9,4.5,8.7,9.6c-0.2,4.7-4.6,8.9-9.2,8.8c-4.9-0.1-9-4.5-8.9-9.5
			C140.7,427.3,145,423.3,150.1,423.5z"/>
	</g>
	<g>
		<path fill="#004A90" d="M409.8,618c-2-0.9-2.7-1.9-2.6-4.1c0.2-5.2,0.1-5.5-5.7-6c0-14.5,0.1-29.2,0.1-43.7c0,0,0.1,0,0.1,0
			c0.5-19,1.6-37.9,2.5-57c0.8-18.1,4.4-35.9,10.5-52.9c3-8.3,6.3-16.4,10.5-24.2c1-1.9,2.1-3.6,3.2-5.4c0.8-1.2,3.8-4.2,3.8-5.5
			c0.1-1.8-6.4-7.4-7.9-8.9c-0.8-0.9-15,20.8-15.7,22.1c-7,12.8-11.5,26.2-13.9,40.6c-3,18.7-3.1,38.2-3.8,57.1
			c-0.4,10.2-0.6,20.8-0.7,30.8c0,0-0.1,0-0.1,0c0,15.6,0.1,31.7,0.1,47.7c-5.3,0.4-5.3,0.2-5.2,5.6c0,0.1,0,0.2,0,0.4
			c0.2,1.7-0.3,2.4-2,3.2c-12.9,5.9-19.9,16-20.6,30.1c-0.3,6.6-0.1,13.7,0,20.4c0,0.5,0,1.9,0.1,1.9h10.6h10h27.1h7.1h12.4
			c0.1,0,0.2-1.6,0.2-2.3c0-6.2,0.1-12.6,0-18.8C429.6,634.6,422.8,624.2,409.8,618z"/>
		<path fill="#333333" d="M373.3,670.4v1.4c0,0,0,1.4,0,2.8v25c0,3.2,2.2,4.8,5.1,4.8c3.1-0.1,4.8-2,4.8-5.7c0-4,0.1-7.6,0.1-11.6
			c0-5.3,0-11,0-15.3c0,0,0.1-1.5,0.1-1.5L373.3,670.4z"/>
		<path fill="#333333" d="M410.3,670.4v1.4c0,0,0,1.4,0,2.8v25c0,3.2,2.2,4.8,5.1,4.8c3.1-0.1,4.9-2,4.9-5.7c0-4,0.1-7.6,0.1-11.6
			c0-5.3,0-11,0-15.3c0,0,0-1.5,0-1.5L410.3,670.4z"/>
	</g>
	<path fill="#004A90" d="M924.5,534.8c0,0-37.9,15.2-87,13.7c-24.4-0.7-47.6-1.3-69.8-12.6c-20.3-10.3-37.5-26.8-48-47
		c-2.7-5.3-5.1-11.5-3.2-17.1c1.4-4.3,5.1-7.6,9.2-9.6c7.8-3.8,17.4-3.4,24.8,0.9s12.5,12.6,12.9,21.2c0.7,12.9-7.9,24.2-16.1,34.1
		c-8.6,10.3-18.1,21-31,24.9c-10.7,3.2-22.3,1.2-33.2-1.6c-18.7-4.8-37.9-11.9-51.6-25.9c-19.4-19.9-22.3-45-29-70.6
		c-5.7-21.8-17-45.1-38.4-52.4c-3.2,3.8-6.3,7.6-9.5,11.3c13.7,2.1,24.2,13.7,29.9,26.3c5.7,12.6,7.6,26.6,11.4,39.9
		c7.7,26.8,23.6,51.8,46.7,67.5c23.1,15.7,53.5,21.3,79.8,12c26.3-9.3,47-34.6,48.2-62.5c0.6-13.8-4.6-29.1-17-35.1
		c-7-3.3-15.3-3.2-22.8-1.3c-7.5,1.8-15,5.5-19.4,11.9c-7.9,11.4-3.8,27.3,3.3,39.2c19.6,32.9,57.9,51.2,96,55.4
		c30.1,3.3,60.3-1,89.7-7.2c8.3-1.8,16.6-3.8,25-5.1c8.2-1.3,15.2-1.3,23.6-0.6c17.3,1.5,34.8,4.2,51,10.7
		c21.2,8.5,40.4,24.4,47.8,45.9c4.8,14.1,4.2,29.5,2.2,44.3c-3.6,25.6-11.6,50.5-23.6,73.5c-9,17.3-20.4,33.7-25,52.7
		c-7.7,31.5,5.5,63.6,31.1,82.8c19,14.2,42.4,21.3,65.9,25c28.8,4.5,58.7,4.2,86.6-4.2c40.3-12,69.8-40.3,86.7-78.3
		c17.8-40.1,23.6-85.2,47.3-122.8c36.9-58.5,115.2-84.3,179.8-59.2c3,1.2-1.6-8.9-1.9-9.4c-2.2-2.9-10.8-5.1-14.2-6.4
		c-10.6-4.1-21.9-6.7-33.3-7.7c-22.9-2-46.4,2.1-67.3,11.5c-37.3,16.9-66.4,49.4-83.6,86.6c-19.4,41.9-25.2,90.5-52.9,127.5
		c-22,29.5-56.9,48.7-93.4,53.3c-36.5,4.6-74.4-5-105.3-25c-13.4-8.7-26-19.9-31.7-34.8c-6.7-17.7-2.6-37.8,5.1-55
		s18.8-32.8,26.9-49.9c18.5-39.2,22.1-91.1,0.9-130.1c-16.4-30.3-48.4-42.8-81.5-44c-13.8-0.5-27.6,0.7-41.2,2.7"/>
	<path fill="#3CD1F6" d="M502.8,406.3c-2,6.3-2.9,13-6.1,19c-6.3,12-19.6,19.1-33,20.1c-24.9,1.9-44.9-16.4-45-41.3
		c-0.1-25.8,13.9-49.7,33.3-66c21.4-17.9,44.1-19.5,70.5-12.6c19.8,5.2,37.5,17.4,50.1,33.4c5.2,6.6,9.6,14.1,11.1,22.4
		c3.7,20.7-11.2,41-28.5,50.7c-17.8,10-41.4-9-50.2-24.1C504.6,407.3,504.3,406.3,502.8,406.3z"/>
	<path fill="#884630" d="M525.7,356.2c-0.8,28.6-15.6,39.9-36.5,40c-19.7,0.1-43.9-16.7-43.5-38.9c0.3-19.2,22.6-36.6,46.8-36.2
		C513.1,321.4,525.9,334.9,525.7,356.2z"/>
</g>
</svg>
