<svg width="24" height="24" viewBox="0 0 24 24" fill="none" xmlns="http://www.w3.org/2000/svg">
<path d="M23.6887 8.87619L22.5324 8.10402L12.1259 1.08424H11.9987C11.9278 1.04785 11.8542 1.01964 11.779 1H11.5593H11.3512C11.2722 1.01965 11.1948 1.04785 11.1199 1.08424H10.9927L0.586175 8.10402C0.408226 8.22647 0.260212 8.40404 0.157234 8.61862C0.0542564 8.8332 0 9.07711 0 9.32546C0 9.57381 0.0542564 9.81772 0.157234 10.0323C0.260212 10.2469 0.408226 10.4245 0.586175 10.5469L3.46532 12.4844V19.1391C3.46532 20.2562 3.83078 21.3275 4.48132 22.1174C5.13185 22.9072 6.01417 23 6.93416 23H16.1844C17.1044 23 17.9867 22.9072 18.6373 22.1174C19.2878 21.3275 19.6533 20.2562 19.6533 19.1391V12.4844L22.2549 10.8909V14.9272C22.2549 15.6292 22.4369 15.8895 22.5324 16.0055C22.6638 16.1651 22.9392 16.3312 23.1221 16.3312C23.305 16.3312 23.7115 16.3312 23.8809 16.0055C24.0503 15.6798 23.9893 15.6292 23.9893 14.9272V9.83791C23.989 9.58914 23.9893 9.31143 23.9893 9.31143C23.9893 9.31143 23.8673 8.99809 23.6887 8.87619ZM17.4496 19.1391C17.4496 19.5115 17.3793 19.9697 17.0516 20.3676C16.9071 20.5431 16.4911 20.8941 16.1844 20.8941H6.93416C6.6275 20.8941 5.97166 20.6029 5.77788 20.3676C5.5666 20.111 5.34427 19.5115 5.34427 19.1391V13.5233L10.9927 17.5526L11.1662 17.6369H11.2702C11.3662 17.6516 11.4633 17.6516 11.5593 17.6369C11.6553 17.6516 11.7524 17.6516 11.8484 17.6369H11.9524C12.0138 17.6212 12.0725 17.5927 12.1259 17.5526L17.4852 14.0498L17.4496 19.1391ZM11.2702 15.3671L2.30903 9.32546L11.5593 3.27176L20.5205 9.31143L11.2702 15.3671Z" fill="#B2C8DE"/>
</svg>
