<svg width="24" height="24" viewBox="0 0 24 24" fill="none" xmlns="http://www.w3.org/2000/svg">
<path fill-rule="evenodd" clip-rule="evenodd" d="M12 16C14.2091 16 16 14.2091 16 12C16 9.79086 14.2091 8 12 8C9.79086 8 8 9.79086 8 12C8 14.2091 9.79086 16 12 16Z" stroke="#B2C8DE" stroke-width="2" stroke-linecap="round" stroke-linejoin="round"/>
<path d="M15.9996 12.0004V13.0004C15.9996 14.6572 17.3428 16.0004 18.9996 16.0004C20.6565 16.0004 21.9996 14.6572 21.9996 13.0004V12.0004C21.9993 7.35326 18.7977 3.31877 14.2723 2.26265C9.74676 1.20653 5.0901 3.40714 3.03287 7.57407C0.975646 11.741 2.06007 16.776 5.65024 19.7266C9.24042 22.6772 14.3901 22.7658 18.0796 19.9404" stroke="#B2C8DE" stroke-width="2" stroke-linecap="round" stroke-linejoin="round"/>
</svg>
