<svg width="24" height="24" viewBox="0 0 24 24" fill="none" xmlns="http://www.w3.org/2000/svg">
<path d="M12.6466 3.27359C12.4324 3.25778 12.2177 3.24986 12.0029 3.24984V2C12.2486 2.00012 12.4941 2.00929 12.7391 2.0275L12.6466 3.27359ZM15.1513 3.83602C14.7506 3.68142 14.3392 3.55652 13.9202 3.46232L14.1939 2.24247C14.6726 2.34996 15.1438 2.49244 15.6012 2.66992L15.1513 3.83602ZM16.8636 4.72341C16.6849 4.60424 16.5019 4.49167 16.3149 4.38595L16.9311 3.29859C17.3584 3.54073 17.7674 3.81393 18.1547 4.11599L17.386 5.10211C17.2166 4.96992 17.0423 4.84401 16.8636 4.72466V4.72341ZM19.1558 6.96063C18.9086 6.60939 18.6358 6.27687 18.3396 5.96575L19.2445 5.10336C19.582 5.45957 19.8944 5.84077 20.1782 6.24072L19.1558 6.96063ZM20.0857 8.65042C20.0036 8.45227 19.9144 8.25716 19.8182 8.06549L20.9343 7.50306C21.155 7.94186 21.343 8.39638 21.4967 8.86289L20.3094 9.25409C20.2422 9.0502 20.1676 8.84884 20.0857 8.65042ZM20.7481 11.7838C20.738 11.3543 20.6962 10.9261 20.6231 10.5027L21.8542 10.2902C21.9379 10.7727 21.9867 11.2626 21.9992 11.7525L20.7493 11.7838H20.7481ZM20.5844 13.706C20.6256 13.4936 20.6593 13.2823 20.6856 13.0686L21.9267 13.2223C21.8667 13.71 21.7706 14.1925 21.6392 14.6659L20.4344 14.3322C20.4919 14.126 20.5419 13.9173 20.5844 13.706ZM19.3945 16.6794C19.6245 16.317 19.827 15.937 20.0019 15.5446L21.1443 16.0507C20.9443 16.5007 20.7131 16.9331 20.4506 17.3481L19.3945 16.6794ZM18.1897 18.1855C18.3421 18.033 18.4884 17.8755 18.6271 17.713L19.5745 18.5292C19.414 18.7152 19.2469 18.8953 19.0733 19.0691L18.1897 18.1855Z" fill="#B2C8DE" stroke="#B2C8DE"/>
<path d="M12.0027 3.24984C10.5639 3.24995 9.14744 3.60486 7.87864 4.28314C6.60984 4.96142 5.5279 5.94213 4.72863 7.13842C3.92937 8.3347 3.43747 9.70964 3.29649 11.1414C3.1555 12.5732 3.3698 14.0177 3.92039 15.3469C4.47097 16.6761 5.34086 17.849 6.45301 18.7617C7.56515 19.6744 8.88521 20.2988 10.2963 20.5795C11.7074 20.8602 13.1659 20.7886 14.5427 20.371C15.9194 19.9534 17.172 19.2028 18.1894 18.1855L19.073 19.0691C17.9103 20.2324 16.4787 21.091 14.9048 21.5688C13.331 22.0466 11.6637 22.1288 10.0505 21.8081C8.4373 21.4875 6.92811 20.7739 5.65663 19.7306C4.38516 18.6872 3.39065 17.3464 2.76123 15.8269C2.13181 14.3073 1.8869 12.656 2.04822 11.0192C2.20953 9.3824 2.77208 7.81065 3.68603 6.44322C4.59997 5.07579 5.83709 3.95489 7.28778 3.17986C8.73846 2.40482 10.3579 1.99956 12.0027 2V3.24984Z" fill="#B2C8DE" stroke="#B2C8DE"/>
<path d="M11.3779 5.75C11.5436 5.75 11.7025 5.81584 11.8197 5.93304C11.9369 6.05023 12.0028 6.20918 12.0028 6.37492V12.8866L16.0623 15.2063C16.202 15.2906 16.3032 15.4262 16.3443 15.5841C16.3853 15.7421 16.363 15.9098 16.282 16.0515C16.2011 16.1931 16.0679 16.2975 15.911 16.3423C15.7541 16.3871 15.5859 16.3688 15.4423 16.2912L11.0679 13.7915C10.9722 13.7369 10.8927 13.6579 10.8374 13.5627C10.7821 13.4674 10.753 13.3592 10.7529 13.2491V6.37492C10.7529 6.20918 10.8188 6.05023 10.936 5.93304C11.0532 5.81584 11.2121 5.75 11.3779 5.75Z" fill="#B2C8DE" stroke="#B2C8DE"/>
</svg>
